<svg xmlns="http://www.w3.org/2000/svg" width="59.425" height="42.9" viewBox="0 0 59.425 42.9">
  <g id="batch-icon2" transform="translate(-1152.989 -534.557)">
    <path id="Path_132999" data-name="Path 132999" d="M353.141,165.953a4.918,4.918,0,0,0,1.277-3.288v-1.981a4.952,4.952,0,1,0-9.9,0v1.981a4.917,4.917,0,0,0,1.277,3.288,4.948,4.948,0,0,0-3.258,4.634v3.961h1.981v-3.961a2.968,2.968,0,0,1,2.969-2.969h.992v6.93h1.981v-6.93h.988a2.969,2.969,0,0,1,2.973,2.969v3.961H356.4v-3.961a4.948,4.948,0,0,0-3.258-4.634m-.7-3.288a2.971,2.971,0,1,1-5.942,0v-1.981a2.971,2.971,0,1,1,5.942,0Z" transform="translate(833.236 378.826)" fill="#b58500"/>
    <path id="Path_133000" data-name="Path 133000" d="M349.837,178.528l-1.816-2.719v-7.627a4.956,4.956,0,0,0-4.95-4.95h-1.98v1.981h1.98a2.968,2.968,0,0,1,2.969,2.969v7.926a1.013,1.013,0,0,0,.168.549l.954,1.431h-3.1v-9.906h-1.981v10.895a.993.993,0,0,0,.992.992h5.942a.992.992,0,0,0,.992-.992.977.977,0,0,0-.168-.549" transform="translate(829.726 397.075)" fill="#b58500"/>
    <path id="Path_133001" data-name="Path 133001" d="M352.734,162.665v-1.981a4.952,4.952,0,1,0-9.9,0v1.981a4.926,4.926,0,0,0,1.48,3.522,5.951,5.951,0,0,0-3.385,4.49,4.9,4.9,0,0,0-3.048-1.078h-.989a.99.99,0,0,0-.992.989c0,.041,0,.082.007.124l1.727,13.8a3.322,3.322,0,0,0,2.849,2.873l-3.539,10.62,1.878.625,3.735-11.207h8.2v10.895h1.981V186.435a4.957,4.957,0,0,0-4.953-4.953h-3.961a.99.99,0,0,1-.989-.992v-8.911a3.961,3.961,0,0,1,3.961-3.961v10.892h1.981V168.167a3.947,3.947,0,0,1,1.981,3.412v8.911h1.981v-8.911a5.918,5.918,0,0,0-2.348-4.72,4.944,4.944,0,0,0,2.348-4.195m-8.914,20.8h3.961a2.973,2.973,0,0,1,2.791,1.981h-9.645a1.344,1.344,0,0,1-1.332-1.174l-1.583-12.69a2.97,2.97,0,0,1,2.839,2.969v5.942a2.971,2.971,0,0,0,2.969,2.973m6.934-20.8a2.971,2.971,0,1,1-5.942,0v-1.981a2.971,2.971,0,1,1,5.942,0Z" transform="translate(817.092 378.826)" fill="#b58500"/>
    <path id="Path_133002" data-name="Path 133002" d="M341.379,161.79v1.981h9.9V183.58h1.98V163.771h9.906V161.79Z" transform="translate(830.428 393.565)" fill="#b58500"/>
    <path id="Path_133003" data-name="Path 133003" d="M349.38,176.109v-7.922a2.974,2.974,0,0,1,2.973-2.973h1.981v-1.981h-1.981a4.957,4.957,0,0,0-4.953,4.953v7.624l-1.816,2.722a.992.992,0,0,0,.824,1.538h5.945a.989.989,0,0,0,.989-.989V168.186H351.36v9.9h-3.1l.958-1.431a1,1,0,0,0,.165-.549" transform="translate(840.255 397.075)" fill="#b58500"/>
    <path id="Path_133004" data-name="Path 133004" d="M363.407,184.51l1.727-13.8a.992.992,0,0,0-.865-1.1.666.666,0,0,0-.117-.007h-.992a4.9,4.9,0,0,0-3.048,1.078,5.949,5.949,0,0,0-3.381-4.49,4.936,4.936,0,0,0,1.476-3.522v-1.981a4.951,4.951,0,1,0-9.9,0v1.981a4.944,4.944,0,0,0,2.348,4.195,5.937,5.937,0,0,0-2.348,4.72v8.911h1.981v-8.911a3.954,3.954,0,0,1,1.981-3.412v10.342h1.981V167.618a3.958,3.958,0,0,1,3.961,3.961v8.911a.99.99,0,0,1-.989.992h-3.961a4.959,4.959,0,0,0-4.953,4.953v11.884h1.981V187.424h8.2l3.738,11.207,1.881-.625-3.546-10.624a3.321,3.321,0,0,0,2.849-2.873m-7.181-21.845a2.971,2.971,0,1,1-5.942,0v-1.981a2.971,2.971,0,1,1,5.942,0Zm3.886,22.778h-9.646a2.968,2.968,0,0,1,2.791-1.981h3.961a2.974,2.974,0,0,0,2.973-2.973v-5.942a2.967,2.967,0,0,1,2.839-2.969l-1.586,12.687a1.342,1.342,0,0,1-1.332,1.177" transform="translate(847.272 378.826)" fill="#b58500"/>
  </g>
</svg>
