<svg xmlns="http://www.w3.org/2000/svg" width="52.089" height="37.374" viewBox="0 0 52.089 37.374">
  <path id="batch-icon1" d="M530.676,159.536h-3.433v-1.17a1.008,1.008,0,0,0-.728-1.009,28.314,28.314,0,0,0-7.28-.93c-4.037,0-9.542.91-13.61,5.049-4.04-4.181-9.584-5.049-13.61-5.049a28.313,28.313,0,0,0-7.28.93,1.008,1.008,0,0,0-.728,1.009v1.16h-3.4a1.009,1.009,0,0,0-1.009,1.009v32.252a1.008,1.008,0,0,0,1.5.879c.1-.051,10.2-5.574,24.292-2.022h.244a.97.97,0,0,0,.244,0c14.135-3.584,24.231,1.929,24.292,2.022a1.018,1.018,0,0,0,1.009,0,1.006,1.006,0,0,0,.5-.868V160.545a1.009,1.009,0,0,0-1.009-1.009m-49.062,31.645V161.554h2.413V186.88a1.006,1.006,0,0,0,1,1.019.833.833,0,0,0,.161-.01,44.162,44.162,0,0,1,6.312-.5,26.17,26.17,0,0,1,8.622,1.3,37.121,37.121,0,0,0-18.508,2.5m9.886-5.8a43.92,43.92,0,0,0-5.5.354V159.162a27.9,27.9,0,0,1,5.99-.666c3.776,0,8.986.868,12.6,4.946l.031,25.154c-2.1-1.373-6.2-3.22-13.126-3.22m15.144-21.934c3.614-4.037,8.825-4.946,12.6-4.946a28.119,28.119,0,0,1,5.99.666V185.73a44.1,44.1,0,0,0-5.465-.364c-6.886,0-10.995,1.847-13.126,3.22Zm23.012,27.739a37.127,37.127,0,0,0-18.549-2.5,26.235,26.235,0,0,1,8.664-1.3,44.132,44.132,0,0,1,6.35.494,1.009,1.009,0,0,0,1.15-.848.828.828,0,0,0,.014-.161V161.554H529.7Z" transform="translate(-479.596 -156.426)" fill="#b58500"/>
</svg>
