<svg xmlns="http://www.w3.org/2000/svg" width="103.363" height="78.645" viewBox="0 0 103.363 78.645">
  <path id="icon-1" d="M99.929,21.461l-41.2-20.13a16.89,16.89,0,0,0-13.141,0L3.434,21.461C.473,22.881,0,24.892,0,25.959s.473,2.961,3.434,4.5l3.434,1.657V51.06A5.8,5.8,0,0,0,3.2,56.388a5.875,5.875,0,0,0,3.551,5.325L1.42,78.646H16.339L11.014,61.713a5.735,5.735,0,0,0-.12-10.653V34.128l6.275,3.078V61.834a1.9,1.9,0,0,0,.353,1.064c.594.714,11.6,15.748,34.1,15.748S85.131,63.491,85.6,62.9a1.9,1.9,0,0,0,.353-1.064V37.326l13.971-6.869c2.961-1.42,3.434-3.434,3.434-4.5-.12-1.067-.473-3.078-3.434-4.5M82.17,61.24A39.583,39.583,0,0,1,51.623,74.974,39.583,39.583,0,0,1,21.077,61.24V38.863L45.585,50.587a15.994,15.994,0,0,0,6.512,1.3,14.414,14.414,0,0,0,6.629-1.42L82.17,38.983Zm16.1-34.1L84.064,34.128a1.361,1.361,0,0,0-1.3.71L57.068,47.269c-2.487,1.3-7.339,1.3-9.947,0L15.512,32.114,51.86,27.853a1.844,1.844,0,1,0-.357-3.671L9.353,29.156,5.092,27.142a2.385,2.385,0,0,1-1.3-1.067c0-.117.237-.59,1.3-1.064L47.242,4.765A12.207,12.207,0,0,1,52.1,3.818a11.971,11.971,0,0,1,4.972.947l41.2,20.126c1.067.473,1.3.947,1.3,1.184a3.265,3.265,0,0,1-1.3,1.067" transform="translate(0 0)" fill="#b58500"/>
</svg>
