<svg id="icon-2" xmlns="http://www.w3.org/2000/svg" width="79.856" height="77.984" viewBox="0 0 79.856 77.984">
  <path id="Path_132951" data-name="Path 132951" d="M24.341,17.913h-6.43L28.534,2.244A.989.989,0,0,1,28.65,2.1a1,1,0,0,1,.113.144L39.39,17.913H32.963V35.226c.666-.412,1.345-.8,2.045-1.149V19.955h5.016c1.77,0,2.405-1.2,1.414-2.662L30.455,1.1a2.032,2.032,0,0,0-3.609,0L15.863,17.292c-.992,1.465-.357,2.662,1.41,2.662H22.3V34.077c.7.353,1.379.738,2.041,1.149Z" transform="translate(11.274)" fill="#b58500"/>
  <path id="Path_132952" data-name="Path 132952" d="M28.487,25.41H25.536V31.82L9.867,21.194a1.248,1.248,0,0,1-.144-.113.959.959,0,0,1,.144-.113l15.67-10.626v6.447h2.951A23.29,23.29,0,0,1,44.331,23c.415-.542.854-1.064,1.307-1.575a25.334,25.334,0,0,0-17.152-6.677h-.909V9.7c0-1.2-.552-1.88-1.366-1.88a2.351,2.351,0,0,0-1.293.47L8.721,19.276a2.031,2.031,0,0,0,0,3.609l16.2,10.983a2.371,2.371,0,0,0,1.293.467c.813,0,1.366-.676,1.366-1.88v-5h.909a12.713,12.713,0,0,1,10.794,6.011q.309-1.271.731-2.491A14.719,14.719,0,0,0,28.487,25.41" transform="translate(-7.622 19.018)" fill="#b58500"/>
  <path id="Path_132953" data-name="Path 132953" d="M62.59,19.272,46.392,8.29A2.371,2.371,0,0,0,45.1,7.823c-.813,0-1.366.676-1.366,1.88v5.04h-.909A25.444,25.444,0,0,0,17.407,40.157V58.966h2.045V40.157A23.4,23.4,0,0,1,42.824,16.785h2.951V10.338l15.67,10.626a1.248,1.248,0,0,1,.144.113.96.96,0,0,1-.144.113L45.775,31.816V25.407H42.824a14.767,14.767,0,0,0-14.75,14.75V58.966h2.041V40.157A12.725,12.725,0,0,1,42.824,27.449h.909v5.006c0,1.2.552,1.88,1.366,1.88a2.351,2.351,0,0,0,1.293-.47l16.2-10.983a2.031,2.031,0,0,0,0-3.609" transform="translate(16.167 19.018)" fill="#b58500"/>
</svg>
