<svg xmlns="http://www.w3.org/2000/svg" width="74.831" height="64.225" viewBox="0 0 74.831 64.225">
  <g id="icon-3" transform="translate(0 0)">
    <path id="Path_133005" data-name="Path 133005" d="M72.076,29.922l-4.4-3.764a10.466,10.466,0,0,0,2.268-6.588c0-5.3-3.7-9.614-8.238-9.614s-8.242,4.313-8.242,9.614a10.472,10.472,0,0,0,2.261,6.578l-4.481,3.767a7.662,7.662,0,0,0-1.709,2.1,7.816,7.816,0,0,0-1.678-2.093l-4.4-3.764a10.466,10.466,0,0,0,2.268-6.588c0-5.3-3.7-9.614-8.238-9.614s-8.242,4.313-8.242,9.614a10.452,10.452,0,0,0,2.261,6.578l-4.485,3.767a7.842,7.842,0,0,0-1.709,2.1,7.8,7.8,0,0,0-1.674-2.093l-4.4-3.764a10.466,10.466,0,0,0,2.268-6.588c0-5.3-3.7-9.614-8.238-9.614S5.03,14.269,5.03,19.57a10.452,10.452,0,0,0,2.261,6.578L2.807,29.915A7.842,7.842,0,0,0,0,35.941v2.992a1.088,1.088,0,1,0,2.175,0V35.941A5.683,5.683,0,0,1,4.207,31.58l4.66-3.912a7.356,7.356,0,0,0,4.4,1.517,7.333,7.333,0,0,0,4.4-1.513l4.56,3.9A5.688,5.688,0,0,1,24.218,35.9v3.03a1.088,1.088,0,1,0,2.175,0V35.941a5.683,5.683,0,0,1,2.031-4.361l4.66-3.912a7.149,7.149,0,0,0,8.8,0l4.56,3.9a5.685,5.685,0,0,1,1.99,4.327v3.03a1.089,1.089,0,0,0,2.179,0V35.941a5.672,5.672,0,0,1,2.031-4.361L57.3,27.668a7.149,7.149,0,0,0,8.8,0l4.56,3.9a5.685,5.685,0,0,1,1.99,4.327v3.03a1.089,1.089,0,0,0,2.179,0V35.9a7.868,7.868,0,0,0-2.755-5.981M55.644,19.57c0-4.1,2.718-7.439,6.063-7.439s6.063,3.335,6.063,7.439-2.721,7.439-6.063,7.439-6.063-3.339-6.063-7.439m-24.221,0c0-4.1,2.721-7.439,6.066-7.439s6.063,3.335,6.063,7.439-2.721,7.439-6.063,7.439-6.066-3.339-6.066-7.439m-24.218,0c0-4.1,2.721-7.439,6.063-7.439s6.063,3.335,6.063,7.439-2.718,7.439-6.063,7.439S7.206,23.671,7.206,19.57" transform="translate(0 24.205)" fill="#b58500"/>
    <path id="Path_133006" data-name="Path 133006" d="M4.413,31.591A1.088,1.088,0,0,0,5.5,30.5V4.8A2.627,2.627,0,0,1,8.125,2.175H50.539A2.629,2.629,0,0,1,53.163,4.8V30.5a1.088,1.088,0,1,0,2.175,0V4.8a4.805,4.805,0,0,0-4.8-4.8H8.125a4.8,4.8,0,0,0-4.8,4.8V30.5a1.088,1.088,0,0,0,1.088,1.088" transform="translate(8.084 0)" fill="#b58500"/>
    <path id="Path_133007" data-name="Path 133007" d="M38.732,2.871,26.225,15.381,18.347,7.5a1.1,1.1,0,0,0-1.541,0L6.132,18.174a1.089,1.089,0,0,0,.769,1.86,1.1,1.1,0,0,0,.772-.319l9.9-9.906,7.882,7.878a1.111,1.111,0,0,0,1.537,0L40.273,4.412a1.089,1.089,0,1,0-1.541-1.541" transform="translate(14.133 6.204)" fill="#b58500"/>
  </g>
</svg>
