<svg xmlns="http://www.w3.org/2000/svg" width="20.837" height="19.943" viewBox="0 0 20.837 19.943">
  <path id="eye-no" d="M18.774,14.888l-1.317-1.317a20.111,20.111,0,0,0,1.619-1.857c.122-.158.234-.308.337-.45-.1-.142-.215-.292-.337-.45a19.866,19.866,0,0,0-1.906-2.14c-1.95-1.885-3.978-3-5.938-3a5.674,5.674,0,0,0-1.47.2L8.289,4.4a7.9,7.9,0,0,1,2.943-.59c2.54,0,4.969,1.332,7.233,3.521a21.709,21.709,0,0,1,2.086,2.342c.371.481.635.86.779,1.086l.321.5-.321.5c-.144.226-.408.6-.779,1.086a21.962,21.962,0,0,1-1.777,2.036Zm-2.88,2.355a8.748,8.748,0,0,1-4.662,1.472c-2.54,0-4.969-1.332-7.233-3.521a21.711,21.711,0,0,1-2.086-2.342c-.371-.481-.635-.86-.779-1.086l-.321-.5.321-.5c.144-.226.408-.6.779-1.086A21.707,21.707,0,0,1,4,7.336q.518-.5,1.047-.94L1.26,2.61,2.577,1.293,21.2,19.919l-1.317,1.317ZM6.37,7.72q-.541.436-1.076.955a19.859,19.859,0,0,0-1.906,2.14c-.122.158-.234.308-.337.45.1.142.215.292.337.45a19.855,19.855,0,0,0,1.906,2.14c1.95,1.885,3.978,3,5.938,3a6.71,6.71,0,0,0,3.3-.97l-1.409-1.409a3.726,3.726,0,0,1-5.1-5.1Zm3.062,3.062a1.864,1.864,0,0,0,2.282,2.282Z" transform="translate(-0.813 -1.293)" fill="#fff" fill-rule="evenodd"/>
</svg>
