<svg xmlns="http://www.w3.org/2000/svg" width="30" height="30" viewBox="0 0 30 30">
  <g id="linkedin-outline" transform="translate(-1.845 -1.986)">
    <rect id="base" width="30" height="30" transform="translate(1.845 1.986)" fill="none"/>
    <g id="Group_125303" data-name="Group 125303" transform="translate(0 0.163)">
      <path id="Ellipse_9919" data-name="Ellipse 9919" d="M3.4-.95A4.347,4.347,0,1,1-.95,3.4,4.347,4.347,0,0,1,3.4-.95Zm0,6.794A2.447,2.447,0,1,0,.95,3.4,2.447,2.447,0,0,0,3.4,5.844Z" transform="translate(2.795 2.821)" fill="#c7993b"/>
      <path id="Path_107300" data-name="Path 107300" d="M23.746,7.6a9.114,9.114,0,0,1,3.987.781,5.964,5.964,0,0,1,2.519,2.248c.987,1.574,1.427,3.7,1.427,6.9V27.868a.947.947,0,0,1-.945.95H24.912a.947.947,0,0,1-.945-.95V18.7c0-2.8-.3-4.046-2.082-4.046-1.613,0-2.548.637-2.548,3.891v9.32a.947.947,0,0,1-.945.95H12.573a.947.947,0,0,1-.945-.95V9.021a.947.947,0,0,1,.945-.95h5.586a.947.947,0,0,1,.945.95v.128a6.91,6.91,0,0,1,.621-.435A7.6,7.6,0,0,1,23.746,7.6ZM29.79,26.913v-9.38c0-2.818-.35-4.634-1.136-5.886C27.738,10.186,26.179,9.5,23.746,9.5a5.189,5.189,0,0,0-4.674,2.536.944.944,0,0,1-.835.507h-.079a.947.947,0,0,1-.945-.95V9.971h-3.7V26.917h3.929v-8.37a8.064,8.064,0,0,1,.726-3.8,3.9,3.9,0,0,1,3.711-1.99,3.48,3.48,0,0,1,3.515,2.28,10.394,10.394,0,0,1,.458,3.666v8.216ZM3.095,8.071H8.918a.947.947,0,0,1,.945.95V27.867a.947.947,0,0,1-.945.95H3.095a.947.947,0,0,1-.945-.95V9.021a.947.947,0,0,1,.945-.95Zm4.884,1.9H4.035V26.917H7.974Z" transform="translate(0.166 3.005)" fill="#c7993b"/>
    </g>
  </g>
</svg>
