<svg id="logo-second" xmlns="http://www.w3.org/2000/svg" width="229.682" height="65" viewBox="0 0 229.682 65">
  <g id="Group_125544" data-name="Group 125544" transform="translate(0 0)">
    <path id="Path_131438" data-name="Path 131438" d="M.9,45.7c.309.023.636.045,1.32.045.169,0,.619,0,1.133-.022.807-.046,1.3-.068,1.892-.068,3.991,0,6.472,2.954,6.472,7.86,0,5.477-2.606,9.326-6.424,9.326a9.84,9.84,0,0,1-1.274-.068,11.954,11.954,0,0,0-1.287-.047A18.462,18.462,0,0,0,.7,62.817a4.425,4.425,0,0,1-.512.023c-.093,0-.154-.091-.154-.205s.062-.207.154-.207C1.8,62.268,1.8,62.2,1.8,60.595V47.9c0-1.6-.233-1.788-1.615-1.788C.05,46.112,0,46,0,45.882s.048-.228.187-.228ZM3.836,59.747c0,2.154.42,2.635,1.753,2.635,2.578,0,3.8-4.195,3.8-8.3,0-4.926-1.786-7.907-4.767-7.907H3.836Z" transform="translate(0 1.93)" fill="#fff"/>
    <path id="Path_131439" data-name="Path 131439" d="M16.963,53.7c1.427,0,2.375-.275,2.592-2.246.014-.114.061-.161.108-.161s.108.047.108.185,0,.275-.017.869c-.016.55-.029,1.536-.029,1.949s.014,1.214.029,1.649c.017.367.017.413.017.5,0,.138-.046.205-.108.205-.047,0-.095-.046-.108-.182-.235-2.062-1.135-2.268-2.592-2.268H16.03V60.3c0,1.628.311,1.971,1.086,1.971H17.4c1.987,0,3-1.306,3.634-4.355.015-.068.046-.114.093-.114s.108.046.108.183c0,.825-.231,3.14-.342,3.9-.121.916-.215.962-.637.962-.386,0-.635,0-1.442-.046-.963-.045-2.314-.069-3.539-.069-.575,0-1.165.024-1.645.047-.545.046-.978.068-1.164.068-.126,0-.172-.115-.172-.229s.046-.228.172-.228c1.381,0,1.535-.068,1.535-2.338V48.655c0-2.36-.093-2.406-1.691-2.543-.11,0-.172-.115-.172-.229s.062-.229.172-.229c.047,0,.326,0,.6.023.855.045,1.878.092,2.282.092h1.753c1.042,0,1.754,0,2.424-.069.5-.046.617-.046.7-.046.294,0,.341.046.355.483.032.664.047,1.328.047,2.2,0,.526-.015,1.053-.032,1.489-.015.206-.046.275-.123.275s-.123-.046-.142-.228c-.263-2.246-.93-3.69-2.559-3.69H16.388c-.264,0-.358.092-.358.664V53.7Z" transform="translate(0.515 1.93)" fill="#fff"/>
    <path id="Path_131440" data-name="Path 131440" d="M31.031,46.166a1.538,1.538,0,0,0,.73.3c.249,0,.311-.139.373-.413.03-.115.063-.161.123-.161s.126.046.126.161c0,.047-.018.252-.065.619a22.014,22.014,0,0,0-.122,2.452c0,.641.015,1.375.046,2.222,0,.138-.046.206-.124.206s-.125-.045-.14-.183c-.636-4.078-2.017-5.523-3.711-5.523-2.218,0-3.646,4.377-3.646,8.457,0,4.859,1.662,8.364,3.8,8.364,1.692,0,3.119-1.467,3.772-5.867.015-.115.076-.161.122-.161.065,0,.125.069.125.183,0,.045,0,.205-.015.549-.018.506-.032,1.353-.032,2.064,0,.779.015,1.42.079,2.13.046.506.062.757.062.85,0,.115-.048.182-.108.182s-.094-.023-.124-.138c-.156-.527-.279-.618-.45-.618a2.011,2.011,0,0,0-.854.32,5.983,5.983,0,0,1-2.995.917c-3.339,0-5.807-3.553-5.807-8.181,0-5.938,3.383-9.465,6.147-9.465a5.313,5.313,0,0,1,2.685.733" transform="translate(0.941 1.92)" fill="#fff"/>
    <path id="Path_131441" data-name="Path 131441" d="M37.195,60.87c0,1.375.032,1.42,1.552,1.513.093,0,.154.091.154.228,0,.115-.046.23-.154.23-.062,0-.172,0-.5-.024-.606-.045-1.446-.092-2.066-.092s-1.458.047-2.064.092c-.325.024-.434.024-.5.024-.11,0-.156-.116-.156-.23,0-.138.063-.228.156-.228,1.52-.093,1.551-.138,1.551-1.513V47.624c0-1.375-.031-1.421-1.551-1.514-.094,0-.156-.092-.156-.229,0-.114.046-.228.156-.228.062,0,.17,0,.5.023.606.046,1.445.092,2.064.092s1.46-.046,2.066-.092c.324-.023.435-.023.5-.023.108,0,.154.115.154.228,0,.138-.062.229-.154.229-1.52.093-1.552.139-1.552,1.514Z" transform="translate(1.419 1.93)" fill="#fff"/>
    <path id="Path_131442" data-name="Path 131442" d="M46.719,50.108c0,.159-.062.252-.139.252s-.141-.046-.154-.207c-.312-2.611-1.181-4.261-2.593-4.261-1.117,0-1.926,1.054-1.926,2.978,0,2.018,1.04,2.8,2.485,3.8C46.283,54,47.37,54.99,47.37,57.74s-1.412,5.34-4.128,5.34a5.02,5.02,0,0,1-1.662-.345,3.151,3.151,0,0,0-1.009-.252c-.154,0-.357.024-.512.436-.03.092-.078.139-.139.139s-.126-.069-.126-.206a1.514,1.514,0,0,1,.048-.344,12.146,12.146,0,0,0,.217-2.522c0-.94-.063-1.925-.109-2.428a2.586,2.586,0,0,1-.015-.3c0-.138.062-.228.139-.228.062,0,.125.068.141.161.65,3.321,1.411,5.43,3.243,5.43,1.429,0,2.345-1.053,2.345-3.025,0-1.993-.791-2.887-2.654-4.308-1.707-1.282-2.921-2.452-2.921-4.972,0-3.094,1.648-4.881,3.525-4.881a3.748,3.748,0,0,1,1.816.5,1.432,1.432,0,0,0,.62.228c.236,0,.279-.115.39-.413.032-.114.093-.161.154-.161.077,0,.171.092.171.252a5.1,5.1,0,0,1-.062.55c-.093.71-.125,2.292-.125,3.254Z" transform="translate(1.687 1.92)" fill="#fff"/>
    <path id="Path_131443" data-name="Path 131443" d="M51.9,60.87c0,1.375.032,1.42,1.552,1.513.093,0,.154.091.154.228,0,.115-.046.23-.154.23-.062,0-.172,0-.5-.024-.607-.045-1.446-.092-2.066-.092s-1.458.047-2.063.092c-.326.024-.435.024-.5.024-.107,0-.154-.116-.154-.23,0-.138.06-.228.154-.228,1.523-.093,1.554-.138,1.554-1.513V47.624c0-1.375-.031-1.421-1.554-1.514-.094,0-.154-.092-.154-.229,0-.114.047-.228.154-.228.065,0,.173,0,.5.023.6.046,1.442.092,2.063.092s1.459-.046,2.066-.092c.324-.023.435-.023.5-.023.108,0,.154.115.154.228,0,.138-.061.229-.154.229-1.52.093-1.552.139-1.552,1.514Z" transform="translate(2.043 1.93)" fill="#fff"/>
    <path id="Path_131444" data-name="Path 131444" d="M65.613,53.66c0,6.051-2.886,9.42-5.48,9.42-3.166,0-5.48-3.643-5.48-8.25,0-5.982,2.888-9.4,5.48-9.4,3.166,0,5.48,3.689,5.48,8.226m-2.328.6c0-2.795-.327-5.866-1.474-7.356-.607-.757-.965-1.008-1.678-1.008A1.927,1.927,0,0,0,58.4,47.015c-1.087,1.649-1.412,4.812-1.412,7.218,0,2.8.325,5.89,1.473,7.38.606.757.963,1.007,1.676,1.007a1.931,1.931,0,0,0,1.74-1.122c1.085-1.651,1.412-4.836,1.412-7.243" transform="translate(2.317 1.92)" fill="#fff"/>
    <path id="Path_131445" data-name="Path 131445" d="M76.113,49.457c0-2.452-.776-3.254-2.453-3.322-.094,0-.154-.116-.154-.23s.06-.252.154-.252c.065,0,.232,0,.591.023.838.07,1.536.092,2.063.092.436,0,.871-.022,1.615-.092a3.838,3.838,0,0,1,.437-.023c.093,0,.139.138.139.252s-.046.23-.139.23c-1.243.09-1.863.87-1.863,3.322V62.588c0,.413-.126.458-.236.458a.291.291,0,0,1-.247-.2L68.539,47.989V58.968c0,2.727.325,3.3,2.39,3.414.092,0,.14.115.14.229s-.048.23-.14.23c-.047,0-.173,0-.5-.024-.822-.069-1.49-.092-2.1-.092a15.067,15.067,0,0,0-1.705.092,2.662,2.662,0,0,1-.343.024c-.093,0-.155-.116-.155-.23s.063-.229.155-.229c1.257-.115,1.863-.687,1.863-3.414V48.242c0-2.04-.187-2.132-1.863-2.132-.093,0-.155-.115-.155-.229s.093-.229.155-.229h3.26c.358,0,.512.229.7.62l5.868,11.686Z" transform="translate(2.804 1.929)" fill="#fff"/>
    <path id="Path_131446" data-name="Path 131446" d="M89.431,50.108c0,.159-.062.252-.139.252s-.141-.046-.154-.207c-.312-2.611-1.181-4.261-2.593-4.261-1.117,0-1.926,1.054-1.926,2.978,0,2.018,1.04,2.8,2.485,3.8,1.892,1.33,2.979,2.315,2.979,5.065s-1.412,5.34-4.128,5.34a5.02,5.02,0,0,1-1.662-.345,3.138,3.138,0,0,0-1.009-.252c-.154,0-.356.024-.512.436-.03.092-.078.139-.139.139s-.126-.069-.126-.206a1.514,1.514,0,0,1,.048-.344,12.146,12.146,0,0,0,.217-2.522c0-.94-.063-1.925-.108-2.428a2.413,2.413,0,0,1-.016-.3c0-.138.061-.228.139-.228.061,0,.125.068.141.161.653,3.321,1.411,5.43,3.243,5.43,1.429,0,2.345-1.053,2.345-3.025,0-1.993-.791-2.887-2.654-4.308-1.707-1.282-2.921-2.452-2.921-4.972,0-3.094,1.648-4.881,3.525-4.881a3.748,3.748,0,0,1,1.816.5,1.432,1.432,0,0,0,.62.228c.236,0,.281-.115.39-.413.031-.114.093-.161.154-.161.077,0,.171.092.171.252a5.1,5.1,0,0,1-.062.55c-.093.71-.125,2.292-.125,3.254Z" transform="translate(3.498 1.92)" fill="#fff"/>
    <path id="Path_131447" data-name="Path 131447" d="M101,49.686c0-2.063-.125-3.483-1.957-3.575-.093,0-.154-.115-.154-.229s.061-.228.154-.228a2.423,2.423,0,0,1,.358.023,14.8,14.8,0,0,0,1.753.092,10.92,10.92,0,0,0,1.211-.069,5.54,5.54,0,0,1,.575-.046c.108,0,.154.115.154.228,0,.093-.046.229-.154.229-1.522.093-1.551,1.513-1.551,3.575v6.669c0,4.33-1.446,6.715-4.07,6.715-3.291,0-4.949-2.408-4.949-6.808V47.623c0-1.375-.032-1.42-1.555-1.513-.093,0-.154-.092-.154-.229,0-.114.048-.228.154-.228.065,0,.173,0,.5.023.607.045,1.443.092,2.065.092s1.568-.023,2.39-.092c.325-.023.435-.023.5-.023.108,0,.157.115.157.228,0,.138-.065.229-.157.229-1.831.093-1.877.138-1.877,1.513v8.916c0,3.781.993,5.958,3.073,5.958,2.219,0,3.539-2.178,3.539-5.958Z" transform="translate(3.844 1.93)" fill="#fff"/>
    <path id="Path_131448" data-name="Path 131448" d="M104.967,48.1c0-1.81-.076-1.854-1.551-1.992-.094,0-.156-.116-.156-.23s.063-.228.156-.228a3.673,3.673,0,0,1,.4.022c.761.069,1.617.093,2.021.093a11.19,11.19,0,0,0,1.255-.068,8.55,8.55,0,0,1,1.149-.047c2.7,0,4.02,1.97,4.02,4.651,0,2.452-1.271,5.157-4.082,5.157A2.623,2.623,0,0,1,107,55.186v5.591c0,1.193.016,1.422.73,1.513a12.011,12.011,0,0,0,1.287.092c.107,0,.156.116.156.23s-.049.229-.156.229c-.047,0-.2,0-.543-.024-.731-.046-1.6-.091-2.484-.091a17.956,17.956,0,0,0-2,.091c-.326.024-.513.024-.575.024-.094,0-.156-.115-.156-.229s.063-.23.156-.23c1.522-.069,1.551-.207,1.551-1.513ZM107,54.727a1.528,1.528,0,0,0,.884.229c1.536,0,2.206-2.016,2.206-4.193,0-2.728-.916-4.629-2.36-4.629-.543,0-.73.365-.73,1.282Z" transform="translate(4.378 1.93)" fill="#fff"/>
    <path id="Path_131449" data-name="Path 131449" d="M114.123,48.1c0-1.81-.076-1.854-1.551-1.992-.094,0-.154-.116-.154-.23s.06-.228.154-.228a3.672,3.672,0,0,1,.4.022c.763.069,1.616.093,2.02.093a11.2,11.2,0,0,0,1.256-.068,8.558,8.558,0,0,1,1.149-.047c2.7,0,4.02,1.97,4.02,4.651,0,2.452-1.271,5.157-4.082,5.157a2.623,2.623,0,0,1-1.179-.275v5.591c0,1.193.016,1.422.73,1.513a12.01,12.01,0,0,0,1.287.092c.107,0,.156.116.156.23s-.049.229-.156.229c-.047,0-.2,0-.543-.024-.731-.046-1.6-.091-2.482-.091a17.971,17.971,0,0,0-2,.091c-.326.024-.513.024-.575.024-.094,0-.154-.115-.154-.229s.06-.23.154-.23c1.522-.069,1.551-.207,1.551-1.513Zm2.035,6.623a1.532,1.532,0,0,0,.884.229c1.537,0,2.206-2.016,2.206-4.193,0-2.728-.916-4.629-2.36-4.629-.543,0-.73.365-.73,1.282Z" transform="translate(4.767 1.93)" fill="#fff"/>
    <path id="Path_131450" data-name="Path 131450" d="M133.053,53.66c0,6.051-2.886,9.42-5.479,9.42-3.167,0-5.478-3.643-5.478-8.25,0-5.982,2.886-9.4,5.478-9.4,3.167,0,5.479,3.689,5.479,8.226m-2.328.6c0-2.795-.327-5.866-1.474-7.356-.607-.757-.962-1.008-1.677-1.008a1.927,1.927,0,0,0-1.738,1.124c-1.087,1.649-1.412,4.812-1.412,7.218,0,2.8.325,5.89,1.473,7.38.606.757.963,1.007,1.677,1.007a1.931,1.931,0,0,0,1.739-1.122c1.085-1.651,1.412-4.836,1.412-7.243" transform="translate(5.177 1.92)" fill="#fff"/>
    <path id="Path_131451" data-name="Path 131451" d="M139.252,54.292c1.521.3,2.624.894,3.15,4.515.326,2.268.5,3.322,1.1,3.322a.588.588,0,0,0,.279-.067.485.485,0,0,1,.171-.07c.079,0,.125.092.125.183a.192.192,0,0,1-.077.183,2.747,2.747,0,0,1-1.693.71c-1.4,0-1.862-1.236-2.22-4.606-.309-3-.713-3.873-2.189-3.873h-.589v6.278c0,1.238.064,1.4,1.645,1.514.109,0,.156.115.156.229s-.047.228-.156.228a3.238,3.238,0,0,1-.419-.023c-.637-.046-1.348-.092-2.25-.092-.854,0-1.444.024-2.206.092a2.345,2.345,0,0,1-.341.023c-.093,0-.154-.115-.154-.228s.061-.229.154-.229c1.52-.092,1.552-.139,1.552-1.514V48.106c0-1.813-.078-1.858-1.552-1.994a.206.206,0,0,1-.154-.23c0-.113.061-.228.154-.228a3.484,3.484,0,0,1,.373.023,20.131,20.131,0,0,0,2.019.093c.65,0,1.07-.025,1.69-.07.575-.046.823-.046,1.058-.046,2.187,0,3.692,1.513,3.692,4.148a4.148,4.148,0,0,1-3.321,4.307Zm-1.366-.115c1.876,0,2.482-2.086,2.482-4.217,0-2.109-.992-3.8-2.235-3.8-.681,0-.822.3-.822,1.467v6.555Z" transform="translate(5.664 1.93)" fill="#fff"/>
    <path id="Path_131452" data-name="Path 131452" d="M150.216,45.768c.651,0,1.6-.023,2.252-.092.264-.023.342-.023.4-.023.3,0,.342.069.356.5.014.458.046,1.4.046,2.337,0,.55-.014,1.1-.032,1.558-.014.206-.06.274-.122.274s-.125-.045-.139-.229c-.279-2.383-.994-3.873-2.719-3.873h-.169c-.592,0-.62.024-.62.94v13.7c0,1.374.028,1.42,1.551,1.511.094,0,.156.092.156.229,0,.115-.048.23-.156.23-.063,0-.171,0-.5-.024-.6-.046-1.445-.092-2.065-.092s-1.46.046-2.065.092c-.325.024-.434.024-.5.024-.108,0-.154-.116-.154-.23,0-.138.06-.229.154-.229,1.521-.092,1.551-.138,1.551-1.511v-13.7c0-.916-.03-.94-.619-.94h-.171c-1.723,0-2.437,1.49-2.718,3.873-.016.185-.076.229-.139.229s-.109-.068-.124-.274c-.017-.459-.032-1.008-.032-1.558,0-.939.032-1.879.047-2.337.016-.436.061-.5.359-.5a4.329,4.329,0,0,1,.434.023c.651.069,1.568.092,2.219.092Z" transform="translate(6.091 1.93)" fill="#fff"/>
    <path id="Path_131453" data-name="Path 131453" d="M166,46.166a1.538,1.538,0,0,0,.73.3c.249,0,.311-.139.373-.413.03-.115.063-.161.123-.161s.126.046.126.161c0,.047-.018.252-.065.619a22.007,22.007,0,0,0-.122,2.452c0,.641.015,1.375.046,2.222,0,.138-.046.206-.124.206s-.125-.045-.139-.183c-.639-4.078-2.021-5.523-3.712-5.523-2.218,0-3.648,4.377-3.648,8.457,0,4.859,1.662,8.364,3.8,8.364,1.691,0,3.119-1.467,3.772-5.867.015-.115.076-.161.122-.161.065,0,.125.069.125.183,0,.045,0,.205-.015.549-.018.506-.032,1.353-.032,2.064,0,.779.015,1.42.078,2.13.047.506.063.757.063.85,0,.115-.048.182-.108.182s-.094-.023-.124-.138c-.156-.527-.279-.618-.45-.618a2.026,2.026,0,0,0-.856.32,5.971,5.971,0,0,1-2.993.917c-3.339,0-5.807-3.553-5.807-8.181,0-5.938,3.383-9.465,6.147-9.465a5.319,5.319,0,0,1,2.685.733" transform="translate(6.664 1.92)" fill="#fff"/>
    <path id="Path_131454" data-name="Path 131454" d="M173.117,53.7c1.428,0,2.375-.275,2.591-2.246.016-.114.064-.161.109-.161s.109.047.109.185,0,.275-.017.869c-.016.55-.03,1.536-.03,1.949s.015,1.214.03,1.649c.017.367.017.413.017.5,0,.138-.047.205-.109.205-.046,0-.094-.046-.109-.182-.232-2.062-1.133-2.268-2.591-2.268h-.933V60.3c0,1.628.312,1.971,1.087,1.971h.281c1.985,0,2.993-1.306,3.632-4.355.015-.068.045-.114.092-.114s.109.046.109.183c0,.825-.232,3.14-.342,3.9-.125.916-.219.962-.637.962-.387,0-.635,0-1.442-.046-.964-.045-2.314-.069-3.54-.069-.574,0-1.165.024-1.645.047-.544.046-.98.068-1.165.068-.124,0-.171-.115-.171-.229s.047-.228.171-.228c1.383,0,1.538-.068,1.538-2.338V48.655c0-2.36-.093-2.406-1.692-2.543-.11,0-.172-.115-.172-.229s.062-.229.172-.229c.046,0,.325,0,.6.023.854.045,1.878.092,2.282.092H173.1c1.039,0,1.753,0,2.42-.069.5-.046.62-.046.7-.046.3,0,.342.046.358.483.032.664.047,1.328.047,2.2,0,.526-.015,1.053-.032,1.489-.015.206-.047.275-.122.275s-.124-.046-.142-.228c-.263-2.246-.93-3.69-2.561-3.69h-1.226c-.263,0-.358.092-.358.664V53.7Z" transform="translate(7.136 1.93)" fill="#fff"/>
    <path id="Path_131455" data-name="Path 131455" d="M188.111,49.457c0-2.452-.776-3.254-2.453-3.322-.094,0-.154-.116-.154-.23s.06-.252.154-.252c.061,0,.232,0,.59.023.838.07,1.538.092,2.064.092.436,0,.869-.022,1.615-.092a3.822,3.822,0,0,1,.434-.023c.093,0,.141.138.141.252s-.048.23-.141.23c-1.239.09-1.86.87-1.86,3.322V62.588c0,.413-.126.458-.236.458a.291.291,0,0,1-.247-.2l-7.482-14.852V58.968c0,2.727.326,3.3,2.39,3.414.093,0,.141.115.141.229s-.048.23-.141.23c-.046,0-.172,0-.5-.024-.823-.069-1.49-.092-2.1-.092a15.128,15.128,0,0,0-1.707.092,2.62,2.62,0,0,1-.342.024c-.092,0-.154-.116-.154-.23s.063-.229.154-.229c1.258-.115,1.864-.687,1.864-3.414V48.242c0-2.04-.187-2.132-1.864-2.132-.092,0-.154-.115-.154-.229s.093-.229.154-.229h3.261c.358,0,.512.229.7.62l5.868,11.686Z" transform="translate(7.553 1.929)" fill="#fff"/>
    <path id="Path_131456" data-name="Path 131456" d="M197.231,45.768c.652,0,1.6-.023,2.25-.092.265-.023.342-.023.406-.023.294,0,.342.069.356.5.014.458.046,1.4.046,2.337,0,.55-.015,1.1-.032,1.558-.014.206-.06.274-.122.274s-.125-.045-.141-.229c-.277-2.383-.992-3.873-2.717-3.873h-.171c-.59,0-.62.024-.62.94v13.7c0,1.374.03,1.42,1.553,1.511.094,0,.154.092.154.229,0,.115-.046.23-.154.23-.063,0-.171,0-.5-.024-.608-.046-1.445-.092-2.066-.092s-1.459.046-2.065.092c-.326.024-.435.024-.5.024-.108,0-.154-.116-.154-.23,0-.138.061-.229.154-.229,1.523-.092,1.553-.138,1.553-1.511v-13.7c0-.916-.03-.94-.619-.94h-.171c-1.725,0-2.44,1.49-2.718,3.873-.016.185-.076.229-.141.229s-.108-.068-.122-.274c-.017-.459-.032-1.008-.032-1.558,0-.939.032-1.879.046-2.337.016-.436.063-.5.359-.5a4.313,4.313,0,0,1,.433.023c.654.069,1.569.092,2.221.092Z" transform="translate(8.084 1.93)" fill="#fff"/>
    <path id="Path_131457" data-name="Path 131457" d="M205.243,53.7c1.428,0,2.375-.275,2.594-2.246.014-.114.061-.161.107-.161s.109.047.109.185,0,.275-.017.869c-.016.55-.029,1.536-.029,1.949s.014,1.214.029,1.649c.017.367.017.413.017.5,0,.138-.046.205-.109.205-.046,0-.094-.046-.107-.182-.235-2.062-1.135-2.268-2.594-2.268h-.93V60.3c0,1.628.309,1.971,1.084,1.971h.281c1.987,0,2.995-1.306,3.632-4.355.015-.068.045-.114.093-.114s.108.046.108.183c0,.825-.232,3.14-.342,3.9-.122.916-.216.962-.636.962-.388,0-.636,0-1.443-.046-.962-.045-2.313-.069-3.539-.069-.575,0-1.165.024-1.645.047-.545.046-.981.068-1.165.068-.125,0-.169-.115-.169-.229s.044-.228.169-.228c1.382,0,1.536-.068,1.536-2.338V48.655c0-2.36-.093-2.406-1.691-2.543-.109,0-.173-.115-.173-.229s.064-.229.173-.229c.046,0,.325,0,.6.023.855.045,1.878.092,2.283.092h1.753c1.042,0,1.753,0,2.423-.069.5-.046.618-.046.7-.046.294,0,.342.046.356.483.031.664.046,1.328.046,2.2,0,.526-.015,1.053-.028,1.489-.018.206-.049.275-.126.275s-.124-.046-.14-.228c-.265-2.246-.932-3.69-2.562-3.69H204.67c-.264,0-.356.092-.356.664V53.7Z" transform="translate(8.498 1.93)" fill="#fff"/>
    <path id="Path_131458" data-name="Path 131458" d="M215.937,54.292c1.521.3,2.622.894,3.15,4.515.327,2.268.5,3.322,1.1,3.322a.588.588,0,0,0,.279-.067.489.489,0,0,1,.173-.07c.077,0,.123.092.123.183a.191.191,0,0,1-.077.183,2.747,2.747,0,0,1-1.693.71c-1.4,0-1.862-1.236-2.219-4.606-.31-3-.713-3.873-2.188-3.873H214v6.278c0,1.238.064,1.4,1.646,1.514.108,0,.155.115.155.229s-.047.228-.155.228a3.243,3.243,0,0,1-.42-.023c-.635-.046-1.348-.092-2.249-.092-.854,0-1.444.024-2.206.092a2.345,2.345,0,0,1-.341.023c-.093,0-.154-.115-.154-.228s.061-.229.154-.229c1.522-.092,1.553-.139,1.553-1.514V48.106c0-1.813-.079-1.858-1.553-1.994a.206.206,0,0,1-.154-.23c0-.113.061-.228.154-.228a3.485,3.485,0,0,1,.373.023,20.116,20.116,0,0,0,2.019.093c.65,0,1.071-.025,1.69-.07.575-.046.823-.046,1.058-.046,2.189,0,3.692,1.513,3.692,4.148a4.147,4.147,0,0,1-3.321,4.307Zm-1.366-.115c1.876,0,2.482-2.086,2.482-4.217,0-2.109-.991-3.8-2.235-3.8-.683,0-.822.3-.822,1.467v6.555Z" transform="translate(8.916 1.93)" fill="#fff"/>
    <path id="Path_131459" data-name="Path 131459" d="M31.305,9.41a9,9,0,0,1,1.025-.772c1.124-.715,2.261-1.41,3.4-2.108,1.061-.648,2.122-1.3,3.2-1.932.393-.231.831-.383,1.227-.611,1.354-.778,2.7-1.574,4.048-2.361.265-.154.531-.315.807-.448A.894.894,0,0,0,45.46.148a.8.8,0,0,0-.128.042c-1.093.635-2.177,1.279-3.277,1.9-1.233.69-2.488,1.335-3.716,2.035-1.185.674-2.35,1.383-3.517,2.092-.834.507-1.656,1.033-2.484,1.552a3.1,3.1,0,0,0-1.741,2.4,1.161,1.161,0,0,0,.663,1.3c.081.036.272.023.281-.008a2.3,2.3,0,0,0,.151-.714c0-.112-.174-.236-.292-.323-.447-.326-.5-.671-.095-1.01" transform="translate(1.297 0)" fill="#fff"/>
    <path id="Path_131460" data-name="Path 131460" d="M218.841,10.4c-.476.216-.969.439-1.449.673-1.7.817-10.089,4.833-11.768,5.624-.219.1-.435.212-.645.318-.187.095-.38.195-.572.286s-.365.174-.545.257a15.739,15.739,0,0,0-2.213,1.18l-.031.019-.007.035c-.092.375-.173.742-.243,1.091l-.047.23.191-.141a12.306,12.306,0,0,1,2.059-1.147c.118-.055.235-.114.352-.169.345-.167.691-.335,1.036-.5l2.1-1.012c.441-.215,1.139-.55,1.994-.962,3.656-1.757,9.767-4.7,11.576-5.626a1.183,1.183,0,0,0,.509-1.127l-.02-.122L221,9.366c-.088.046-.173.092-.258.133-.179.094-.348.18-.521.265-.459.22-.928.432-1.382.637" transform="translate(8.536 0.389)" fill="#fff"/>
    <path id="Path_131461" data-name="Path 131461" d="M217.514,3.291c.168-.537.371-1.059.591-1.576a14.205,14.205,0,0,0,.654-1.362l0,0c.02-.069.025-.159-.039-.187s-.105.014-.147.05a2.047,2.047,0,0,0-.42.615c-.124.244-.244.486-.363.734a12.732,12.732,0,0,0-1.057,3.054,3.29,3.29,0,0,0,.136,2.1,1.5,1.5,0,0,0,.439.54c.257.195.432.156.666-.083a2.965,2.965,0,0,0,.757-1.835.366.366,0,0,0-.2-.392c-.082.218-.159.439-.243.656-.128.326-.359.38-.617.142a.968.968,0,0,1-.165-.238,2.435,2.435,0,0,1-.088-1.912c.029-.1.059-.2.092-.3" transform="translate(9.185 0)" fill="#fff"/>
    <path id="Path_131462" data-name="Path 131462" d="M201.2,7.5c.095-.3.206-.587.328-.875a7.705,7.705,0,0,0,.362-.755v0c.013-.038.014-.088-.02-.1s-.057.008-.082.029a1.138,1.138,0,0,0-.232.341c-.07.136-.135.269-.2.405a7.21,7.21,0,0,0-.587,1.695A1.866,1.866,0,0,0,200.84,9.4a.835.835,0,0,0,.246.3c.141.109.237.088.367-.047a1.643,1.643,0,0,0,.42-1.016.2.2,0,0,0-.111-.218c-.046.121-.087.244-.132.363-.074.181-.2.211-.344.079a.469.469,0,0,1-.09-.133,1.34,1.34,0,0,1-.049-1.059c.017-.056.032-.11.05-.165" transform="translate(8.51 0.238)" fill="#fff"/>
    <path id="Path_131463" data-name="Path 131463" d="M212.384,19.9c.169-.537.371-1.059.591-1.576a13.955,13.955,0,0,0,.654-1.362l0-.005c.02-.067.025-.157-.039-.186s-.105.014-.147.051a2.048,2.048,0,0,0-.42.615c-.124.244-.247.486-.363.734a12.733,12.733,0,0,0-1.057,3.054,3.291,3.291,0,0,0,.135,2.1,1.5,1.5,0,0,0,.439.54c.258.195.432.156.666-.083a2.965,2.965,0,0,0,.757-1.835.364.364,0,0,0-.2-.392c-.081.218-.157.439-.241.656-.128.326-.359.38-.617.142a.968.968,0,0,1-.165-.238,2.435,2.435,0,0,1-.088-1.912c.029-.1.059-.2.092-.3" transform="translate(8.968 0.704)" fill="#fff"/>
    <path id="Path_131464" data-name="Path 131464" d="M187.921,33.422a2.045,2.045,0,0,0-.42.617c-.124.242-.247.487-.364.731a12.872,12.872,0,0,0-1.057,3.056,3.291,3.291,0,0,0,.138,2.1,1.513,1.513,0,0,0,.44.541c.255.194.429.154.663-.085a2.967,2.967,0,0,0,.758-1.835.366.366,0,0,0-.2-.391c-.081.218-.157.438-.242.656-.128.323-.359.379-.617.142a1.026,1.026,0,0,1-.165-.239,2.438,2.438,0,0,1-.086-1.911c.03-.1.059-.2.092-.3.168-.536.371-1.059.591-1.578a14.173,14.173,0,0,0,.654-1.359v-.009c.02-.064.026-.154-.038-.181s-.105.013-.147.049" transform="translate(7.886 1.409)" fill="#fff"/>
    <path id="Path_131465" data-name="Path 131465" d="M168.968,33.422a2.028,2.028,0,0,0-.421.617c-.123.242-.247.487-.364.731a12.779,12.779,0,0,0-1.057,3.056,3.284,3.284,0,0,0,.139,2.1,1.521,1.521,0,0,0,.439.541c.255.194.431.154.664-.085a2.971,2.971,0,0,0,.757-1.835.367.367,0,0,0-.2-.391c-.081.218-.157.438-.243.656-.128.323-.359.379-.617.142a1.057,1.057,0,0,1-.165-.239,2.433,2.433,0,0,1-.085-1.911c.029-.1.058-.2.091-.3.168-.536.372-1.059.592-1.578a14.4,14.4,0,0,0,.653-1.359v-.009c.021-.064.025-.154-.038-.181s-.105.013-.146.049" transform="translate(7.082 1.409)" fill="#fff"/>
    <path id="Path_131466" data-name="Path 131466" d="M90.721,33.422a2.044,2.044,0,0,0-.42.617c-.124.242-.247.487-.364.731a12.78,12.78,0,0,0-1.057,3.056,3.291,3.291,0,0,0,.138,2.1,1.513,1.513,0,0,0,.44.541c.255.194.429.154.663-.085a2.966,2.966,0,0,0,.758-1.835.366.366,0,0,0-.2-.391c-.08.218-.157.438-.242.656-.128.323-.359.379-.617.142a1.024,1.024,0,0,1-.165-.239,2.447,2.447,0,0,1-.089-1.911c.032-.1.061-.2.094-.3.168-.536.371-1.059.591-1.578a13.659,13.659,0,0,0,.652-1.359l0-.009c.02-.064.025-.154-.038-.181s-.105.013-.147.049" transform="translate(3.764 1.409)" fill="#fff"/>
    <path id="Path_131467" data-name="Path 131467" d="M146.7,18.781c.171-.537.371-1.059.591-1.576a13.959,13.959,0,0,0,.654-1.362l0-.005c.02-.067.025-.158-.038-.185s-.106.013-.148.05a2.048,2.048,0,0,0-.42.615c-.124.244-.244.486-.363.734a12.7,12.7,0,0,0-1.057,3.054,3.291,3.291,0,0,0,.136,2.1,1.51,1.51,0,0,0,.439.541c.257.194.432.155.666-.084a2.963,2.963,0,0,0,.757-1.835.366.366,0,0,0-.2-.392c-.083.218-.159.439-.243.656-.128.326-.359.38-.617.142a.968.968,0,0,1-.165-.238,2.435,2.435,0,0,1-.088-1.912c.029-.1.059-.2.092-.3" transform="translate(6.183 0.657)" fill="#fff"/>
    <path id="Path_131468" data-name="Path 131468" d="M107.159,17.913c.169-.537.371-1.059.591-1.576a13.957,13.957,0,0,0,.654-1.362l0-.005c.02-.067.025-.158-.039-.185s-.105.013-.147.05a2.035,2.035,0,0,0-.42.615c-.124.244-.247.486-.363.734a12.7,12.7,0,0,0-1.057,3.054,3.291,3.291,0,0,0,.136,2.1,1.515,1.515,0,0,0,.439.54c.257.195.432.156.666-.083a2.965,2.965,0,0,0,.757-1.835.366.366,0,0,0-.2-.392c-.082.218-.159.439-.243.656-.128.326-.359.38-.617.142a.968.968,0,0,1-.165-.238,2.435,2.435,0,0,1-.088-1.912c.029-.1.059-.2.092-.3" transform="translate(4.506 0.62)" fill="#fff"/>
    <path id="Path_131469" data-name="Path 131469" d="M60.11,33.559a1.94,1.94,0,0,0-.4.593c-.121.232-.238.467-.348.7A12.16,12.16,0,0,0,58.338,37.8a3.176,3.176,0,0,0,.13,2.018,1.478,1.478,0,0,0,.423.518c.246.19.416.15.64-.081a2.853,2.853,0,0,0,.729-1.765.354.354,0,0,0-.193-.378c-.077.212-.151.423-.233.631-.121.313-.345.366-.592.137a.877.877,0,0,1-.158-.228A2.349,2.349,0,0,1,59,36.808c.029-.1.057-.192.089-.288.162-.514.358-1.017.568-1.517a13.149,13.149,0,0,0,.631-1.31v0c.02-.067.024-.151-.035-.179s-.1.015-.141.049" transform="translate(2.469 1.414)" fill="#fff"/>
    <path id="Path_131470" data-name="Path 131470" d="M61.451,19.232a3.268,3.268,0,0,0,.831-2.012.4.4,0,0,0-.218-.429c-.091.239-.173.481-.268.72-.139.355-.392.416-.675.152a.933.933,0,0,1-.18-.26,2.675,2.675,0,0,1-.1-2.1c.033-.108.068-.218.1-.327.187-.587.407-1.16.646-1.727a15.324,15.324,0,0,0,.718-1.493v-.006c.023-.073.029-.172-.042-.2-.054-.023-.116.017-.162.057a2.19,2.19,0,0,0-.459.675c-.137.266-.27.532-.4.8a13.963,13.963,0,0,0-1.159,3.35,3.611,3.611,0,0,0,.148,2.3,1.71,1.71,0,0,0,.483.593c.281.214.473.169.729-.094" transform="translate(2.543 0.483)" fill="#fff"/>
    <path id="Path_131471" data-name="Path 131471" d="M59.781,3.344c.171-.541.374-1.073.6-1.6A14.063,14.063,0,0,0,61.042.37V.364c.02-.066.026-.158-.038-.186s-.107.014-.149.05a2.049,2.049,0,0,0-.425.624c-.125.245-.249.492-.367.739a12.91,12.91,0,0,0-1.071,3.094,3.336,3.336,0,0,0,.139,2.121,1.577,1.577,0,0,0,.443.547c.26.195.436.157.673-.087a3.008,3.008,0,0,0,.765-1.858.367.367,0,0,0-.2-.4c-.082.221-.162.443-.247.662-.126.33-.361.385-.621.145a.849.849,0,0,1-.168-.243,2.46,2.46,0,0,1-.088-1.933c.029-.1.062-.2.092-.3" transform="translate(2.497 0.001)" fill="#fff"/>
    <path id="Path_131472" data-name="Path 131472" d="M83.535,31.945a2.431,2.431,0,0,0-.5.735c-.147.289-.295.582-.434.875a15.342,15.342,0,0,0-1.263,3.652,3.939,3.939,0,0,0,.165,2.5,1.822,1.822,0,0,0,.524.644c.305.231.513.185.794-.1a3.538,3.538,0,0,0,.9-2.19.436.436,0,0,0-.237-.468c-.1.261-.19.522-.289.783-.154.389-.431.453-.736.169a1.08,1.08,0,0,1-.2-.286,2.9,2.9,0,0,1-.1-2.283c.034-.12.073-.238.109-.353.2-.641.441-1.264.7-1.886a16.475,16.475,0,0,0,.782-1.624l0-.009c.023-.078.03-.186-.046-.219-.058-.027-.125.017-.174.06" transform="translate(3.443 1.345)" fill="#fff"/>
    <path id="Path_131473" data-name="Path 131473" d="M36.6,31.483a2.529,2.529,0,0,0-.53.778c-.157.305-.311.613-.457.921a16.161,16.161,0,0,0-1.335,3.854,4.154,4.154,0,0,0,.173,2.641,1.936,1.936,0,0,0,.552.682c.324.244.543.194.838-.108a3.733,3.733,0,0,0,.956-2.313.466.466,0,0,0-.251-.5c-.1.277-.2.556-.306.827-.159.411-.451.481-.777.179a1.188,1.188,0,0,1-.207-.3,3.075,3.075,0,0,1-.11-2.412c.036-.124.077-.248.116-.372.215-.677.468-1.336.744-1.99a16.692,16.692,0,0,0,.823-1.715l0-.01c.023-.08.03-.2-.049-.23-.063-.03-.134.017-.185.064" transform="translate(1.448 1.326)" fill="#fff"/>
    <path id="Path_131474" data-name="Path 131474" d="M34.041,23.1c.342.22.558.151.827-.172a3.736,3.736,0,0,0,.763-2.381.462.462,0,0,0-.289-.472c-.08.281-.155.567-.24.846-.126.422-.41.513-.759.24a1.2,1.2,0,0,1-.231-.284,3.069,3.069,0,0,1-.3-2.391c.027-.128.054-.253.083-.383.161-.69.358-1.369.583-2.039a17.562,17.562,0,0,0,.683-1.776v-.007c.018-.087.016-.2-.067-.228-.065-.023-.131.027-.179.078a2.549,2.549,0,0,0-.464.816c-.131.317-.26.635-.38.956a16.067,16.067,0,0,0-1.019,3.943,4.166,4.166,0,0,0,.387,2.62,1.927,1.927,0,0,0,.607.634" transform="translate(1.399 0.589)" fill="#fff"/>
    <path id="Path_131475" data-name="Path 131475" d="M147.336,31.1a2.674,2.674,0,0,0-.559.822c-.167.323-.33.646-.485.975a17.064,17.064,0,0,0-1.411,4.074,4.4,4.4,0,0,0,.182,2.8,2.019,2.019,0,0,0,.586.718c.343.26.573.208.886-.113a3.964,3.964,0,0,0,1.011-2.444.491.491,0,0,0-.267-.523c-.108.29-.212.583-.324.872-.169.433-.476.508-.82.188a1.266,1.266,0,0,1-.222-.316A3.254,3.254,0,0,1,145.8,35.6c.042-.134.08-.266.124-.4a22.385,22.385,0,0,1,.787-2.1,17.993,17.993,0,0,0,.87-1.815l0-.005c.027-.093.035-.214-.05-.249-.066-.029-.141.019-.2.068" transform="translate(6.137 1.309)" fill="#fff"/>
    <path id="Path_131476" data-name="Path 131476" d="M124.388,29.553a3.071,3.071,0,0,0-.638.936c-.19.368-.374.74-.554,1.112a19.465,19.465,0,0,0-1.606,4.647,5.008,5.008,0,0,0,.207,3.186,2.323,2.323,0,0,0,.667.819c.391.3.656.238,1.011-.128a4.522,4.522,0,0,0,1.152-2.788.56.56,0,0,0-.3-.6c-.124.333-.24.666-.37,1-.194.5-.544.579-.937.217a1.438,1.438,0,0,1-.249-.363,3.7,3.7,0,0,1-.132-2.906c.045-.151.091-.3.14-.451.256-.816.56-1.611.9-2.4a20.808,20.808,0,0,0,.994-2.068l0-.009c.028-.1.038-.238-.058-.28-.076-.033-.161.022-.223.077" transform="translate(5.149 1.243)" fill="#fff"/>
    <path id="Path_131477" data-name="Path 131477" d="M128.755,7.267c.382-1.21.835-2.393,1.334-3.561A31.332,31.332,0,0,0,131.565.634l0-.016c.046-.149.059-.353-.084-.416-.113-.051-.241.03-.331.116a4.54,4.54,0,0,0-.949,1.39c-.282.547-.557,1.1-.819,1.653a28.744,28.744,0,0,0-2.387,6.9,7.435,7.435,0,0,0,.306,4.731,3.466,3.466,0,0,0,.991,1.221c.579.439.975.349,1.5-.192a6.7,6.7,0,0,0,1.71-4.144.822.822,0,0,0-.449-.885c-.181.493-.355.989-.547,1.481-.289.732-.811.857-1.391.319a2.111,2.111,0,0,1-.374-.539,5.509,5.509,0,0,1-.2-4.317c.068-.222.136-.446.206-.67" transform="translate(5.375 0.002)" fill="#fff"/>
    <path id="Path_131478" data-name="Path 131478" d="M204.46,32.338c-.362.423-.743.823-1.145,1.21a13.823,13.823,0,0,0-1.117.989l0,0c-.044.054-.084.137-.039.185a.155.155,0,0,0,.153.009,2.014,2.014,0,0,0,.62-.4c.205-.172.41-.348.609-.525a12.6,12.6,0,0,0,2.14-2.378,3.273,3.273,0,0,0,.683-1.957,1.494,1.494,0,0,0-.193-.657c-.156-.272-.331-.3-.635-.174a2.929,2.929,0,0,0-1.393,1.382.352.352,0,0,0,.029.431c.156-.169.311-.339.471-.5.243-.247.472-.211.616.1a.967.967,0,0,1,.058.279,2.423,2.423,0,0,1-.658,1.771c-.065.079-.131.156-.2.233" transform="translate(8.571 1.205)" fill="#fff"/>
    <path id="Path_131479" data-name="Path 131479" d="M181.06,11.675c-.207.4-.436.778-.681,1.151a10.9,10.9,0,0,0-.7.973l-.005.006c-.022.049-.041.12.005.148s.085,0,.122-.02a1.538,1.538,0,0,0,.414-.423c.131-.171.26-.346.387-.521a10.27,10.27,0,0,0,1.249-2.242,2.633,2.633,0,0,0,.186-1.656,1.193,1.193,0,0,0-.269-.481c-.173-.188-.315-.18-.53-.025a2.37,2.37,0,0,0-.846,1.33.289.289,0,0,0,.1.333c.094-.161.186-.321.28-.478.145-.237.334-.249.5-.026a.667.667,0,0,1,.1.208,1.922,1.922,0,0,1-.2,1.505c-.035.074-.075.145-.112.219" transform="translate(7.618 0.353)" fill="#fff"/>
    <path id="Path_131480" data-name="Path 131480" d="M158.113,8.157c1-.387,2.086-.569,3.093-.947,3.453-1.287,6.887-2.622,10.333-3.933.679-.26,1.358-.526,2.056-.731A2.118,2.118,0,0,0,175.057.327a1.857,1.857,0,0,0-.323.048c-2.784,1.052-5.554,2.138-8.354,3.148-2.527.912-5.079,1.752-7.613,2.642.13-.171.257-.341.38-.514a12.107,12.107,0,0,0,1.5-2.694,3.15,3.15,0,0,0,.223-1.987,1.468,1.468,0,0,0-.322-.58c-.207-.223-.379-.215-.639-.028a2.842,2.842,0,0,0-1.015,1.6.348.348,0,0,0,.122.4c.112-.19.222-.385.338-.572.173-.286.4-.3.6-.033a.884.884,0,0,1,.116.25,2.329,2.329,0,0,1-.238,1.808c-.045.088-.091.175-.137.263-.248.475-.523.932-.817,1.381-.208.321-.477.6-.688.915-.417.149-.834.3-1.251.453-3.018,1.112-6,2.315-8.992,3.51-2.138.858-4.255,1.767-6.381,2.655-2.33.97-4.321,2.247-4.99,4.913a2.727,2.727,0,0,0,1.034,3.27c.172.116.618.156.654.088a5.406,5.406,0,0,0,.63-1.6c.04-.254-.311-.614-.551-.861-.91-.929-.883-1.75.177-2.384a21.914,21.914,0,0,1,2.685-1.405c2.894-1.227,5.806-2.408,8.721-3.588,2.72-1.1,5.441-2.21,8.183-3.263" transform="translate(5.785 0.003)" fill="#fff"/>
    <path id="Path_131481" data-name="Path 131481" d="M90.1,11.644c-.361.423-.743.822-1.145,1.209a13.836,13.836,0,0,0-1.117.99l0,0c-.043.053-.084.136-.038.183a.15.15,0,0,0,.153.009,2.03,2.03,0,0,0,.62-.4q.308-.26.612-.526a12.715,12.715,0,0,0,2.137-2.377A3.273,3.273,0,0,0,92,8.778a1.519,1.519,0,0,0-.191-.657c-.158-.272-.334-.3-.637-.174a2.954,2.954,0,0,0-1.4,1.382.358.358,0,0,0,.032.431c.156-.168.311-.339.473-.5.241-.247.47-.211.614.1a.953.953,0,0,1,.058.278A2.428,2.428,0,0,1,90.3,11.41c-.067.079-.131.157-.2.235" transform="translate(3.722 0.328)" fill="#fff"/>
    <path id="Path_131482" data-name="Path 131482" d="M77.8,35.5a2.433,2.433,0,0,0-1.146,1.134.3.3,0,0,0,.023.356c.129-.139.256-.28.39-.414.2-.2.388-.174.506.085a.718.718,0,0,1,.047.228,1.985,1.985,0,0,1-.539,1.455c-.053.067-.108.129-.164.193-.3.348-.612.677-.939,1a11.4,11.4,0,0,0-.921.812l0,.006c-.034.043-.066.109-.029.15a.122.122,0,0,0,.125.006,1.659,1.659,0,0,0,.509-.328c.171-.143.34-.288.5-.435A10.564,10.564,0,0,0,77.923,37.8a2.68,2.68,0,0,0,.562-1.611,1.207,1.207,0,0,0-.156-.54c-.131-.223-.272-.249-.524-.142" transform="translate(3.181 1.497)" fill="#fff"/>
    <path id="Path_131483" data-name="Path 131483" d="M29.773,34.024c-.219-.2-.384-.183-.62.016a2.75,2.75,0,0,0-.874,1.621.335.335,0,0,0,.145.378c.1-.192.19-.389.288-.581.148-.288.366-.317.58-.072a.749.749,0,0,1,.13.235,2.256,2.256,0,0,1-.1,1.769c-.036.089-.075.178-.112.266-.207.478-.443.941-.7,1.4a12.4,12.4,0,0,0-.732,1.194l0,.006c-.025.06-.039.141.017.172s.1,0,.141-.033a1.89,1.89,0,0,0,.446-.527c.138-.211.272-.423.4-.64a11.891,11.891,0,0,0,1.268-2.716,3.055,3.055,0,0,0,.074-1.945,1.428,1.428,0,0,0-.352-.539" transform="translate(1.177 1.43)" fill="#fff"/>
    <path id="Path_131484" data-name="Path 131484" d="M35.474,3.469c.719-.445,3.171-1.933,3.668-2.243a1.187,1.187,0,0,0,.376-.282A6.9,6.9,0,0,0,39.9.19c.039-.084,0-.145-.1-.182a11.956,11.956,0,0,1-1.544.977c-.314.187-.623.374-.934.565-.279.172-.555.353-.837.52-.355.21-.717.409-1.078.614-.38.218-.762.437-1.141.66-.178.1-.348.222-.523.328-.448.269-.9.535-1.347.806-.159.1-1.132.694-1.436.933-.054.04-.115.077-.17.117-.313.214-.626.426-.939.644a.244.244,0,0,0-.1.1,7.433,7.433,0,0,0-.154.882c0,.019.04.161.067.133a2.713,2.713,0,0,1,.242-.224c.185-.134,1-.731,1.226-.88.711-.465,1.424-.926,2.157-1.356s1.448-.909,2.177-1.359" transform="translate(1.255 -0.006)" fill="#fff"/>
    <path id="Path_131485" data-name="Path 131485" d="M83.205,29.95c.081-.138.026-.246-.138-.325a20.722,20.722,0,0,1-2.775,1.466q-.835.417-1.668.841c-.5.257-1,.53-1.5.778-.637.312-1.283.6-1.924.907-.681.324-1.363.646-2.043.979-.318.154-.623.335-.94.492-.8.4-1.609.794-2.411,1.2-.282.144-2.03,1.033-2.583,1.4-.1.067-.2.121-.3.178-.564.325-1.13.648-1.693.977a.424.424,0,0,0-.179.161A12.822,12.822,0,0,0,64.66,40.5c0,.03.047.276.1.236a4.368,4.368,0,0,1,.44-.349c.334-.207,1.8-1.121,2.216-1.347,1.278-.7,2.56-1.392,3.87-2.029s2.6-1.363,3.9-2.039,5.683-2.882,6.575-3.347a2.043,2.043,0,0,0,.681-.436,10.925,10.925,0,0,0,.758-1.234" transform="translate(2.742 1.25)" fill="#fff"/>
    <path id="Path_131486" data-name="Path 131486" d="M98.222,1.072a7.281,7.281,0,0,0,.517-.844c.056-.095.019-.168-.094-.222a14.056,14.056,0,0,1-1.9,1q-.571.283-1.142.574c-.342.177-.68.364-1.028.533-.435.214-.877.412-1.314.62q-.7.331-1.4.668c-.216.106-.426.229-.642.338-.549.274-1.1.545-1.649.82-.2.1-1.388.708-1.768.96-.065.046-.139.082-.207.123-.386.222-.772.443-1.157.667a.281.281,0,0,0-.124.11,8.7,8.7,0,0,0-.262,1.017c0,.022.031.191.068.163a3.073,3.073,0,0,1,.3-.24c.229-.142,1.235-.765,1.518-.921.876-.475,1.751-.95,2.647-1.386s1.779-.933,2.671-1.395,3.89-1.972,4.5-2.29a1.4,1.4,0,0,0,.466-.3" transform="translate(3.649 -0.006)" fill="#fff"/>
    <path id="Path_131487" data-name="Path 131487" d="M170.9,22.237a5.222,5.222,0,0,0-.215.6.824.824,0,0,0,.236.945c.1.081.193.166.3.241.145.1.309.187.441.3s.281.188.45.053a2.622,2.622,0,0,1,.6.6,5.955,5.955,0,0,1,.814,1.49c.131.367.24.741.352,1.112.03.094.059.183.168.2.127.026.19-.071.229-.164a2.259,2.259,0,0,0,.165-.478c.08-.413.144-.833.207-1.251.074-.475.14-.954.21-1.431.059-.411.107-.826.183-1.23.068-.354.316-.449.628-.262a1.519,1.519,0,0,1,.62.726.882.882,0,0,1,.036.221c.016.063.023.171.048.175a.318.318,0,0,0,.234-.033.906.906,0,0,0,.2-.286,1.073,1.073,0,0,0-.055-1.331,1.951,1.951,0,0,0-.843-.756.572.572,0,0,0-.683.122,1.26,1.26,0,0,0-.276.389,7.544,7.544,0,0,0-.549,2.26c-.042.346-.1.688-.147,1.03a1.045,1.045,0,0,1-.075.176A7.122,7.122,0,0,0,171.061,22a1.406,1.406,0,0,0-.161.232" transform="translate(7.235 0.91)" fill="#fff"/>
    <path id="Path_131488" data-name="Path 131488" d="M66.937,24.57c.145.124.278.19.447.054a2.572,2.572,0,0,1,.606.6,5.957,5.957,0,0,1,.812,1.492c.132.364.241.739.354,1.111.029.093.056.183.165.2.127.024.191-.072.229-.163a2.148,2.148,0,0,0,.165-.478c.081-.415.145-.835.208-1.253.074-.476.142-.954.211-1.432.06-.41.108-.822.184-1.229.064-.354.315-.449.628-.261a1.544,1.544,0,0,1,.62.724,1.019,1.019,0,0,1,.036.222c.013.063.021.171.047.174a.312.312,0,0,0,.232-.033.924.924,0,0,0,.2-.285,1.077,1.077,0,0,0-.055-1.332,1.979,1.979,0,0,0-.843-.755.571.571,0,0,0-.686.123,1.363,1.363,0,0,0-.276.388,7.538,7.538,0,0,0-.55,2.26c-.041.344-.093.689-.146,1.031a.964.964,0,0,1-.075.174,7.125,7.125,0,0,0-3.116-3.653,1.323,1.323,0,0,0-.158.233,5.759,5.759,0,0,0-.219.6.825.825,0,0,0,.239.944c.1.081.194.168.3.242.145.1.31.186.443.3" transform="translate(2.795 0.921)" fill="#fff"/>
    <path id="Path_131489" data-name="Path 131489" d="M120.071,5.42c.108-.718.184-1.445.285-2.163a3.3,3.3,0,0,1,.24-1.077c.205-.413.525-.493.865-.2a2.7,2.7,0,0,1,.67.97c.043.1.046.25.169.233A.391.391,0,0,0,122.563,3a7.931,7.931,0,0,0,.352-.866.6.6,0,0,0-.079-.557c-.114-.167-.191-.36-.3-.534a1.861,1.861,0,0,0-.8-.754.716.716,0,0,0-.819.109,1.5,1.5,0,0,0-.432.546,12.843,12.843,0,0,0-.621,1.94c-.188.955-.273,1.932-.407,2.9a1.6,1.6,0,0,1-.08.265c-.05-.079-.074-.113-.094-.147-.23-.46-.451-.929-.693-1.382a8.429,8.429,0,0,0-2.805-3.054,1.866,1.866,0,0,0-.334-.171.194.194,0,0,0-.294.141c-.1.351-.208.7-.3,1.059a.454.454,0,0,0,.015.255,3.391,3.391,0,0,0,.292.678,3.7,3.7,0,0,0,1.21,1.095,1.019,1.019,0,0,0,.185-.162c.109-.138.207-.121.313,0,.034.041.07.079.107.121A8.122,8.122,0,0,1,118.4,6.759c.192.444.338.909.488,1.371a.487.487,0,0,1-.011.366,7.043,7.043,0,0,0-.7,1.522.475.475,0,0,0-.043.252.3.3,0,0,0,.129.2.264.264,0,0,0,.216-.053,3.082,3.082,0,0,0,.224-.227.882.882,0,0,1,1.455.233c-.112.022-.207.048-.3.06a2.516,2.516,0,0,0-2.264,1.24,4.34,4.34,0,0,0-.354,2.423,14.694,14.694,0,0,0,1.031,3.379,22.925,22.925,0,0,1,1.65,7.423c0,.157.025.314.189.376.114.043.21-.058.281-.287a9.633,9.633,0,0,0-.353-5.361c-.49-1.813-1.169-3.56-1.747-5.343a5.429,5.429,0,0,1-.327-1.491.427.427,0,0,1,.367-.528,5.284,5.284,0,0,1,2.922-.339.329.329,0,0,0,.44-.2,6.57,6.57,0,0,0,.276-.654.744.744,0,0,0-.064-.742c-.1-.138-.169-.3-.272-.438-.291-.383-.581-.769-.9-1.127a1.279,1.279,0,0,0-1.07-.516.48.48,0,0,1-.132-.031c.063-.254.132-.49.175-.734.128-.7.258-1.408.364-2.116" transform="translate(4.87 0.002)" fill="#fff"/>
    <path id="Path_131490" data-name="Path 131490" d="M150.575,3.327c-.361.218-.725.429-1.1.629-.446.243-.9.465-1.347.7a5.931,5.931,0,0,0-.649.37.273.273,0,0,0-.053.265c.04.056.177.071.272.068a1.641,1.641,0,0,0,.276-.085c.442-.11.89-.206,1.328-.33.344-.1.679-.232,1.016-.355a3.3,3.3,0,0,0,1.651-1.195A21.461,21.461,0,0,0,153.642.63c.064-.133.069-.225-.045-.321a2.133,2.133,0,0,1-.349.079c-.3.014-.6.017-.9.011A25.569,25.569,0,0,0,149.06.374a1.4,1.4,0,0,0-.811.347,2.317,2.317,0,0,0-.392.458c-.4.663-.785,1.336-1.174,2-.089.151-.036.275.112.378.126-.157.25-.3.365-.456a1.156,1.156,0,0,1,.758-.5c.467-.057.94-.085,1.41-.1.546-.017,1.094,0,1.64,0h.693c-.233.183-.429.336-.626.486a5.247,5.247,0,0,1-.46.333" transform="translate(6.218 0.007)" fill="#fff"/>
    <path id="Path_131491" data-name="Path 131491" d="M140.669,31.594a2.412,2.412,0,0,0-.93,1.064c-.039.09-.088.174-.133.262-.007-.017-.018-.033-.025-.05-.1.009-.235-.02-.278.03a2.311,2.311,0,0,0-.336.5,5.239,5.239,0,0,1-1.749,2.1c-.672.45-1.345.9-2.026,1.342-.553.355-1.111.707-1.689,1.023-.655.355-1.332.669-2,1-.529.265-1.051.539-1.583.788-.437.2-.889.377-1.331.572a1.99,1.99,0,0,0-.3.2c.007.027.017.056.024.083a2.2,2.2,0,0,0,.527.021,8.645,8.645,0,0,1,1.011-.246,7.576,7.576,0,0,0,1.021-.314,7.18,7.18,0,0,0,.846-.26,9,9,0,0,0,1.2-.387c.518-.247,1-.565,1.5-.855.459-.268.914-.536,1.367-.813.166-.1.314-.226.469-.343a18.05,18.05,0,0,0,1.474-1.116,4.237,4.237,0,0,0,1.035-1.455,3.169,3.169,0,0,1,.26-.413c.118.081.189.134.26.183a6.448,6.448,0,0,0,1.99.836.339.339,0,0,0,.269-.117,1.7,1.7,0,0,0,.273-.446,3.618,3.618,0,0,0,.353-.957,2.734,2.734,0,0,0-.673-2.118.636.636,0,0,0-.82-.115m-.539,1.754a.208.208,0,0,1-.02-.19.813.813,0,0,1,.247-.2c.187-.106.322,0,.435.132a.941.941,0,0,1,.219.656c-.323-.144-.607-.262-.881-.4" transform="translate(5.44 1.329)" fill="#fff"/>
    <path id="Path_131492" data-name="Path 131492" d="M218.184,32.72a1.863,1.863,0,0,0-.63.892c-.023.071-.054.143-.081.212a.337.337,0,0,1-.025-.038c-.071.014-.179,0-.212.047a1.733,1.733,0,0,0-.217.413A4.066,4.066,0,0,1,215.841,36c-.482.4-.962.8-1.452,1.19-.4.316-.8.631-1.214.918-.476.325-.973.619-1.46.928-.387.244-.765.5-1.156.73-.319.192-.654.36-.978.544a1.468,1.468,0,0,0-.214.177l.026.063a1.808,1.808,0,0,0,.408-.026,6.311,6.311,0,0,1,.758-.268,6.146,6.146,0,0,0,.758-.321,5.731,5.731,0,0,0,.629-.266,6.921,6.921,0,0,0,.892-.392c.378-.231.725-.514,1.084-.778.33-.24.66-.482.985-.731a4.372,4.372,0,0,0,.335-.3,14.016,14.016,0,0,0,1.043-.973,3.3,3.3,0,0,0,.681-1.2,2.835,2.835,0,0,1,.167-.34c.1.055.156.09.214.121a5.011,5.011,0,0,0,1.6.488.266.266,0,0,0,.2-.11,1.442,1.442,0,0,0,.174-.364,2.833,2.833,0,0,0,.194-.763,2.123,2.123,0,0,0-.685-1.579.5.5,0,0,0-.641-.023m-.274,1.392c-.026-.009-.049-.11-.029-.142a.574.574,0,0,1,.173-.174c.134-.1.247-.028.343.067a.728.728,0,0,1,.223.487c-.261-.087-.488-.154-.71-.238" transform="translate(8.877 1.377)" fill="#fff"/>
    <path id="Path_131493" data-name="Path 131493" d="M182.648,1.4a1.535,1.535,0,0,1,.62.726,1.019,1.019,0,0,1,.036.222c.013.063.023.171.046.174a.309.309,0,0,0,.233-.033.9.9,0,0,0,.2-.285,1.07,1.07,0,0,0-.054-1.33,1.945,1.945,0,0,0-.843-.757.569.569,0,0,0-.683.122,1.323,1.323,0,0,0-.279.39,7.534,7.534,0,0,0-.547,2.26c-.043.346-.1.688-.149,1.03a.961.961,0,0,1-.075.174A7.119,7.119,0,0,0,178.038.443a1.244,1.244,0,0,0-.159.233,6.16,6.16,0,0,0-.218.6.831.831,0,0,0,.239.945c.1.081.194.168.3.242.145.1.311.186.443.3a.675.675,0,0,0,.136.1A7.073,7.073,0,0,1,177.246,3.9c-.682.4-1.4.733-2.082,1.128a6.167,6.167,0,0,0-2.75,2.842c-.075.167-.331.678-.243.849s.123-.006.2-.178c1.274-2.874,5.565-2.747,6.728-5.674l.014-.03a2.617,2.617,0,0,1,.579.576A5.862,5.862,0,0,1,180.5,4.9c.133.365.241.739.354,1.11.028.094.059.185.165.205.13.025.191-.072.229-.163a2.1,2.1,0,0,0,.165-.478c.081-.414.145-.834.21-1.253.073-.474.141-.953.208-1.431.062-.411.108-.823.186-1.231.064-.353.316-.449.628-.261" transform="translate(7.3 -0.004)" fill="#fff"/>
    <path id="Path_131494" data-name="Path 131494" d="M135.019,12.715c.521-1.439,2.482-2.012,3.556-2.939A4.461,4.461,0,0,0,139.869,7.8a.484.484,0,0,0,.085-.139,3.059,3.059,0,0,0,.206-.6c.1-.517.178-1.039.26-1.56.09-.6.174-1.191.261-1.786.074-.511.133-1.027.229-1.535.082-.44.394-.56.784-.325a1.919,1.919,0,0,1,.772.906,1.37,1.37,0,0,1,.047.274c.015.077.025.214.057.22a.4.4,0,0,0,.29-.042,1.176,1.176,0,0,0,.252-.357,1.337,1.337,0,0,0-.069-1.658,2.443,2.443,0,0,0-1.052-.944.712.712,0,0,0-.853.154,1.635,1.635,0,0,0-.345.484,9.385,9.385,0,0,0-.685,2.82c-.053.429-.12.857-.184,1.284a1.377,1.377,0,0,1-.092.218A8.9,8.9,0,0,0,135.946.662a1.9,1.9,0,0,0-.2.291,7.289,7.289,0,0,0-.269.744,1.03,1.03,0,0,0,.3,1.178c.123.1.241.207.37.3.18.13.385.233.551.377s.349.237.559.068a3.128,3.128,0,0,1,.752.744,7.207,7.207,0,0,1,1.014,1.861c.165.456.3.92.444,1.383.03.105.065.206.167.245A3.943,3.943,0,0,1,138.5,8.9c-.518.374-1.082.678-1.612,1.032a4.734,4.734,0,0,0-1.94,2.4c-.05.134-.288.645-.183.776.078.1.242-.352.255-.392" transform="translate(5.713 0.001)" fill="#fff"/>
    <path id="Path_131495" data-name="Path 131495" d="M99.364,39.12a4.383,4.383,0,0,1-.8-.049.611.611,0,0,1-.341-.129c-.175-.175-.083-.472.041-.689.628-1.091,1.764-1.846,2.315-2.976a1.647,1.647,0,0,0,.2-.849.818.818,0,0,0-.473-.692,1.092,1.092,0,0,0-.434-.052,2.5,2.5,0,0,0-2.4,2.354c.291-.027.467-.314.664-.528a1.767,1.767,0,0,1,1.477-.554.381.381,0,0,1,.3.15c.091.157-.052.343-.181.471a7.662,7.662,0,0,0-2.3,3.536,1.187,1.187,0,0,0,0,.7,1.151,1.151,0,0,0,.941.6,4.114,4.114,0,0,0,2.009-.215,5.813,5.813,0,0,0,3.779-4.448,1.522,1.522,0,0,0-.418.62,5.11,5.11,0,0,1-4.376,2.751" transform="translate(4.129 1.422)" fill="#fff"/>
    <path id="Path_131496" data-name="Path 131496" d="M101.576,2.486c-.007,0-.456.885-.268,1,.386.222.33,1,.331,1.365a1.115,1.115,0,0,0,.314.989c.781.56,1.3-.686,1.447-1.179a1.6,1.6,0,0,0,.2.352c.3.385,1.01.717,1.357.21.824-1.2-.314-2.322-.6-3.446-.024-.094-.188.305-.193.325a1.305,1.305,0,0,0-.108.626,6.674,6.674,0,0,0,.6,1.309c.049.1.089.276.139.421a.5.5,0,0,1-.223.017c-1.2-.216-.985-1.86-1.446-2.625-.055-.092-.183.3-.193.325-.044.131-.191.486-.108.623a6.8,6.8,0,0,1,.475,1.6.778.778,0,0,1-.885.542c-.444-.109-.461-.585-.464-.929,0-.414.062-1.265-.374-1.52" transform="translate(4.294 0.068)" fill="#fff"/>
    <path id="Path_131497" data-name="Path 131497" d="M163.5,33.854a8.512,8.512,0,0,1-3.381,4.128,5.278,5.278,0,0,1-2.455.71c-.576.014-1.645-.02-1.975-.638.006-.011.01-.023.017-.035.13-.275.258-.552.387-.828a10.835,10.835,0,0,0,.65-1.593c.226-.8.4-1.681-.461-2.059a10.42,10.42,0,0,0-1.231-.26,1.3,1.3,0,0,1-.425-.207.782.782,0,0,1-.284-.5c.065-.08.129-.161.2-.236a1.76,1.76,0,0,1,.672-.5.768.768,0,0,1,1.038.574c.035.188.331-.546.344-.58a2.639,2.639,0,0,0,.22-1.146c-.164-.863-1.057-.811-1.59-.377a4.362,4.362,0,0,0-1.308,2.192c-.205.7-.474,1.754.138,2.321.573.527,1.451.2,2.036.71a.892.892,0,0,1,.19.269c-.006.014-.01.026-.015.036-.226.485-.458.963-.678,1.449-.286.636-.831,1.843-.466,2.541s1.58.7,2.217.658a5.465,5.465,0,0,0,2.277-.694,9.284,9.284,0,0,0,3.711-4.6,4.3,4.3,0,0,0,.361-1.282c.027-.292-.044-.4-.188-.063" transform="translate(6.516 1.266)" fill="#fff"/>
    <path id="Path_131498" data-name="Path 131498" d="M191.762,10.7c-.036.007-.076.187-.082.206a2.444,2.444,0,0,0-.078.354,1.378,1.378,0,0,0,.029.775.734.734,0,0,0,.336.339,2.066,2.066,0,0,0,1.031.177c.25-.009.5-.045.744-.077.349-.041.7-.088,1.046-.137.6-.082,1.187-.175,1.777-.3a2.217,2.217,0,0,1,1.666.094c.024.016.07-.116.105-.243a.629.629,0,0,0,.07-.2,3.274,3.274,0,0,0,.079-.358,1.634,1.634,0,0,0-.165-1.267,1.023,1.023,0,0,0-.411-.36,1.006,1.006,0,0,0-.6-.028c-.907.157-1.8.4-2.719.482a5.7,5.7,0,0,1-.766.03,1,1,0,0,1-.284-.046,3.455,3.455,0,0,1,.824-.838,2.114,2.114,0,0,1,.712-.363.393.393,0,0,1,.312.04.278.278,0,0,1,.1.191.571.571,0,0,1,.009.112c0,.024-.006.078-.005.073a.922.922,0,0,0-.016.219c.008.057,0,.064.042.056s.076-.188.082-.205a2.841,2.841,0,0,0,.08-.357,2.641,2.641,0,0,0,.031-.713.359.359,0,0,0-.223-.345c-.273-.08-.6.149-.821.286a3.5,3.5,0,0,0-1.264,1.424,1.394,1.394,0,0,0-.091.252c-.047.014-.122.3-.126.321a3.17,3.17,0,0,0-.066.358c-.006.058-.034.17,0,.221.176.308.617.253.917.239a9.363,9.363,0,0,0,1.3-.155c.432-.077.859-.171,1.288-.255a1.725,1.725,0,0,1,1.165-.033,1.014,1.014,0,0,1,.392.417,2.213,2.213,0,0,0-1.173-.029c-.233.04-.463.1-.7.143-.292.056-.588.1-.883.14-.661.1-1.324.189-1.99.26a2.8,2.8,0,0,1-.978-.042,1.08,1.08,0,0,1-.49-.239.559.559,0,0,1-.145-.207.567.567,0,0,1-.033-.121c0-.019,0-.033-.006-.046a.808.808,0,0,0,.013-.193c-.008-.059,0-.063-.042-.055" transform="translate(8.122 0.333)" fill="#fff"/>
    <path id="Path_131499" data-name="Path 131499" d="M207.722,18.9c-.053.036-.078.046-.09.064a.635.635,0,0,0-.066.1,7.773,7.773,0,0,0-.794,1.876,2.4,2.4,0,0,0-.071.649.626.626,0,0,0,.492.593,1.288,1.288,0,0,0,1.043-.18A2.147,2.147,0,0,0,209,20.944a.845.845,0,0,0-.313-.979,3.265,3.265,0,0,0-.809-.388c-.084-.028-.167-.065-.238-.095.022-.207.222-.358.081-.584m.292,1.667a.813.813,0,0,1,.544.558,1.187,1.187,0,0,1-.958.276.493.493,0,0,1-.463-.375.992.992,0,0,1-.022-.392,1.9,1.9,0,0,1,.12-.371c.283.11.536.2.779.3" transform="translate(8.764 0.795)" fill="#fff"/>
    <path id="Path_131500" data-name="Path 131500" d="M12.023,5.733c.214-.915.394-1.841.641-2.746.216-.8.849-.937,1.457-.35a1.436,1.436,0,0,1,.29.394c.18.4.335.8.5,1.205.05.119.11.237.168.363a1.223,1.223,0,0,0,.214-.088.685.685,0,0,0,.159-.15,1.941,1.941,0,0,0,.375-2.212c-.143-.254-.255-.524-.385-.785A2.221,2.221,0,0,0,14.358.388a1.052,1.052,0,0,0-1.234.177,2.685,2.685,0,0,0-.74,1.129A27.36,27.36,0,0,0,11.15,6.2c-.036.175-.078.349-.138.613-.1-.189-.161-.294-.207-.407a12.693,12.693,0,0,0-2.359-3.6c-.536-.574-1.124-1.1-1.688-1.66-.405-.4-.785-.32-1,.214-.105.271-.195.546-.306.815a1.246,1.246,0,0,0,.181,1.284A4.086,4.086,0,0,0,7.3,4.887c.066-.033.131-.069.2-.1s.132-.058.233-.1a10.8,10.8,0,0,1,2.538,4.539c.065.246-.066.4-.174.6-.286.506-.555,1.023-.811,1.543-.08.163-.119.357.167.471.237-.164.483-.351.749-.507a1.075,1.075,0,0,1,1.52.305c-.657.137-1.339.236-2,.423a2.276,2.276,0,0,0-1.708,1.7c-.079.317-.168.632-.264.942a4.047,4.047,0,0,0-.091,2.2c.3,1.159.614,2.313.972,3.457.565,1.818,1.2,3.618,1.747,5.44a9.979,9.979,0,0,1,.527,4.176,2.112,2.112,0,0,0,.054.512c.042,0,.083-.007.124-.008A6.276,6.276,0,0,0,11.79,27.5a12.9,12.9,0,0,0-.522-3.1c-.741-2.5-1.548-4.991-2.3-7.491-.189-.62-.256-1.273-.416-1.9-.132-.535.182-.764.6-.949a1.543,1.543,0,0,1,.316-.1q.81-.159,1.629-.3a5.329,5.329,0,0,1,2.361.074.443.443,0,0,0,.371-.143,3.09,3.09,0,0,0,.317-.571,1.35,1.35,0,0,0-.2-1.743,4.5,4.5,0,0,1-.29-.4,4.2,4.2,0,0,0-2.311-1.785c-.026-.005-.044-.05-.072-.083.055-.275.109-.561.173-.841.191-.812.39-1.623.577-2.435" transform="translate(0.227 0.005)" fill="#fff"/>
    <path id="Path_131501" data-name="Path 131501" d="M78.165,3.468c.131-.564.243-1.134.4-1.694.133-.492.524-.579.9-.215a.835.835,0,0,1,.178.242c.112.245.207.494.312.743.032.073.068.147.1.223a.74.74,0,0,0,.133-.054.454.454,0,0,0,.1-.093,1.2,1.2,0,0,0,.23-1.362c-.088-.157-.157-.324-.237-.484a1.366,1.366,0,0,0-.671-.6.648.648,0,0,0-.761.109,1.671,1.671,0,0,0-.457.7,16.755,16.755,0,0,0-.762,2.782c-.023.107-.048.215-.084.376-.06-.115-.1-.18-.128-.25A7.833,7.833,0,0,0,75.96,1.664c-.332-.355-.693-.682-1.041-1.025-.25-.245-.484-.2-.614.132-.065.166-.121.337-.189.5a.769.769,0,0,0,.113.792,2.52,2.52,0,0,0,1.021.88c.041-.019.08-.041.122-.06l.145-.062a6.638,6.638,0,0,1,1.564,2.8c.04.153-.04.25-.105.368-.177.312-.344.631-.5.952a.182.182,0,0,0,.1.291c.146-.1.3-.217.463-.314a.665.665,0,0,1,.937.189c-.405.083-.828.146-1.231.261a1.407,1.407,0,0,0-1.054,1.05c-.048.2-.1.39-.164.583a2.49,2.49,0,0,0-.054,1.358c.181.715.378,1.426.6,2.131.348,1.123.739,2.233,1.077,3.358a6.128,6.128,0,0,1,.327,2.574,1.23,1.23,0,0,0,.033.317c.024,0,.05-.005.076-.006a3.851,3.851,0,0,0,.437-1.837,7.984,7.984,0,0,0-.322-1.913c-.458-1.546-.955-3.078-1.419-4.621-.118-.384-.158-.784-.256-1.173-.082-.33.112-.471.368-.584a.923.923,0,0,1,.195-.063c.335-.065.669-.128,1-.188a3.257,3.257,0,0,1,1.456.047.284.284,0,0,0,.229-.088,1.962,1.962,0,0,0,.195-.352.833.833,0,0,0-.121-1.076,2.686,2.686,0,0,1-.179-.245,2.585,2.585,0,0,0-1.426-1.1c-.015,0-.027-.031-.044-.051.035-.171.068-.347.107-.519.117-.5.239-1,.355-1.5" transform="translate(3.14 -0.002)" fill="#fff"/>
    <path id="Path_131502" data-name="Path 131502" d="M20,4.829c.158-.694.358-1.372.581-2.047A17.1,17.1,0,0,0,21.268,1l0-.009c.017-.087.015-.2-.068-.227-.065-.024-.131.028-.178.077a2.491,2.491,0,0,0-.464.818c-.133.32-.261.637-.385.961A16.285,16.285,0,0,0,19.16,6.578,4.2,4.2,0,0,0,19.545,9.2a1.936,1.936,0,0,0,.61.637c.34.219.556.153.825-.174a3.743,3.743,0,0,0,.763-2.388.46.46,0,0,0-.29-.473c-.078.282-.152.568-.237.85-.128.422-.413.516-.759.241a1.139,1.139,0,0,1-.232-.284,3.094,3.094,0,0,1-.3-2.4c.028-.125.055-.254.084-.383" transform="translate(0.81 0.026)" fill="#fff"/>
    <path id="Path_131503" data-name="Path 131503" d="M15.8,25.274a1.871,1.871,0,0,0,.446-.526c.139-.214.273-.424.407-.641a12.014,12.014,0,0,0,1.264-2.716,3.054,3.054,0,0,0,.074-1.945,1.369,1.369,0,0,0-.352-.538c-.219-.2-.384-.186-.62.015a2.751,2.751,0,0,0-.874,1.618.339.339,0,0,0,.145.382c.1-.194.19-.389.288-.58.148-.289.367-.318.581-.073a.828.828,0,0,1,.131.233,2.268,2.268,0,0,1-.1,1.77c-.036.09-.075.177-.112.266-.207.479-.444.942-.7,1.4a12.608,12.608,0,0,0-.733,1.193l0,.006c-.026.057-.04.141.019.173.043.026.1,0,.139-.034" transform="translate(0.662 0.789)" fill="#fff"/>
    <path id="Path_131504" data-name="Path 131504" d="M228.426,27.115a2.582,2.582,0,0,1-.236.269,3.543,3.543,0,0,1-1.182.746,11.889,11.889,0,0,1-2.413.637.249.249,0,0,1-.047.005.287.287,0,0,1-.21-.093.278.278,0,0,1-.062-.262l.031-.107.074-.261c.083-.272.17-.537.311-.882a7.046,7.046,0,0,1,1.232-2.019l.079-.092c.223-.264.563-.661,1-.661a.81.81,0,0,1,.122.009c.529.093.867.668,1.024,1a4.313,4.313,0,0,1,.325,1.174,3.585,3.585,0,0,1,.009.368.281.281,0,0,1-.058.164m.979-3.967c-.1-.549-.476-1.637-1.215-1.819a.653.653,0,0,0-.167-.021c-.577,0-1.093.745-1.4,1.191l-.13.182a19.309,19.309,0,0,0-3.166,5.942.278.278,0,0,1-.239.2,11.955,11.955,0,0,1-1.351.091,3.792,3.792,0,0,1-3.359-1.595l-.055-.089c-.037-.06-.09-.15-.149-.235a12.144,12.144,0,0,0-.918-1.448,5.377,5.377,0,0,0-.316.828,8.519,8.519,0,0,0-.3,1.278l-.03.151a1.485,1.485,0,0,0-.048.469c1.132,1.462,1.136,3.253,1.141,4.986l0,.648a.278.278,0,0,1-.09.207c-2.554,2.33-4.352,3.828-7.786,4.986a10.9,10.9,0,0,1-3.465.621,7.875,7.875,0,0,1-1.92-.232c-1.651-.413-2.508-.767-3.22-2.216a7.242,7.242,0,0,1-.446-3.874l.008-.123a.279.279,0,0,1,.252-.256c.647-.066.991-.11,1.321-.156.371-.048.726-.1,1.464-.165l.253-.024a9.218,9.218,0,0,0,3.992-.956,5.042,5.042,0,0,0,2.289-2.681,8.178,8.178,0,0,0,.294-1.013,6.406,6.406,0,0,0-.005-2.931,5.059,5.059,0,0,0-1.086-2.05,20.8,20.8,0,0,0-3.81-3.455c-.9-.674-1.852-1.332-2.772-1.969a42.9,42.9,0,0,1-5.7-4.435l-.149-.148a.276.276,0,0,1-.069-.279c.065-.206.109-.37.12-.41l.038-.13c.3-1.006.26-1.259.229-1.32a8.108,8.108,0,0,1-2.772-1.969.278.278,0,0,1,.071-.439A26.009,26.009,0,0,1,200.4,6.582l.674-.173c2.473-.638,5.018-1.218,7.565-1.72,2.431-.481,5.041-.965,7.659-1.268a26.543,26.543,0,0,1,3.021-.2c.321,0,.642.007.961.027a4.579,4.579,0,0,1,1.786.386,2.063,2.063,0,0,1,.723.568,1.757,1.757,0,0,1,.194.342.27.27,0,0,1-.017.253,4.824,4.824,0,0,1-1.028,1.166,12.143,12.143,0,0,1-2.149,1.392c-.772.41-1.6.789-2.371,1.138l-2.43,1.063c-.83.361-1.637.717-2.417,1.107a24.286,24.286,0,0,0-2.331,1.293c-.374.238-.744.484-1.1.747-.141.105-.27.205-.391.3.151-.095.293-.182.42-.26.372-.23.759-.446,1.149-.654.826-.426,1.607-.794,2.391-1.127.813-.341,1.628-.673,2.453-1a46.725,46.725,0,0,0,4.885-2.141c.2-.108.415-.217.643-.33a5.873,5.873,0,0,0,1.839-1.2,5.218,5.218,0,0,0,.671-1.017,1.8,1.8,0,0,0,.079-.17c.005-.01.026-.057.032-.068a9.183,9.183,0,0,0,.61-2.022,2.682,2.682,0,0,0,0-1.457c-.253-.591-1.341-.93-2.273-1.051a12.785,12.785,0,0,0-1.62-.1,32.318,32.318,0,0,0-4.927.512l-.186.029A135.99,135.99,0,0,0,201.5,3.762l-.834.216A20.284,20.284,0,0,0,194.875,6.1a1.956,1.956,0,0,0-.322.577c-.064.168-.125.316-.184.461-.087.211-.173.414-.256.668v0s-.036.114-.081.245-.107.318-.123.375c-.109.486-.168.724-.194.808a8.462,8.462,0,0,0-.26,1.254l-.022.123a1.51,1.51,0,0,0-.041.5.948.948,0,0,1,.051.105l.031.065c.028.067.044.112.059.154,1.437,3.666,4.847,6.265,7.933,8.417l.962.667c1.449,1,2.948,2.04,4.308,3.182l.315.263A6.481,6.481,0,0,1,208.6,25.6a6.155,6.155,0,0,1,.579,1.059,4.286,4.286,0,0,1,.269.738.279.279,0,0,1-.074.265c-.006.006-.047.044-.055.05a8.077,8.077,0,0,1-.655.539,6.935,6.935,0,0,1-1.663.906,9.812,9.812,0,0,1-3.285.836l-.647.043a22.922,22.922,0,0,0-6.6,1.074,17.963,17.963,0,0,0-5.511,3.335c-.451.393-.881.85-1.333,1.332a8.362,8.362,0,0,1-4.094,2.893,4.227,4.227,0,0,1-.924.105,3.33,3.33,0,0,1-2.723-1.295,3.643,3.643,0,0,1-.229-2.93,9.736,9.736,0,0,0,.156-1c0-.044.014-.139.011-.238a.28.28,0,0,1,.171-.261l.088-.035.105-.046a49.326,49.326,0,0,0,4.907-2.349,29.448,29.448,0,0,0,5.7-3.976,5.178,5.178,0,0,0,.6-.781c.063-.105.126-.2.191-.3a3.974,3.974,0,0,0,.276-.469,6.657,6.657,0,0,0,.512-3.8,3.815,3.815,0,0,0-.991-2.1c-1.028-1.19-2.831-1.571-4.423-1.907-.282-.062-.559-.12-.823-.18a21.433,21.433,0,0,1-7.4-2.764.279.279,0,0,1-.116-.282,8.246,8.246,0,0,0,.208-1.466,3.9,3.9,0,0,1-2.659-1.278c-.023.046-.049.1-.078.165a8.151,8.151,0,0,0-.384,1.274,8.863,8.863,0,0,0-.221,1.312l-.01.141a.756.756,0,0,0,0,.371c1.207,2.432,3.682,4.13,7.57,5.191.726.2,1.477.367,2.2.527,1.011.227,2.056.461,3.063.781a5.407,5.407,0,0,1,2.188,1.15,2.717,2.717,0,0,1,.666.948s.029.068.03.072a.37.37,0,0,1-.05.375,37.028,37.028,0,0,1-9.374,5.88q-.508.225-1.025.461a27.361,27.361,0,0,1-4.417,1.7,5.288,5.288,0,0,1-1.3.168,3.248,3.248,0,0,1-3.189-1.974,6.137,6.137,0,0,1-.252-2.808c.012-.19.026-.377.034-.563.01-.241.019-.492.027-.749a19.71,19.71,0,0,1,.153-2.227.278.278,0,0,1,.143-.2,28.966,28.966,0,0,0,2.656-1.647l.359-.241c.346-.211.682-.416,1.015-.624a2.386,2.386,0,0,0,.225-.585l.032-.1a10.911,10.911,0,0,0,.355-1.409,6.816,6.816,0,0,0,.107-.975l-.023,0-.088.057c-.225.153-.454.308-.688.46-1.576.956-3.131,1.837-4.628,2.626a13.012,13.012,0,0,1-5.307,1.28,8.684,8.684,0,0,1-4.178-1.053,4.272,4.272,0,0,1-2.142-2.382,5.043,5.043,0,0,1-.388-1.249.271.271,0,0,1,.06-.231,4.244,4.244,0,0,1,.472-.467,4.807,4.807,0,0,1,3.392-1.316c.082,0,.167,0,.252,0,.25.008.5.014.751.014a10.628,10.628,0,0,0,3.251-.431,6.321,6.321,0,0,0,3.262-2.262,11.042,11.042,0,0,0,1.7-5.344c-.035.1-.067.226-.1.348-.022.084-.043.17-.069.254l-.076.273c-.029.107-.058.216-.091.323a3.632,3.632,0,0,1-.712,1.258,6.776,6.776,0,0,1-4.119,2.2,12.1,12.1,0,0,1-2.012.164c-.349,0-.667-.01-.988-.023s-.635-.024-.953-.024a5.1,5.1,0,0,0-2.378.461,5.227,5.227,0,0,0-2.38,2.934,9.394,9.394,0,0,0-.316,5.106,5.718,5.718,0,0,0,2.016,3.047,6.611,6.611,0,0,0,1.246.776.276.276,0,0,1,.157.269.281.281,0,0,1-.195.245c-.413.129-.827.256-1.244.375a41.891,41.891,0,0,1-11.494,1.723,29.226,29.226,0,0,1-7.211-.862c-2.515-.641-5.887-2.065-7.784-5.2a.2.2,0,0,1-.035,0h-.007a2.227,2.227,0,0,0-.117.267c-.073.18-.137.354-.193.528a.281.281,0,0,1-.267.194.269.269,0,0,1-.057-.006,3.669,3.669,0,0,0-.746-.075,7.229,7.229,0,0,0-3.24,1,22.861,22.861,0,0,0-6.545,5.8c-.348.416-.692.836-1.036,1.255-.71.867-1.445,1.762-2.206,2.615-.324.365-.552.673-.773.972a7.647,7.647,0,0,1-1.543,1.65.286.286,0,0,1-.176.06.277.277,0,0,1-.254-.393l-.009.01c-.009,0-.013-.042-.016-.092,0-.1-.01-.223-.007-.342.033-.583.055-.787.084-1.074.018-.17.038-.368.065-.692a35.265,35.265,0,0,0-.325-8.045c-.227-1.538-.489-3.092-.742-4.6-.178-1.057-.355-2.115-.523-3.175-.239-1.5-.555-3-.859-4.46-.309-1.475-.628-3-.868-4.524a.271.271,0,0,1,.027-.169c.131-.256.241-.5.256-.535l.1-.259a4.226,4.226,0,0,0,.432-1.92,5.4,5.4,0,0,0-.715-1.671c-.109-.194-.22-.389-.322-.587a16.375,16.375,0,0,1-.9-2.1,8.724,8.724,0,0,0-.37.792,10.729,10.729,0,0,0-.426,1.392l-.043.168a1.428,1.428,0,0,0-.076.587c.05.149.1.3.154.447a.268.268,0,0,1,.017.1,1.648,1.648,0,0,0,.014.281c.273,1.716.513,3.424.745,5.08.49,3.5.953,6.8,1.714,10.251.388,1.76.637,3.659.878,5.5.115.868.226,1.728.352,2.562a33.763,33.763,0,0,1,.458,7.62.283.283,0,0,1-.168.235,5.411,5.411,0,0,1-2.121.471,3.572,3.572,0,0,1-2.482-.945c-1.362-1.268-1.218-3.161-1.089-4.83l.015-.165A.307.307,0,0,1,112.01,30c.157-.009.286-.013.4-.013a6.637,6.637,0,0,1,.866.066l.1.011a3.393,3.393,0,0,0,.469-1.031l.226-.63.286-.793a9.9,9.9,0,0,0,.5-1.765c.01-.062.02-.114.025-.156a13.879,13.879,0,0,1-6.3,1.21c-1.247,0-2.494-.081-3.7-.162l-.4-.027c-1.829-.12-3.753-.285-6.054-.517a.277.277,0,0,1-.069-.537,7.579,7.579,0,0,0,2.579-1.507,8.062,8.062,0,0,0,1.541-1.925,11.211,11.211,0,0,1,.779-1.148c.183-.244.373-.5.574-.8.229-.351.613-.939,1.206-.939l.088,0a1.216,1.216,0,0,1,.952.788,3.844,3.844,0,0,1,.287,2.16A8.576,8.576,0,0,0,107,20.17a8.127,8.127,0,0,0-.043-3.2c-.136-.569-.42-1.176-.811-1.176a.592.592,0,0,0-.179.033c-.543.188-1.116.865-1.712,2.011a10.892,10.892,0,0,1-1.633,2.207,9.36,9.36,0,0,1-5.068,3.1c-1.967.473-3.684.977-4.785,2.358a5.7,5.7,0,0,0-.811,1.853,8.312,8.312,0,0,0-.314,1.362c3.608.405,7.336.821,11.093,1.085a.279.279,0,0,1,.256.225.277.277,0,0,1-.157.3,31.373,31.373,0,0,1-3.678,1.5,13.85,13.85,0,0,1-4.177.767,7.633,7.633,0,0,1-1.155-.083c-3.56-.546-4.006-5.054-4.3-8.035-.033-.339-.066-.66-.1-.952-.367-3.139-.615-6.338-.855-9.432l-.161-2.047A108.03,108.03,0,0,0,86.969.765c-.142.266-.287.572-.326.67l-.1.259a4.232,4.232,0,0,0-.434,1.924,124.923,124.923,0,0,1,1.532,13.922c.187,2.6.377,5.28.682,8.114l.027.257a26.585,26.585,0,0,0,.955,5.4l.085.266c.423,1.309.9,2.789,2.037,3.581a3.9,3.9,0,0,0,2.259.589l.2,0,.453-.03a14.467,14.467,0,0,0,2.126-.362,25.673,25.673,0,0,0,4.834-1.787c.594-.275,1.182-.561,1.767-.844a22.453,22.453,0,0,1,7.784-2.654h.026a.283.283,0,0,1,.224.11.278.278,0,0,1,.036.268,5.39,5.39,0,0,0-.26,1.785c-.007.232-.017.464-.033.692-.162,2.112-.005,5.762,2.856,6.5a4.3,4.3,0,0,0,1.067.137c1.831,0,3.806-1.2,5.867-3.557.733-.839,1.455-1.772,2.156-2.674a36.244,36.244,0,0,1,3.875-4.478l.347-.322a13.756,13.756,0,0,1,2.873-2.23,7.661,7.661,0,0,1,3.49-1.078,4.162,4.162,0,0,1,.611.044,4.57,4.57,0,0,1,.624.138.281.281,0,0,1,.2.278A10.493,10.493,0,0,0,135.2,29.4a6.67,6.67,0,0,0,1.221,2.071,5.746,5.746,0,0,1,1.133,1.83,12.863,12.863,0,0,0,1.335-4.845.278.278,0,0,1,.279-.254.269.269,0,0,1,.132.033c2.625,1.4,6.15,2.106,10.482,2.106q.4,0,.8-.007A46.157,46.157,0,0,0,168.832,25.8c.865-.4,1.756-.832,2.728-1.332a4.891,4.891,0,0,0,.657-.323c.13-.072.266-.148.437-.232a.28.28,0,0,1,.126-.029.293.293,0,0,1,.166.053.282.282,0,0,1,.109.27c-.03.179-.056.353-.08.515-.082.533-.17,1.034-.256,1.529a18.7,18.7,0,0,0-.417,5.417,4.912,4.912,0,0,0,1.328,2.6,3.007,3.007,0,0,0,1.539.761.242.242,0,0,1,.055.017c.066.011.152.024.247.034h.02a.115.115,0,0,1,.026,0l.172.017c.1.006.2.008.3.008a10.625,10.625,0,0,0,4.254-1.288l.547-.249a.28.28,0,0,1,.116-.026.285.285,0,0,1,.2.082.274.274,0,0,1,.056.311,6.619,6.619,0,0,0-.471,2.242c-.16,2.113-.073,4.97,2.509,5.365a3.947,3.947,0,0,0,.568.043c1.872,0,3.28-1.466,4.523-2.761.294-.3.578-.6.855-.863a18.27,18.27,0,0,1,6.439-4.1,22.181,22.181,0,0,1,3.839-.691l.462-.057a.2.2,0,0,1,.034,0,.285.285,0,0,1,.2.084.282.282,0,0,1,.075.239c-.311,1.978-.719,6.647,2.038,8.055a7.833,7.833,0,0,0,3.606.807,15.73,15.73,0,0,0,7.55-2.285,13.938,13.938,0,0,0,4.1-3.441l.075-.087a6.612,6.612,0,0,0,.987-1.33,6.163,6.163,0,0,0,.464-1.838,13.132,13.132,0,0,0,.13-1.654.277.277,0,0,1,.124-.225.281.281,0,0,1,.157-.049.265.265,0,0,1,.1.02,5.948,5.948,0,0,0,2.178.386,8.425,8.425,0,0,0,.988-.06l.084-.01a.325.325,0,0,1,.045,0,.336.336,0,0,1,.226.078.3.3,0,0,1,.111.235l-.032.2-.033.2c-.023.14-.065.522-.084.844a10.175,10.175,0,0,0,.827-1.5.279.279,0,0,1,.226-.2c1.442-.228,3.212-.667,4.122-2.05a9.522,9.522,0,0,0,1.2-3.453,8.324,8.324,0,0,0,.014-2.924m-186.3,3.886A.265.265,0,0,1,42.977,27a.273.273,0,0,1-.141-.174c-.2-.752-.358-1.506-.477-2.244a22.9,22.9,0,0,1-.221-2.549.277.277,0,0,1,.095-.222,1.767,1.767,0,0,1,.166-.136,2.111,2.111,0,0,1,1.253-.431,1.712,1.712,0,0,1,.194.01,2.585,2.585,0,0,1,2.046,1.9,9.067,9.067,0,0,1,.464,2.2.273.273,0,0,1-.1.236,5.111,5.111,0,0,1-1.243.733c-.551.239-1.145.467-1.813.7a.277.277,0,0,1-.092.015m3.1,9.267a7.842,7.842,0,0,0,1.764-.233,7.7,7.7,0,0,0,3.368-1.623c.165-.131.667-.64.887-.868a3.391,3.391,0,0,0,.6-.8,8.546,8.546,0,0,0,.609-2.017,14.287,14.287,0,0,0-.29-5.656c-.072-.388-.144-.775-.21-1.166-.269-1.595-.556-3.188-.844-4.78l-.38-2.118-1.525-8.6a.267.267,0,0,1,.021-.166c.069-.145.117-.259.125-.282A10.861,10.861,0,0,0,50.763,6.6l.04-.159a1.451,1.451,0,0,0,.076-.6,13.472,13.472,0,0,0-.9-2.145l-.216-.442a15.63,15.63,0,0,1-.916-2.4c-.148.278-.312.633-.354.744a10.746,10.746,0,0,0-.427,1.395l-.035.147a1.569,1.569,0,0,0-.078.628c.059.236.127.47.2.7a.292.292,0,0,1,.011.085,1.359,1.359,0,0,0,.018.278c.394,2.215.789,4.921,1.17,7.539s.776,5.315,1.169,7.521c.194,1.092.405,2.1.612,3.078s.417,1.988.614,3.086c.486,2.745.417,4.432-.2,5.018l-.082.068c-1.29,1.048-2.509,2.038-4.144,2.038a4.549,4.549,0,0,1-.769-.07c-1.636-.288-2.356-1.743-2.9-3.084a.277.277,0,0,1,.151-.359,4.209,4.209,0,0,0,1.739-1.187A9.23,9.23,0,0,0,47.3,23.629a9.654,9.654,0,0,0-.391-3.447c-.169-.6-.693-2.032-1.921-2.28a1.621,1.621,0,0,0-.333-.033,2.715,2.715,0,0,0-2.04,1.276,10.807,10.807,0,0,0-1.63,4.924,14.108,14.108,0,0,0,.2,3.579.278.278,0,0,1-.195.309l-.716.215c-.585.174-1.169.35-1.747.533A32.455,32.455,0,0,0,32.4,31.127l-.176.1c-.242.131-.339.185-.641.376a.286.286,0,0,1-.152.044.279.279,0,0,1-.267-.364,4.651,4.651,0,0,0,.174-.751c.02-.118.04-.237.066-.362a18.928,18.928,0,0,0-.07-6.558l-.013-.095c-.228-1.815-.565-3.655-.89-5.432L30.2,16.8q-.655-3.668-1.352-7.322a.266.266,0,0,1,.017-.158l.069-.17a10.939,10.939,0,0,0,.433-1.406l.044-.173a1.43,1.43,0,0,0,.081-.558L27.8,2.986l-.286-.675a8.3,8.3,0,0,0-.382.839,10.572,10.572,0,0,0-.426,1.391c-.013.051-.027.11-.045.173a1.491,1.491,0,0,0-.082.562l.117.272.116.275a.294.294,0,0,1,.02.134,1.41,1.41,0,0,0,.01.414c.823,4.294,1.672,8.717,2.459,13.077l.18,1c.326,1.805.666,3.674.945,5.52a17.459,17.459,0,0,1,.052,6.211.477.477,0,0,1-.13.238c-1.251.845-2.459,1.8-3.629,2.722l-.066.051-.164.128c-.927.731-1.888,1.488-2.874,2.18a5.379,5.379,0,0,1-2.98,1.224,2.845,2.845,0,0,1-.789-.111c-1.595-.462-2.438-1.784-2.507-3.93a.283.283,0,0,1,.119-.235Q18.54,33.684,19.6,32.9c.423-.311.882-.625,1.352-.948,1.706-1.17,3.638-2.493,4.482-4.255l.04-.083a5.861,5.861,0,0,0,.42-1.029,8.181,8.181,0,0,0,.37-2.42c.079-1.926-.816-3.538-1.907-5.293l-.253-.407a13.519,13.519,0,0,1-1.974-4.124c-.071.187-.126.391-.175.57l-.04.139a5.927,5.927,0,0,0-.333,2.257,11.708,11.708,0,0,0,2.017,4.5,13.143,13.143,0,0,1,1.7,3.652.275.275,0,0,1-.054.241,10.179,10.179,0,0,1-1.515,1.582c-1.116.915-2.292,1.792-3.294,2.529a76.488,76.488,0,0,1-8.673,5.6C8.7,37.093,5.677,38.712,2.487,40.1c-.317.138-.615.28-.911.422-.432.205-.88.42-1.363.607A.525.525,0,0,0,0,41.393a27.613,27.613,0,0,1,3.253-.866c.523-.118,1.034-.232,1.507-.353l.721-.183c1.275-.323,2.48-.628,3.924-1.087a23.792,23.792,0,0,0,3.461-1.448,22.591,22.591,0,0,0,2.591-1.632c.24-.166.48-.335.721-.5l.112-.076a.291.291,0,0,1,.158-.048.28.28,0,0,1,.278.318c-.357,2.371-.432,4.733,1.422,5.939a2.319,2.319,0,0,0,1.3.388c1.495,0,3.133-1.33,4.33-2.3.212-.172.412-.336.6-.483l.978-.765a41.43,41.43,0,0,1,5.7-3.993,40.738,40.738,0,0,1,7.6-2.91l.17-.051c.889-.274,1.776-.548,2.658-.841a.3.3,0,0,1,.09-.015.288.288,0,0,1,.131.032.282.282,0,0,1,.139.171c.174.617.368,1.221.579,1.8a7.587,7.587,0,0,0,1.739,3.147,2.958,2.958,0,0,0,2.052.67m-4.725,5.2.036-.006-.059.005h.023M60.059,24.838c-.267-1.805-.557-3.609-.847-5.411l-.383-2.383-1.26-7.939-.177-1.117a.274.274,0,0,1,.026-.168c.124-.245.232-.477.25-.527l.1-.257A4.244,4.244,0,0,0,58.207,5.1a5.442,5.442,0,0,0-.72-1.68c-.108-.191-.219-.383-.319-.579a16.569,16.569,0,0,1-.9-2.1,7.886,7.886,0,0,0-.37.792,10.861,10.861,0,0,0-.427,1.395l-.042.166a1.4,1.4,0,0,0-.076.589c.036.117.078.231.119.346l.035.1a.251.251,0,0,1,.016.1,1.571,1.571,0,0,0,.015.281c.417,2.626.741,5.294,1.053,7.875.31,2.563.629,5.211,1.041,7.818.147.918.276,1.859.408,2.8.157,1.141.321,2.321.513,3.448.068.4.143.79.219,1.183a13.474,13.474,0,0,1,.312,5.137,10.655,10.655,0,0,1-.926,2.7c-.852,1.663-2.364,2.29-3.965,2.957l-.467.195a33.887,33.887,0,0,1-6.7,2.116c-.355.074-.713.153-1.071.23-.935.2-1.889.412-2.859.577.611.05,1.235.076,1.868.076.706,0,1.435-.032,2.167-.095,3.215-.27,9.006-1.226,11.676-4.588a8.524,8.524,0,0,0,1.694-4.289,28.157,28.157,0,0,0-.42-7.728ZM38.028,11.981a14.1,14.1,0,0,1,1.3,1.182l.043-.039,2.228-2.07a.28.28,0,0,1,.366-.016l2.537,2,.525-.5c.549-.515,1.1-1.037,1.651-1.57a.332.332,0,0,0,.076-.094,1.079,1.079,0,0,0-.175-.164c-.662-.512-1.331-1.019-2.022-1.544l-.586-.442-1.012.96-1.123,1.065a.281.281,0,0,1-.194.077.288.288,0,0,1-.177-.062c-.91-.733-1.79-1.441-2.7-2.169a20.758,20.758,0,0,0-2.1,2.113,11.515,11.515,0,0,0,1.362,1.264m158.63,13.8c.647.569,1.3,1.133,1.957,1.7l.3.261.326-.386c.548-.637,1.1-1.274,1.637-1.921.068-.083.08-.1-.067-.221-.52-.44-1.042-.876-1.568-1.314L198.3,23.1a.149.149,0,0,0-.024.028l-.3.36c-.466.568-.931,1.136-1.38,1.718a1.438,1.438,0,0,0-.2.315,1.832,1.832,0,0,0,.26.255m-95.114-13.8a13.95,13.95,0,0,1,1.3,1.183l.045-.042,2.224-2.067a.286.286,0,0,1,.193-.076.276.276,0,0,1,.174.06l2.537,2,.526-.5c.55-.516,1.106-1.037,1.651-1.569a.31.31,0,0,0,.076-.094,1.08,1.08,0,0,0-.175-.164c-.663-.514-1.333-1.021-2.026-1.546l-.581-.44L105.8,10.338l-.444.42a.281.281,0,0,1-.194.077.288.288,0,0,1-.177-.062c-.91-.733-1.79-1.441-2.7-2.169a20.86,20.86,0,0,0-2.1,2.113,11.4,11.4,0,0,0,1.36,1.263M67.016,7.7c.646.567,1.3,1.131,1.953,1.693l.305.265.364-.428c.538-.623,1.076-1.247,1.6-1.878.07-.085.082-.1-.065-.223-.632-.531-1.265-1.06-1.906-1.6L68.66,5.02l-.025.026-.324.4c-.454.557-.909,1.113-1.349,1.68a1.484,1.484,0,0,0-.205.315,1.89,1.89,0,0,0,.26.255M94.146,17.77c.745.656,1.5,1.3,2.252,1.952l.392-.446c.531-.615,1.059-1.229,1.578-1.853.069-.083.081-.1-.066-.224l-1.826-1.528-.688-.574c-.007.009-.017.017-.023.026l-.269.326c-.473.581-.949,1.16-1.406,1.753a1.448,1.448,0,0,0-.205.313,1.806,1.806,0,0,0,.262.255M81,18.376l-.416-.092-.235-.05c-.34-.073-.672-.143-.987-.217a21.385,21.385,0,0,1-7.4-2.763.276.276,0,0,1-.115-.285,7.9,7.9,0,0,0,.21-1.462,3.909,3.909,0,0,1-2.66-1.28c-.026.054-.055.114-.083.178a8.031,8.031,0,0,0-.377,1.259,9.042,9.042,0,0,0-.221,1.312l-.011.144a.741.741,0,0,0,0,.371c1.207,2.434,3.683,4.132,7.569,5.191.726.2,1.477.366,2.2.527,1.009.225,2.056.459,3.063.78a4.252,4.252,0,0,1,1.9,1.114,3.216,3.216,0,0,1,.736,1.032s.029.07.03.074a.363.363,0,0,1-.052.373A35.83,35.83,0,0,1,75,30.416c-.345.151-.692.309-1.041.467a27.11,27.11,0,0,1-4.4,1.693,6.094,6.094,0,0,1-1.491.19,3.336,3.336,0,0,1-3.323-1.876,8.237,8.237,0,0,1-.383-3.484,33.635,33.635,0,0,1,.413-3.474l.03-.194c0-.03.017-.083.032-.148s.035-.15.047-.212a7.446,7.446,0,0,0-.917,2.867,22.86,22.86,0,0,0-.02,6.556,3.75,3.75,0,0,0,.9,2.367A3.21,3.21,0,0,0,66.914,36c.1.005.194.008.291.008a11.43,11.43,0,0,0,4.513-1.368c.356-.162.7-.32,1.043-.465,2.269-.968,3.983-1.784,5.556-2.645a29.112,29.112,0,0,0,5.7-3.976,3.071,3.071,0,0,0,.485-.723c.036-.09.076-.179.117-.267a2.991,2.991,0,0,0,.2-.517,9.308,9.308,0,0,0,.572-3.853,3.18,3.18,0,0,0-.782-2.089A6.554,6.554,0,0,0,81,18.376" transform="translate(0 0.011)" fill="#fff"/>
  </g>
</svg>
