<svg xmlns="http://www.w3.org/2000/svg" width="102.117" height="102.117" viewBox="0 0 102.117 102.117">
  <g id="field-icon4" transform="translate(0 0.001)">
    <path id="Path_132184" data-name="Path 132184" d="M93.882,72.469H69.175V34.236a18.1,18.1,0,0,0,1.742-1.012l5.89,7.366a15.035,15.035,0,1,0,2.584-2.052L73.485,31.16a18.062,18.062,0,0,0,5.489-11.4H84.63l3.294,6.588h13.562L97.37,18.114l4.116-8.232H87.924L84.63,16.467H78.974A18.1,18.1,0,0,0,49.338,4.219,4.936,4.936,0,0,0,44.468,0H24.7a4.932,4.932,0,0,0-4.636,3.294H8.236A8.241,8.241,0,0,0,0,11.53V93.882a8.243,8.243,0,0,0,8.236,8.236h52.7a8.246,8.246,0,0,0,8.236-8.236V88.94H93.882a8.236,8.236,0,1,0,0-16.471m4.941-21.413a11.53,11.53,0,1,1-11.53-11.53,11.545,11.545,0,0,1,11.53,11.53m-8.867-28-1.643-3.294h6.2l1.647,3.294Zm0-9.883h6.2l-1.647,3.294h-6.2Zm-69.889,0A4.932,4.932,0,0,0,24.7,16.467H42.908c-.052.544-.087,1.091-.087,1.647a18.047,18.047,0,0,0,5.894,13.332l-2.512,3.3a21.607,21.607,0,1,0,2.612,2l2.516-3.3a17.916,17.916,0,0,0,7.962,2.7v36.32H50.759L38.844,76.938a4.025,4.025,0,0,0,0,7.537L50.759,88.94h8.533v3.294H9.883V13.173ZM42.821,60.939H39.527V47.762h3.294Zm-6.588,0H32.938V44.468h3.294Zm-6.588,0H26.35V54.351h3.294Zm18.908,3.294a18.094,18.094,0,0,1-27.93,0ZM50.7,60.939H46.115V44.468H39.527V41.174H29.644v9.883H23.056v9.883H18.468a18.118,18.118,0,1,1,32.236,0ZM40,81.391a.744.744,0,0,1-.476-.687A.735.735,0,0,1,40,80.022l9.406-3.528v8.422Zm12.7.96H85.646v3.294H52.7Zm32.942-3.294H52.7V75.763H85.646ZM65.881,72.469H62.586V36.149a17.96,17.96,0,0,0,3.294-.619ZM60.939,3.294A14.838,14.838,0,0,1,75.668,16.467h-6.66a8.236,8.236,0,1,0,0,3.294h6.66A14.822,14.822,0,1,1,60.939,3.294m4.64,16.467a4.941,4.941,0,1,1,0-3.294H59.292v3.294ZM23.056,4.941A1.648,1.648,0,0,1,24.7,3.294H44.468a1.648,1.648,0,0,1,1.647,1.647v2.79a18.092,18.092,0,0,0-2.588,5.433L24.7,13.173a1.647,1.647,0,0,1-1.647-1.643Zm42.825,88.94a4.947,4.947,0,0,1-4.941,4.941H8.236a4.947,4.947,0,0,1-4.941-4.941V11.53A4.944,4.944,0,0,1,8.236,6.588h11.53V9.883H9.883a3.3,3.3,0,0,0-3.294,3.29V92.234a3.3,3.3,0,0,0,3.294,3.294H59.292a3.3,3.3,0,0,0,3.294-3.294V88.94h3.294Zm28-8.236H88.94V75.763h4.941a4.941,4.941,0,0,1,0,9.883" transform="translate(0 -0.001)" fill="#fff"/>
    <path id="Path_132185" data-name="Path 132185" d="M19.919,22.947A4.316,4.316,0,0,0,26.158,26.8l7.851-3.925a4.311,4.311,0,0,0,0-7.712l-7.847-3.925A4.316,4.316,0,0,0,19.919,15.1ZM23.213,15.1a1.015,1.015,0,0,1,1.016-1.016,1,1,0,0,1,.456.107l7.847,3.921a1.018,1.018,0,0,1,0,1.822l-7.847,3.921a1.044,1.044,0,0,1-1.472-.909Z" transform="translate(59.139 32.034)" fill="#fff"/>
    <rect id="Rectangle_15645" data-name="Rectangle 15645" width="19.765" height="3.294" transform="translate(13.177 79.058)" fill="#fff"/>
    <rect id="Rectangle_15646" data-name="Rectangle 15646" width="19.765" height="3.294" transform="translate(13.177 85.646)" fill="#fff"/>
    <rect id="Rectangle_15647" data-name="Rectangle 15647" width="3.294" height="3.294" transform="translate(13.177 19.766)" fill="#fff"/>
    <rect id="Rectangle_15648" data-name="Rectangle 15648" width="19.765" height="3.294" transform="translate(19.766 19.766)" fill="#fff"/>
    <rect id="Rectangle_15649" data-name="Rectangle 15649" width="3.294" height="3.294" transform="translate(13.177 26.354)" fill="#fff"/>
    <rect id="Rectangle_15650" data-name="Rectangle 15650" width="19.765" height="3.294" transform="translate(19.766 26.354)" fill="#fff"/>
  </g>
</svg>
