<svg xmlns="http://www.w3.org/2000/svg" xmlns:xlink="http://www.w3.org/1999/xlink" width="105.348" height="98.272" viewBox="0 0 105.348 98.272">
  <defs>
    <clipPath id="clip-path">
      <rect id="Rectangle_15643" data-name="Rectangle 15643" width="105.348" height="98.272" fill="none"/>
    </clipPath>
  </defs>
  <g id="field-icon6" transform="translate(0 0)">
    <g id="Group_125638" data-name="Group 125638" transform="translate(0 0)" clip-path="url(#clip-path)">
      <path id="Path_132169" data-name="Path 132169" d="M15.374,14.609H4.731A4.734,4.734,0,0,0,0,19.34V46.987a4.737,4.737,0,0,0,4.731,4.731H15.374a4.737,4.737,0,0,0,4.731-4.731V19.34a4.734,4.734,0,0,0-4.731-4.731M17.02,46.987a1.648,1.648,0,0,1-1.645,1.645H4.731a1.651,1.651,0,0,1-1.645-1.645V19.34a1.648,1.648,0,0,1,1.645-1.645H15.374A1.646,1.646,0,0,1,17.02,19.34Z" transform="translate(0 46.556)" fill="#fff"/>
      <path id="Path_132170" data-name="Path 132170" d="M22.16,9.433H11.517a4.737,4.737,0,0,0-4.731,4.731v8.772a1.543,1.543,0,1,0,3.086,0V14.164a1.646,1.646,0,0,1,1.645-1.645H22.16a1.646,1.646,0,0,1,1.645,1.645V63.482a1.648,1.648,0,0,1-1.645,1.645H11.517a1.648,1.648,0,0,1-1.645-1.645V29.112a1.543,1.543,0,1,0-3.086,0V63.482a4.737,4.737,0,0,0,4.731,4.731H22.16a4.737,4.737,0,0,0,4.731-4.731V14.164A4.737,4.737,0,0,0,22.16,9.433" transform="translate(21.627 30.061)" fill="#fff"/>
      <path id="Path_132171" data-name="Path 132171" d="M28.943,12.539H18.3a4.733,4.733,0,0,0-4.731,4.727V53.584A4.737,4.737,0,0,0,18.3,58.315H28.943a4.738,4.738,0,0,0,4.735-4.731V17.266a4.734,4.734,0,0,0-4.735-4.727m1.65,41.045a1.649,1.649,0,0,1-1.65,1.645H18.3a1.648,1.648,0,0,1-1.645-1.645V17.266A1.645,1.645,0,0,1,18.3,15.625H28.943a1.646,1.646,0,0,1,1.65,1.641Z" transform="translate(43.256 39.959)" fill="#fff"/>
      <path id="Path_132172" data-name="Path 132172" d="M35.733,6.845H25.09a4.737,4.737,0,0,0-4.731,4.731V55.669a1.543,1.543,0,1,0,3.086,0V11.576A1.646,1.646,0,0,1,25.09,9.931H35.733a1.648,1.648,0,0,1,1.645,1.645V71.73a1.648,1.648,0,0,1-1.645,1.641H25.09a1.645,1.645,0,0,1-1.645-1.641V61.84a1.543,1.543,0,0,0-3.086,0v9.89a4.737,4.737,0,0,0,4.731,4.731H35.733a4.737,4.737,0,0,0,4.731-4.731V11.576a4.737,4.737,0,0,0-4.731-4.731" transform="translate(64.883 21.813)" fill="#fff"/>
      <path id="Path_132173" data-name="Path 132173" d="M9.721,32.5a9.615,9.615,0,1,0,9.613,9.617,10.115,10.115,0,0,0-.08-1.244l15.161-11.56a9.583,9.583,0,0,0,9.3-1.043l13.264,6.071a9.615,9.615,0,1,0,19.038-2.575L91.656,18.644a9.615,9.615,0,1,0-6.31-9.031A9.679,9.679,0,0,0,85.5,11.3L69.854,24.422a9.592,9.592,0,0,0-8.885,1.206L47.705,19.557a9.613,9.613,0,0,0-19.185.892,10.169,10.169,0,0,0,.08,1.244L13.439,33.253A9.555,9.555,0,0,0,9.721,32.5M94.963,3.086a6.53,6.53,0,0,1,0,13.059,6.611,6.611,0,0,1-6.532-6.532,6.536,6.536,0,0,1,6.532-6.527m-8.349,11.3.084.134A9.612,9.612,0,0,0,88.813,17L74.9,28.681c-.025-.046-.448-.716-.657-.992A9.59,9.59,0,0,0,72.7,26.064Zm-26.6,18.971a6.53,6.53,0,0,1,13.059.1,6.53,6.53,0,0,1-13.059,0v-.1M46.064,25.879a9.6,9.6,0,0,0,1.386-3.044l11.208,5.129a9.615,9.615,0,0,0-1.311,2.692c-.042.134-.08.272-.113.41L46.026,25.938l.038-.059m-7.93-11.958a6.533,6.533,0,0,1,6.527,6.527,6.527,6.527,0,1,1-13.055,0,6.533,6.533,0,0,1,6.527-6.527M29.576,24.829c.017.038.038.071.059.109a9.614,9.614,0,0,0,2.014,2.608L18.28,37.741a9.742,9.742,0,0,0-.863-1.378,9.911,9.911,0,0,0-1.21-1.34Zm-15.965,12.1a6.473,6.473,0,1,1-3.89-1.344,6.435,6.435,0,0,1,3.89,1.344" transform="translate(0.331 -0.002)" fill="#fff"/>
    </g>
  </g>
</svg>
