<svg xmlns="http://www.w3.org/2000/svg" width="105.347" height="107.131" viewBox="0 0 105.347 107.131">
  <g id="field-icon2" transform="translate(0 -0.001)">
    <path id="Path_132165" data-name="Path 132165" d="M80.35,0H8.926A8.935,8.935,0,0,0,0,8.929V66.066A8.925,8.925,0,0,0,6.7,74.71l.892-3.456a5.356,5.356,0,0,1-4.019-5.188V8.929A5.356,5.356,0,0,1,8.926,3.571H80.35a5.359,5.359,0,0,1,5.358,5.358v1.784h3.571V8.929A8.941,8.941,0,0,0,80.35,0" transform="translate(0 0.001)" fill="#fff"/>
    <rect id="Rectangle_15634" data-name="Rectangle 15634" width="3.571" height="3.571" transform="translate(7.142 7.142)" fill="#fff"/>
    <rect id="Rectangle_15635" data-name="Rectangle 15635" width="3.571" height="3.571" transform="translate(14.284 7.142)" fill="#fff"/>
    <rect id="Rectangle_15636" data-name="Rectangle 15636" width="3.571" height="3.571" transform="translate(21.426 7.142)" fill="#fff"/>
    <path id="Path_132166" data-name="Path 132166" d="M91.473,77.368,74.538,60.432a24.787,24.787,0,0,0,2.12-5.014H79.5V51.848H77.427a24.027,24.027,0,0,0-1.5-12.8V21.492H72.354V32.863a24.864,24.864,0,0,0-3.571-3.706V14.35H65.212V26.66a24.581,24.581,0,0,0-3.571-1.7V7.208H58.07V23.87a24.657,24.657,0,0,0-3.571-.5V10.779H50.928V23.371a24.657,24.657,0,0,0-3.571.5V17.921H43.786v7.035a24.98,24.98,0,0,0-3.571,1.7V16.138H36.644v13.02a25.267,25.267,0,0,0-3.571,3.706V19.709H29.5V39.05a24.064,24.064,0,0,0-1.5,12.8H4.5v3.571H28.769a24.946,24.946,0,0,0,38.29,13.3L83.59,85.251a1.8,1.8,0,0,0,2.529,0l5.355-5.358a1.785,1.785,0,0,0,0-2.525M52.716,69.7A21.426,21.426,0,1,1,74.142,48.277,21.447,21.447,0,0,1,52.716,69.7M84.855,81.462,69.833,66.441a24.829,24.829,0,0,0,2.687-2.977L87.688,78.628Z" transform="translate(13.351 21.361)" fill="#fff"/>
    <path id="Path_132167" data-name="Path 132167" d="M30.022,13.065A17.855,17.855,0,1,0,47.877,30.92,17.856,17.856,0,0,0,30.022,13.065m0,32.139a14.287,14.287,0,0,1-12.354-7.142h24.7A14.28,14.28,0,0,1,30.022,45.2M16.206,34.491a14.161,14.161,0,0,1,4.887-14.7V30.92h3.571V17.686a14.277,14.277,0,0,1,3.571-.927V30.92h3.571V16.759a14.277,14.277,0,0,1,3.571.927V30.92h3.571V19.787a14.147,14.147,0,0,1,4.887,14.7Z" transform="translate(36.044 38.718)" fill="#fff"/>
    <path id="Path_132168" data-name="Path 132168" d="M83.053,3.6H11.632A8.936,8.936,0,0,0,2.7,12.533V69.67A8.941,8.941,0,0,0,11.632,78.6h23.21V75.028H11.632A5.359,5.359,0,0,1,6.274,69.67V12.533a5.357,5.357,0,0,1,5.358-5.358h71.42a5.359,5.359,0,0,1,5.358,5.358V69.67a5.4,5.4,0,0,1-1.34,3.543l2.675,2.362a8.911,8.911,0,0,0,2.235-5.905V12.533A8.941,8.941,0,0,0,83.053,3.6" transform="translate(8.01 10.681)" fill="#fff"/>
    <rect id="Rectangle_15637" data-name="Rectangle 15637" width="3.571" height="3.571" transform="translate(17.854 21.43)" fill="#fff"/>
    <rect id="Rectangle_15638" data-name="Rectangle 15638" width="3.571" height="3.571" transform="translate(24.997 21.43)" fill="#fff"/>
    <rect id="Rectangle_15639" data-name="Rectangle 15639" width="3.571" height="3.571" transform="translate(32.14 21.43)" fill="#fff"/>
    <rect id="Rectangle_15640" data-name="Rectangle 15640" width="3.571" height="10.713" transform="translate(21.426 58.923)" fill="#fff"/>
    <rect id="Rectangle_15641" data-name="Rectangle 15641" width="3.571" height="21.426" transform="translate(28.568 48.21)" fill="#fff"/>
    <rect id="Rectangle_15642" data-name="Rectangle 15642" width="3.571" height="16.072" transform="translate(35.71 53.569)" fill="#fff"/>
  </g>
</svg>
