<svg xmlns="http://www.w3.org/2000/svg" width="96.436" height="106.458" viewBox="0 0 96.436 106.458">
  <g id="field-icon5" transform="translate(0 0.001)">
    <path id="Path_132186" data-name="Path 132186" d="M92.932,13.081H86.585v-.71a3.22,3.22,0,0,0-3.217-3.217H70.856a1.561,1.561,0,1,0,0,3.122H83.367a.094.094,0,0,1,.1.1V31.409a1.561,1.561,0,1,0,3.122,0v-15.2h6.347a.383.383,0,0,1,.382.382V71.072a6.489,6.489,0,0,1-6.481,6.481H9.607a6.487,6.487,0,0,1-6.481-6.481V16.589a.383.383,0,0,1,.382-.382h6.553v53.41a4,4,0,0,0,3.992,3.992H82.592a4,4,0,0,0,3.992-3.992V38.073a1.561,1.561,0,1,0-3.122,0V60.545H58.2a11.408,11.408,0,0,0-8.313,3.591v-20.2a1.561,1.561,0,1,0-3.122,0v20.2a11.408,11.408,0,0,0-8.313-3.591h-7.1a1.561,1.561,0,0,0,0,3.122h7.1a8.325,8.325,0,0,1,8.175,6.82H14.053a.872.872,0,0,1-.87-.87v-5.95H24.694a1.561,1.561,0,0,0,0-3.122H13.183V12.371a.094.094,0,0,1,.1-.1H25.789a1.561,1.561,0,1,0,0-3.122H13.278a3.22,3.22,0,0,0-3.217,3.217v.71H3.508A3.51,3.51,0,0,0,0,16.589V71.072a9.616,9.616,0,0,0,9.607,9.6H86.833a9.615,9.615,0,0,0,9.6-9.6V16.589A3.509,3.509,0,0,0,92.932,13.081ZM58.2,63.667H83.463v5.95a.872.872,0,0,1-.87.87H50.021A8.326,8.326,0,0,1,58.2,63.667Z" transform="translate(0 25.782)" fill="#fff"/>
    <path id="Path_132187" data-name="Path 132187" d="M8.249,21.911a1.563,1.563,0,0,0,1.7-1.408A19.207,19.207,0,1,1,44.779,33.384l-.038.053L34.748,49a1.567,1.567,0,0,0-.248.843v2.023a.745.745,0,0,1-.744.744h-.1l1-16.881h1.779a4.624,4.624,0,0,0,4.618-4.618v-.187a4.616,4.616,0,0,0-9.225-.271l-.114,1.954H26.23l-.115-1.954a4.616,4.616,0,0,0-9.225.271v.187A4.621,4.621,0,0,0,21.5,35.728h1.779l1,16.87a.744.744,0,0,1-.637-.733V49.842A1.567,1.567,0,0,0,23.394,49l-10-15.56-.034-.053a18.986,18.986,0,0,1-3.008-6.733,1.562,1.562,0,0,0-3.046.7,22.128,22.128,0,0,0,3.481,7.805L20.516,50.3v1.565A3.87,3.87,0,0,0,22.825,55.4V58.04a5.043,5.043,0,0,0,5.038,5.038h2.416a5.046,5.046,0,0,0,5.042-5.038V55.4a3.873,3.873,0,0,0,2.305-3.534V50.3l9.729-15.144A22.331,22.331,0,1,0,6.841,20.209,1.563,1.563,0,0,0,8.249,21.911Zm26.69,8.923a1.492,1.492,0,0,1,2.981.088v.187A1.492,1.492,0,0,1,36.428,32.6h-1.6ZM21.5,32.6a1.492,1.492,0,0,1-1.492-1.492v-.187A1.494,1.494,0,0,1,23,30.835l.1,1.767ZM31.52,35.728l-.992,16.881H27.409l-1-16.881ZM32.2,58.04a1.917,1.917,0,0,1-1.916,1.916H27.863a1.917,1.917,0,0,1-1.916-1.916V55.731H32.2Z" transform="translate(19.25 -0.001)" fill="#fff"/>
    <path id="Path_132188" data-name="Path 132188" d="M20.981,7.62a1.545,1.545,0,0,0,1.03-.389l3.4-2.992A1.559,1.559,0,1,0,23.359,1.9L19.951,4.884a1.561,1.561,0,0,0,1.03,2.737Z" transform="translate(54.695 4.237)" fill="#fff"/>
    <path id="Path_132189" data-name="Path 132189" d="M19.951,7.593l3.408,2.992A1.562,1.562,0,0,0,25.42,8.238L22.011,5.246a1.562,1.562,0,0,0-2.061,2.347Z" transform="translate(54.695 13.683)" fill="#fff"/>
    <path id="Path_132190" data-name="Path 132190" d="M4.724,4.239,8.132,7.231a1.562,1.562,0,0,0,2.061-2.347L6.785,1.892A1.562,1.562,0,1,0,4.724,4.239" transform="translate(11.806 4.236)" fill="#fff"/>
    <path id="Path_132191" data-name="Path 132191" d="M5.754,10.974a1.564,1.564,0,0,0,1.03-.389l3.408-2.992A1.562,1.562,0,0,0,8.132,5.245L4.724,8.237a1.561,1.561,0,0,0,1.03,2.737" transform="translate(11.806 13.68)" fill="#fff"/>
    <path id="Path_132192" data-name="Path 132192" d="M22.7,15.345a1.56,1.56,0,0,0-1.561-1.561H5.753a1.561,1.561,0,1,0,0,3.122H21.138A1.56,1.56,0,0,0,22.7,15.345" transform="translate(11.808 38.823)" fill="#fff"/>
    <path id="Path_132193" data-name="Path 132193" d="M23.812,15.865H6.492a1.561,1.561,0,0,0,0,3.122h17.32a1.561,1.561,0,0,0,0-3.122" transform="translate(13.889 44.685)" fill="#fff"/>
    <path id="Path_132194" data-name="Path 132194" d="M23.812,17.858H6.492a1.561,1.561,0,1,0,0,3.122h17.32a1.561,1.561,0,0,0,0-3.122" transform="translate(13.889 50.298)" fill="#fff"/>
    <path id="Path_132195" data-name="Path 132195" d="M23.812,19.852H6.492a1.561,1.561,0,1,0,0,3.122h17.32a1.561,1.561,0,0,0,0-3.122" transform="translate(13.889 55.915)" fill="#fff"/>
    <path id="Path_132196" data-name="Path 132196" d="M34.788,15.345a1.56,1.56,0,0,0-1.561-1.561H17.842a1.561,1.561,0,1,0,0,3.122H33.227a1.56,1.56,0,0,0,1.561-1.561" transform="translate(45.857 38.823)" fill="#fff"/>
    <path id="Path_132197" data-name="Path 132197" d="M33.915,15.865H16.6a1.561,1.561,0,0,0,0,3.122h17.32a1.561,1.561,0,0,0,0-3.122" transform="translate(42.346 44.685)" fill="#fff"/>
    <path id="Path_132198" data-name="Path 132198" d="M33.915,17.858H16.6a1.561,1.561,0,0,0,0,3.122h17.32a1.561,1.561,0,0,0,0-3.122" transform="translate(42.346 50.298)" fill="#fff"/>
    <path id="Path_132199" data-name="Path 132199" d="M33.915,19.852H16.6a1.561,1.561,0,0,0,0,3.122h17.32a1.561,1.561,0,0,0,0-3.122" transform="translate(42.346 55.915)" fill="#fff"/>
  </g>
</svg>
