<svg id="field-icon1" xmlns="http://www.w3.org/2000/svg" width="120.048" height="120.062" viewBox="0 0 120.048 120.062">
  <path id="Path_132155" data-name="Path 132155" d="M14.555,26.664H33.118a2.936,2.936,0,0,0,2.934-2.929V5.087a2.936,2.936,0,0,0-2.934-2.929H14.555a2.931,2.931,0,0,0-2.929,2.929V9.5a1.758,1.758,0,1,0,3.515,0V5.673H32.532V23.149H15.141V17.961a1.758,1.758,0,1,0-3.515,0v5.774a2.931,2.931,0,0,0,2.929,2.929" transform="translate(46.094 8.556)" fill="#fff"/>
  <path id="Path_132156" data-name="Path 132156" d="M7.023,9.329h23.96a1.758,1.758,0,1,0,0-3.515H7.023a1.758,1.758,0,1,0,0,3.515" transform="translate(20.874 23.051)" fill="#fff"/>
  <path id="Path_132157" data-name="Path 132157" d="M35.809,10.566a1.758,1.758,0,0,0-1.758-1.758H9.874a1.758,1.758,0,1,0,0,3.515H34.052a1.758,1.758,0,0,0,1.758-1.758" transform="translate(32.178 34.921)" fill="#fff"/>
  <path id="Path_132158" data-name="Path 132158" d="M7.023,7.787h23.96a1.758,1.758,0,1,0,0-3.515H7.023a1.758,1.758,0,1,0,0,3.515" transform="translate(20.874 16.937)" fill="#fff"/>
  <path id="Path_132159" data-name="Path 132159" d="M7.023,6.246h23.96a1.758,1.758,0,1,0,0-3.515H7.023a1.758,1.758,0,1,0,0,3.515" transform="translate(20.874 10.828)" fill="#fff"/>
  <path id="Path_132160" data-name="Path 132160" d="M7.023,16.243H43.1a1.758,1.758,0,1,0,0-3.515H7.023a1.758,1.758,0,1,0,0,3.515Z" transform="translate(20.874 50.463)" fill="#fff"/>
  <path id="Path_132161" data-name="Path 132161" d="M7.023,14.261H35.555a1.758,1.758,0,1,0,0-3.515H7.023a1.758,1.758,0,1,0,0,3.515" transform="translate(20.874 42.605)" fill="#fff"/>
  <path id="Path_132162" data-name="Path 132162" d="M30.753,10.746H14.309a1.758,1.758,0,1,0,0,3.515H30.753a1.758,1.758,0,0,0,0-3.515" transform="translate(49.745 42.605)" fill="#fff"/>
  <path id="Path_132163" data-name="Path 132163" d="M118.007,108.792l-.065-.065L107.119,99.1a22.917,22.917,0,0,0,2.815-10.247,1.759,1.759,0,0,0-3.515-.124,19.469,19.469,0,1,1-1.112-7.268,1.759,1.759,0,1,0,3.316-1.177A23.02,23.02,0,0,0,89.767,65.172V2.934A2.932,2.932,0,0,0,86.838,0h-65.4a2.936,2.936,0,0,0-2.929,2.934v6.36H12.188a2.936,2.936,0,0,0-2.934,2.929v6.365H2.929A2.935,2.935,0,0,0,0,21.517v87.737a2.931,2.931,0,0,0,2.929,2.929h56a2.931,2.931,0,0,0,2.929-2.929v-6.36H69.5a22.907,22.907,0,0,0,28.378,5.4l10.9,9.766a6.544,6.544,0,1,0,9.229-9.269ZM22.029,3.52H86.252v61.5a22.98,22.98,0,0,0-18.33,10.2H60.783a1.758,1.758,0,1,0,0,3.515h5.208c-.233.536-.452,1.082-.65,1.643a23.072,23.072,0,0,0-1.3,7.646c0,.7.035,1.385.094,2.065H39.673A12.682,12.682,0,0,0,43.6,80.91v-2.18h9.567a1.758,1.758,0,1,0,0-3.515H41.833a1.761,1.761,0,0,0-1.758,1.758V80.91a9.163,9.163,0,0,1-9.13,9.175H22.029ZM12.774,99.374V75.335a1.76,1.76,0,0,0-3.52,0V99.96a2.937,2.937,0,0,0,2.934,2.934H58.346v5.774H3.515V22.1H9.254V67.9a1.76,1.76,0,0,0,3.52,0V12.814h5.739V91.843A1.754,1.754,0,0,0,20.271,93.6H64.73a23.062,23.062,0,0,0,2.309,5.774ZM115.7,115.708a3.2,3.2,0,0,1-4.538-.233l-10.227-9.16a23.479,23.479,0,0,0,4.245-4.235l10.391,9.244A3.119,3.119,0,0,1,115.7,115.708Z" fill="#fff"/>
  <path id="Path_132164" data-name="Path 132164" d="M29.5,14.7A15.033,15.033,0,1,0,44.492,29.735,15.085,15.085,0,0,0,29.5,14.7m0,26.546A11.516,11.516,0,1,1,40.972,29.735,11.506,11.506,0,0,1,29.5,41.248" transform="translate(57.503 58.284)" fill="#fff"/>
</svg>
