<svg xmlns="http://www.w3.org/2000/svg" width="109.637" height="109.641" viewBox="0 0 109.637 109.641">
  <g id="field-icon3" transform="translate(0 -0.001)">
    <path id="Path_132174" data-name="Path 132174" d="M10.787,7.526H39.052a2.142,2.142,0,1,0,0-4.284H10.787a2.142,2.142,0,0,0,0,4.284" transform="translate(25.617 9.605)" fill="#fff"/>
    <path id="Path_132175" data-name="Path 132175" d="M31.85,5.476H13.218a2.142,2.142,0,0,0,0,4.284H31.85a2.142,2.142,0,0,0,0-4.284" transform="translate(32.819 16.224)" fill="#fff"/>
    <path id="Path_132176" data-name="Path 132176" d="M29.2,16.645H10.786a2.142,2.142,0,0,0,0,4.284H29.2a2.142,2.142,0,0,0,0-4.284" transform="translate(25.614 49.313)" fill="#fff"/>
    <path id="Path_132177" data-name="Path 132177" d="M39.055,7.71H10.79a2.142,2.142,0,1,0,0,4.284H39.055a2.142,2.142,0,0,0,0-4.284" transform="translate(25.614 22.842)" fill="#fff"/>
    <path id="Path_132178" data-name="Path 132178" d="M10.79,9.76A2.142,2.142,0,1,0,8.646,7.62,2.141,2.141,0,0,0,10.79,9.76" transform="translate(25.614 16.224)" fill="#fff"/>
    <path id="Path_132179" data-name="Path 132179" d="M10.787,14.227H29.2a2.142,2.142,0,0,0,0-4.284H10.787a2.142,2.142,0,0,0,0,4.284" transform="translate(25.617 29.458)" fill="#fff"/>
    <path id="Path_132180" data-name="Path 132180" d="M39.055,12.177H10.79a2.142,2.142,0,1,0,0,4.284H39.055a2.142,2.142,0,0,0,0-4.284" transform="translate(25.614 36.076)" fill="#fff"/>
    <path id="Path_132181" data-name="Path 132181" d="M39.055,14.411H10.79a2.142,2.142,0,1,0,0,4.284H39.055a2.142,2.142,0,0,0,0-4.284" transform="translate(25.614 42.695)" fill="#fff"/>
    <path id="Path_132182" data-name="Path 132182" d="M86.083,62.53c-.721,0-1.434.036-2.14.1V10.707a10.653,10.653,0,0,0-3.174-7.6A10.573,10.573,0,0,0,73.284,0H10.707A10.718,10.718,0,0,0,0,10.707V14.99a2.141,2.141,0,0,0,2.14,2.14H17.13V90.081a10.718,10.718,0,0,0,10.707,10.707H67.7A23.549,23.549,0,1,0,86.083,62.53M17.13,12.847H4.28v-2.14A6.432,6.432,0,0,1,10.7,4.284h.008a6.431,6.431,0,0,1,6.419,6.423ZM34.26,90.081a6.423,6.423,0,1,1-12.847,0V10.707a10.649,10.649,0,0,0-2.148-6.423H73.225a6.433,6.433,0,0,1,6.435,6.423V63.421a23.663,23.663,0,0,0-14.313,11.5,2.13,2.13,0,0,0-.678-.111H36.4a2.142,2.142,0,0,0,0,4.284H63.588a23.539,23.539,0,0,0-.935,4.569H36.4a2.138,2.138,0,0,0-2.14,2.14ZM36.4,96.5a10.648,10.648,0,0,0,2.148-6.423v-2.14H62.6A23.366,23.366,0,0,0,64.963,96.5Zm49.687,8.852a19.272,19.272,0,1,1,19.274-19.274,19.3,19.3,0,0,1-19.274,19.274" transform="translate(0 0.001)" fill="#fff"/>
    <path id="Path_132183" data-name="Path 132183" d="M45.046,20.663a6.429,6.429,0,0,0-9.082,0l-5.912,5.908-1-1a6.424,6.424,0,0,0-9.086,9.082L25.511,40.2a6.429,6.429,0,0,0,9.082,0L45.046,29.745a6.419,6.419,0,0,0,0-9.082Zm-3.027,6.055L31.566,37.171a2.148,2.148,0,0,1-3.027,0l-5.548-5.548A2.14,2.14,0,0,1,24.5,27.97a2.121,2.121,0,0,1,1.514.626l2.52,2.52a2.141,2.141,0,0,0,3.027,0l7.426-7.426a2.141,2.141,0,0,1,3.027,3.027Z" transform="translate(53.578 55.653)" fill="#fff"/>
  </g>
</svg>
