<?xml version="1.0" encoding="utf-8"?>
<!-- Generator: Adobe Illustrator 27.7.0, SVG Export Plug-In . SVG Version: 6.00 Build 0)  -->
<svg version="1.1" id="Layer_1" xmlns="http://www.w3.org/2000/svg" xmlns:xlink="http://www.w3.org/1999/xlink" x="0px" y="0px"
	 viewBox="0 0 366 156" style="enable-background:new 0 0 366 156;" xml:space="preserve">
<style type="text/css">
	.st0{fill:#048DC4;}
	.st1{fill:#FFFFFF;}
</style>
<path class="st0" d="M312.2,94.1c0,14.9-12.2,27-27.2,27c-15,0-27.2-12.1-27.2-27V46c9.5-2.2,18.6-5.4,27.2-9.5
	c8.6,4.1,17.7,7.3,27.2,9.5L312.2,94.1L312.2,94.1z M42.9,27v108.4h241.9l0,0c0.1,0,0.2,0,0.2,0c22.9,0,41.5-18.5,41.5-41.3V27H42.9
	z"/>
<path class="st1" d="M291.1,47.7c0,0-2.2,0.5-3.9,2.2c5-1.2,10.2,2,10.2,2s-4.1-1.2-8.4,0.4c6.3,1.4,8.4,6.9,8.4,6.9
	s-3.9-3.7-8.9-4.3c2.7,2.5,2.9,7.2,2.9,7.2s-2-4.3-5.3-6c0,1.1,0,2.4,0,3.8c0,4.5,0.1,8.5,0.3,11.7c0.7-0.3,1.3-0.3,1.3-0.3
	s-0.6,0.5-1.1,1.3c1.2-0.2,2.2,0,2.2,0s0,0,0,0.1c-1.1,0.5-2.3,1-3.5,1.7c-1.3-0.7-2.6-1.3-3.9-1.8c0,0,0-0.1,0-0.1s1.1-0.2,2.4,0.1
	c-0.5-0.8-1.1-1.2-1.1-1.2s0.6,0,1.4,0.4c0.2-3.2,0.3-7.3,0.3-11.8c0-1.5,0-2.7,0-3.8c-3.4,1.6-5.3,6-5.3,6s0.2-4.6,2.9-7.2
	c-5,0.6-8.9,4.3-8.9,4.3s2.1-5.5,8.4-6.9c-4.3-1.6-8.4-0.4-8.4-0.4s5.2-3.2,10.2-2c-1.7-1.7-3.9-2.2-3.9-2.2s2.7-0.4,4.9,0.5
	c0.3-1.3,0.7-2.8,1.1-3.4c0.3,0.6,0.8,2.1,1.1,3.4C288.3,47.3,291.1,47.7,291.1,47.7 M301.5,73.5c-2.6,0.1-6.9,0.5-14,5.3
	c-0.2,0.2-0.5,0.4-0.8,0.5c1.1,0.8,2,1.4,2.8,1.9c0.5-0.4,1-0.5,1.2-0.4c0.1,0.1,0.1,0.1,0.1,0.2c0,0.2-0.1,0.5-0.3,0.8
	c1.3,0.9,2,1.3,2.2,1.5c0.2-0.3,0.6-0.5,1.1-0.5c0.7,0,1.2,0.5,1.2,1c0,0.4-0.2,0.7-0.6,0.9c-0.2,0.1-0.5,0.2-0.8,0.2
	c-1.3,0-2.9-1-4.2-1.8c-0.4,0.3-0.9,0.5-1.1,0.5c-0.1,0-0.2,0-0.2-0.1c-0.1-0.1-0.1-0.1-0.1-0.2c0-0.2,0.1-0.6,0.4-1
	c-0.1-0.1-0.2-0.1-0.3-0.2h0c-0.8-0.5-1.7-1.1-2.9-1.8c-1.1,0.7-2.1,1.3-2.9,1.8h0c-0.1,0.1-0.2,0.1-0.3,0.2c0.2,0.4,0.4,0.7,0.4,1
	c0,0.1-0.1,0.2-0.1,0.2c-0.1,0-0.1,0.1-0.2,0.1c-0.3,0-0.7-0.2-1.1-0.5c-1.3,0.9-2.9,1.8-4.2,1.8c-0.3,0-0.6-0.1-0.8-0.2
	c-0.4-0.2-0.6-0.5-0.6-0.9c0-0.6,0.5-1,1.2-1c0.5,0,0.9,0.2,1.1,0.5c0.3-0.2,0.9-0.6,2.2-1.5c-0.2-0.3-0.3-0.6-0.3-0.8
	c0-0.1,0.1-0.2,0.1-0.2c0.2-0.1,0.7,0,1.2,0.4c0.7-0.5,1.7-1.1,2.8-1.9c-0.2-0.2-0.5-0.4-0.8-0.5c-7.1-4.8-11.4-5.2-14-5.3
	c0,0,7.2-1.7,15.9,4.3c0.2,0.1,0.4,0.2,0.5,0.4c0.2-0.1,0.4-0.2,0.5-0.4C294.3,71.8,301.5,73.5,301.5,73.5 M296.6,108.9
	c0,0-1.6-0.1-4.6-1.1c-2.8-0.9-5.4-0.2-6.9,1.5c-1.5-1.7-4.1-2.4-6.9-1.5c-3,1-4.6,1.1-4.6,1.1l-3.2-14.8c1.2,0.1,3.4,0.4,7.1-1.3
	c2.5-1.1,4.5-0.9,5.5-0.5c1,0.4,1.8,2.2,2.2,4.1c0,0,0,0,0,0.4c0-0.4,0-0.4,0-0.4c0.4-1.9,1.2-3.7,2.2-4.1s3-0.6,5.5,0.5
	c3.6,1.7,5.9,1.4,7.1,1.3L296.6,108.9z M257.8,46v48.1c0,14.9,12.2,27,27.2,27c15,0,27.2-12.1,27.2-27V46
	c-9.5-2.2-18.6-5.4-27.2-9.5C276.4,40.6,267.3,43.8,257.8,46"/>
<path class="st0" d="M272.7,51.8c0,0,4.1-1.2,8.4,0.4c-6.3,1.4-8.4,6.9-8.4,6.9s3.9-3.7,8.9-4.3c-2.7,2.5-2.9,7.2-2.9,7.2
	s2-4.3,5.3-6c0,1.1,0,2.4,0,3.8c0,4.5-0.1,8.6-0.3,11.8c-0.7-0.3-1.4-0.4-1.4-0.4s0.6,0.5,1.1,1.2c-1.2-0.3-2.4-0.1-2.4-0.1
	s0,0,0,0.1c1.2,0.5,2.6,1.1,3.9,1.8c1.2-0.7,2.4-1.2,3.5-1.7c0,0,0-0.1,0-0.1s-1-0.2-2.2,0c0.5-0.8,1.1-1.3,1.1-1.3s-0.6,0-1.3,0.3
	c-0.2-3.2-0.3-7.2-0.3-11.7c0-1.5,0-2.7,0-3.8c3.3,1.6,5.3,6,5.3,6s-0.2-4.6-2.9-7.2c5,0.6,8.9,4.3,8.9,4.3s-2.1-5.5-8.4-6.9
	c4.3-1.6,8.4-0.4,8.4-0.4s-5.1-3.2-10.2-2c1.7-1.7,3.9-2.2,3.9-2.2s-2.8-0.4-4.9,0.5c-0.3-1.3-0.7-2.8-1.1-3.4
	c-0.3,0.6-0.8,2.1-1.1,3.4c-2.2-0.9-4.9-0.5-4.9-0.5s2.2,0.5,3.9,2.2C277.9,48.6,272.7,51.8,272.7,51.8"/>
<path class="st0" d="M293.8,82.9c-0.5,0-0.9,0.2-1.1,0.5c-0.3-0.2-0.9-0.6-2.2-1.5c0.2-0.3,0.3-0.6,0.3-0.8c0-0.1-0.1-0.2-0.1-0.2
	c-0.2-0.1-0.7,0-1.2,0.4c-0.7-0.5-1.7-1.1-2.8-1.9c0.2-0.2,0.5-0.4,0.8-0.5c7.1-4.8,11.4-5.2,14-5.3c0,0-7.2-1.7-15.9,4.3
	c-0.2,0.1-0.4,0.2-0.5,0.4c-0.2-0.1-0.4-0.2-0.5-0.4c-8.8-6-15.9-4.3-15.9-4.3c2.6,0.1,6.9,0.5,14,5.3c0.2,0.2,0.5,0.4,0.8,0.5
	c-1.1,0.8-2,1.4-2.8,1.9c-0.5-0.4-1-0.5-1.2-0.4c-0.1,0.1-0.1,0.1-0.1,0.2c0,0.2,0.1,0.5,0.3,0.8c-1.3,0.9-2,1.3-2.2,1.5
	c-0.2-0.3-0.6-0.5-1.1-0.5c-0.7,0-1.2,0.5-1.2,1c0,0.4,0.2,0.7,0.6,0.9c0.2,0.1,0.5,0.2,0.8,0.2c1.3,0,2.9-1,4.2-1.8
	c0.4,0.3,0.9,0.5,1.1,0.5c0.1,0,0.2,0,0.2-0.1c0.1-0.1,0.1-0.1,0.1-0.2c0-0.2-0.1-0.6-0.4-1c0.1-0.1,0.2-0.1,0.3-0.2h0
	c0.8-0.5,1.7-1.1,2.9-1.8c1.1,0.7,2.1,1.3,2.9,1.8h0c0.1,0.1,0.2,0.1,0.3,0.2c-0.2,0.4-0.4,0.7-0.4,1c0,0.1,0.1,0.2,0.1,0.2
	c0.1,0,0.1,0.1,0.2,0.1c0.3,0,0.7-0.2,1.1-0.5c1.3,0.9,2.9,1.8,4.2,1.8c0.3,0,0.6-0.1,0.8-0.2c0.4-0.2,0.6-0.5,0.6-0.9
	C295,83.4,294.5,82.9,293.8,82.9"/>
<path class="st1" d="M282,101.1c-0.6,0-1-0.3-1-1c0-0.7,0.2-1.2,1-1.2c0.7,0,1.1,0.5,1.1,1.8C282.9,101,282.5,101.1,282,101.1
	 M282.1,98.1c-1.4,0-2.3,0.9-2.3,2.1c0,1.2,0.8,1.8,2,1.8c0.5,0,1-0.1,1.4-0.4c-0.1,1.1-0.5,1.7-1.6,1.7c-0.5,0-0.8-0.1-1-0.3h-0.5
	v1c0.4,0.1,0.8,0.2,1.4,0.2c2,0,3.1-1.2,3.1-3.3C284.5,99.1,283.5,98.1,282.1,98.1"/>
<polygon class="st1" points="276.3,99.1 276.3,100 276.7,100 277.4,99.6 277.4,104.3 278.8,104.3 278.8,98.2 277.9,98.2 "/>
<path class="st1" d="M287.4,100.4c-0.5,0-0.9,0.1-1.1,0.3h0v-1.4h2.7v-1.1h-3.7v3.6h0.8c0.2-0.2,0.4-0.4,1-0.4c0.5,0,0.9,0.3,0.9,1
	c0,0.7-0.5,1.1-1.2,1.1c-0.6,0-1-0.2-1.2-0.4H285v1c0.4,0.2,0.9,0.4,1.7,0.4c1.5,0,2.6-0.8,2.6-2.1
	C289.3,101,288.4,100.4,287.4,100.4"/>
<polygon class="st1" points="289.5,99.2 292.7,99.2 292.7,99.3 290.2,103.8 290.2,104.3 291.5,104.3 293.6,99.3 293.6,98.2 
	289.5,98.2 "/>
<path class="st0" d="M282.1,99c-0.7,0-1,0.5-1,1.2c0,0.6,0.4,1,1,1c0.4,0,0.9-0.1,1.1-0.3C283.1,99.5,282.8,99,282.1,99"/>
<path class="st0" d="M293.6,99.3l-2.1,5h-1.3v-0.5l2.4-4.5v0h-3.2v-1.1h4.1L293.6,99.3L293.6,99.3L293.6,99.3z M286.7,104.4
	c-0.8,0-1.3-0.2-1.7-0.4v-1h0.5c0.2,0.2,0.6,0.4,1.2,0.4c0.7,0,1.2-0.4,1.2-1.1s-0.4-1-0.9-1c-0.5,0-0.8,0.2-1,0.4h-0.8v-3.6h3.7
	v1.1h-2.7v1.4h0c0.2-0.1,0.6-0.3,1.1-0.3c1.1,0,1.9,0.6,1.9,1.9C289.3,103.6,288.2,104.4,286.7,104.4 M281.4,104.4
	c-0.6,0-1-0.1-1.4-0.2v-1h0.5c0.1,0.1,0.5,0.3,1,0.3c1.2,0,1.5-0.6,1.6-1.7c-0.4,0.3-0.9,0.4-1.4,0.4c-1.2,0-2-0.7-2-1.8
	c0-1.2,0.9-2.1,2.3-2.1s2.4,1,2.4,3C284.5,103.2,283.4,104.4,281.4,104.4 M278.8,104.3h-1.4v-4.7l-0.7,0.4h-0.4v-0.9l1.5-0.9h0.9
	L278.8,104.3L278.8,104.3z M292.7,92.8c-2.5-1.1-4.5-0.9-5.5-0.5c-1,0.4-1.8,2.2-2.2,4.1c0,0,0,0,0,0.4c0-0.4,0-0.4,0-0.4
	c-0.4-1.9-1.2-3.7-2.2-4.1s-3-0.6-5.5,0.5c-3.6,1.7-5.8,1.4-7.1,1.3l3.2,14.8c0,0,1.6-0.1,4.6-1.1c2.8-0.9,5.4-0.2,6.9,1.5
	c1.5-1.7,4.1-2.4,6.9-1.5c3,1,4.6,1.1,4.6,1.1l3.2-14.8C298.5,94.2,296.3,94.5,292.7,92.8"/>
<path class="st1" d="M242.5,70.2H238v1.7h0.8c0.4,0,0.8,0.4,0.8,0.7v15.1h3.4V70.9C243,70.4,242.9,70.2,242.5,70.2"/>
<path class="st1" d="M180.8,74.4h-3.3V73c0-0.4,0.1-0.6,0.2-0.9c0.1-0.2,0.2-0.4,0.5-0.5c0.2-0.1,0.4-0.2,0.7-0.2c0.2,0,0.5,0,0.9,0
	h1v-1.5h-1.4c-1,0-1.8,0.2-2.5,0.7c-0.6,0.5-1,1.3-1,2.4v1.4h-2v1.5h7.1V74.4L180.8,74.4z"/>
<path class="st1" d="M221.3,81.4c-0.1,3-1.2,4.6-4.6,4.6c-2,0-3.2-0.8-4-1.6c0.3-0.6,0.5-1.2,0.7-1.8c0.3-1.5,0.4-2.8,0.4-2.8
	c0-2.1,1.3-3.8,3.5-3.8c2.2,0,3.7,1.2,4,3.8C221.2,79.8,221.3,80.7,221.3,81.4 M204.5,85.4c-0.6,0-1.1-0.1-1.4-0.3
	c-0.4-0.2-0.7-0.4-0.9-0.8c-0.2-0.3-0.4-0.7-0.5-1.1c-0.1-0.4-0.1-0.9-0.1-1.3v-6.3l0,0v-4.9c0-0.5-0.2-0.7-0.6-0.7h-4.5v1.7h0.8
	c0.4,0,0.8,0.4,0.8,0.7v7.2l0,0v3.9c0,0.7-0.1,1.2-0.3,1.5c-0.2,0.2-0.6,0.4-1.2,0.4h-4.4c-0.6,0-1-0.1-1.4-0.2
	c-0.4-0.2-0.7-0.4-0.9-0.7c-0.2-0.3-0.4-0.7-0.5-1.1c-0.1-0.4-0.1-0.9-0.1-1.4v-7.7v-3.5c0-0.5-0.2-0.7-0.6-0.7h-4.4v1.7h0.8
	c0.4,0,0.8,0.4,0.8,0.7v7.2l0,0v3.9c0,0.7-0.1,1.2-0.3,1.5c-0.2,0.2-0.6,0.4-1.2,0.4h-12c-1.3,0-1.7,0-1.7,0
	c-3.2-0.1-4.9-1.4-4.9-3.6c0-1.6,0.8-2.3,1.5-2.8v-1.2h-1.9c-0.6,0.7-1.3,2.1-1.3,4c0,3.8,2.5,5.7,6.6,5.7c0.1,0,1.1,0,1.1,0h12.7
	c0,0,1.5-0.1,2-0.2c0.9-0.2,1.5-0.6,1.9-1.1c0.4-0.5,0.6-1.1,0.7-1.9c0.2,0.9,0.6,1.7,1.3,2.3c0.6,0.6,1.5,0.9,2.6,0.9h4.1
	c0.8,0,1.4-0.1,1.9-0.2c0.5-0.1,0.9-0.4,1.3-0.6s0.6-0.6,0.8-1c0.2-0.4,0.3-0.8,0.4-1.3c0.2,0.9,0.6,1.7,1.3,2.3
	c0.6,0.5,1.3,0.8,2.3,0.9l0,0h1.7c2.1,0,3.7-0.6,4.7-1.5c1.1,0.7,2.8,1.7,5.6,1.7c3.4,0,5.7-1.2,6.8-3.3c0.2,0.9,0.6,1.6,1.2,2.2
	c0.6,0.5,1.3,0.9,2.3,0.9c0.1,0,0.1,0,0.2,0h0.1h7.4V76.3v-5.5c0-0.5-0.2-0.7-0.6-0.7h-4.5v1.7h0.8c0.4,0,0.8,0.4,0.8,0.7v3.8v9
	h-4.1h-0.6c-1.1,0-1.9-0.3-2.4-1c-0.1-0.2-0.3-0.5-0.4-0.7c0.3-0.8,0.4-1.6,0.4-2.6c0-4.2-2.9-6.8-7.3-6.8c-4.2,0-6.5,2.5-6.5,6.3
	l0,0.9c0,4-3.3,4-5.2,4L204.5,85.4z"/>
<path class="st1" d="M87,74.4c-2.4,0-4,0.3-5,0.7v2.8h2c0.2-1.3,1.3-1.7,3.1-1.7c2.7,0,4.4,1.7,4.4,5v4.1H80.5v2.2h14.3v-6.3
	C94.7,77,91.7,74.4,87,74.4"/>
<path class="st1" d="M117.4,79.9c0.1-0.7,0.7-1.2,1.6-1.8c1.1-0.6,2.6-0.9,4.3-0.9s3.1,0.3,4.3,0.9c0.9,0.5,1.4,1.1,1.5,1.8
	l-5.8,4.9C120.6,82.7,118.7,81,117.4,79.9 M101.2,83.8c-0.1-0.5-0.2-1.1-0.2-1.7c0-0.9,0.1-1.6,0.4-2.1c0.3-0.6,0.6-1,1-1.3
	c0.4-0.4,0.9-0.6,1.3-0.7c0.5-0.1,0.9-0.2,1.3-0.2h2.1v7.7h-5.4C101.5,84.9,101.3,84.4,101.2,83.8 M136.7,87.6
	c0.7,0,1.4-0.1,1.9-0.2c0.5-0.1,1-0.4,1.3-0.6s0.6-0.6,0.8-1c0.2-0.4,0.3-0.8,0.4-1.3c0.2,0.9,0.6,1.7,1.3,2.3
	c0.6,0.6,1.5,0.9,2.6,0.9h0.3c1.5,0,2.6-0.3,3.2-0.9c0.6-0.6,1-1.3,1.2-2.3c0.2,0.9,0.6,1.7,1.3,2.3c0.6,0.6,1.5,0.9,2.6,0.9h4.9
	v-6.3v-5.6h-3.1h-1.9v1.7h1.1c0.4,0,0.8,0.4,0.8,0.7v3.3l0,0v4.2h-2.7c-0.6,0-1-0.1-1.4-0.2s-0.7-0.4-0.9-0.7
	c-0.2-0.3-0.4-0.7-0.5-1.1c-0.1-0.4-0.1-0.8-0.1-1.2v-4.8h-5v1.7h1.1c0.4,0,0.7,0.3,0.7,0.6v3.9c0,0.7-0.1,1.2-0.3,1.4
	c-0.2,0.2-0.9,0.4-1.5,0.4h-0.6c-0.6,0-1-0.1-1.4-0.2c-0.4-0.2-0.7-0.4-0.9-0.7c-0.2-0.3-0.4-0.7-0.5-1.1c-0.1-0.4-0.1-0.9-0.1-1.4
	v-2.9l0,0l0,0h-5v1.7h1.1c0.4,0,0.8,0.4,0.8,0.7v1.8v0.4c0,0.7-0.1,1.2-0.3,1.4c-0.2,0.2-0.6,0.4-1.2,0.4h-8.8c-0.5,0-0.9,0-1.4-0.1
	c3.5-2.9,5.5-4.5,5.8-4.8c0-1.4-0.8-2.7-2.5-3.9c-1.8-1.2-3.9-1.8-6.3-1.8c-2.4,0-4.6,0.6-6.3,1.7c-1.7,1.2-2.6,2.5-2.6,3.9
	c3,2.6,4.9,4.1,5.7,4.8c-0.4,0.1-0.9,0.1-1.3,0.1h-8.2v-9.8h-5.3c-1,0-2,0.2-2.9,0.5c-0.9,0.3-1.8,0.8-2.4,1.4
	c-0.7,0.6-1.3,1.3-1.7,2.2c-0.4,0.9-0.6,1.8-0.6,2.9c0,0.8,0.1,1.6,0.4,2.5c0.2,0.9,0.6,1.6,1,2.4h7.8c-1,1.2-1.8,2-3.3,2.4v1.5h2.6
	c1.2-0.6,2.6-2,3.8-3.9h9.6c0,0,2.1,0,3.9-1.2c1.5,0.9,3.1,1.2,4.1,1.2h9.4L136.7,87.6L136.7,87.6z"/>
<path class="st1" d="M91.6,44.4c0.5,0,0.9-0.1,1.3-0.5c0.3-0.3,0.5-0.7,0.5-1.1c0-0.4-0.2-0.8-0.5-1.1c-0.3-0.3-0.7-0.5-1.3-0.5
	c-0.5,0-0.9,0.1-1.2,0.5s-0.5,0.7-0.5,1.1c0,0.5,0.2,0.8,0.5,1.1C90.7,44.3,91.1,44.4,91.6,44.4"/>
<path class="st1" d="M86.6,44.4c0.5,0,0.9-0.1,1.2-0.5s0.5-0.7,0.5-1.1c0-0.4-0.2-0.8-0.5-1.1c-0.4-0.3-0.8-0.5-1.2-0.5
	c-0.5,0-0.9,0.1-1.2,0.5c-0.4,0.3-0.5,0.7-0.5,1.1c0,0.5,0.2,0.8,0.5,1.1C85.8,44.3,86.2,44.4,86.6,44.4"/>
<path class="st1" d="M234.7,62.6c-0.5,0-0.9,0.1-1.3,0.4c-0.3,0.3-0.5,0.7-0.5,1.1s0.2,0.8,0.5,1.1c0.3,0.3,0.7,0.5,1.3,0.5
	c0.5,0,0.9-0.1,1.2-0.5c0.4-0.3,0.5-0.6,0.5-1.1c0-0.5-0.2-0.8-0.5-1.1C235.6,62.7,235.2,62.6,234.7,62.6"/>
<path class="st1" d="M176.9,54.5c-0.1,3-1.2,4.6-4.6,4.6c-2,0-3.2-0.8-4-1.6c0.3-0.6,0.5-1.2,0.7-1.7c0.3-1.5,0.4-2.8,0.4-2.8
	c0-2.1,1.3-3.8,3.5-3.8c2.2,0,3.7,1.2,4,3.8C176.9,52.9,177,53.8,176.9,54.5 M124.7,53c0.1-0.6,0.7-1.2,1.6-1.8
	c1.1-0.6,2.5-0.9,4.2-0.9c1.7,0,3.1,0.3,4.3,0.9c0.9,0.5,1.4,1.1,1.5,1.8l-5.8,4.9C127.9,55.7,125.9,54.1,124.7,53 M88,59
	c-1.9,0-3.9-0.8-3.9-4.7c0-3.8,2.1-4.8,4.3-4.8c1.3,0,2.5,0.5,3.4,1.1v7C90.9,58.3,89.7,59,88,59 M91.8,60.3L91.8,60.3
	c0,0,0,0.1,0,0.1c0.1,0.1,0.2,0.2,0.5,0.2h34.1l0,0c0,0,2.1,0,3.9-1.2c1.5,0.9,3,1.2,4.1,1.2h27.8c2.1,0,3.7-0.6,4.7-1.5
	c1.2,0.7,2.8,1.7,5.5,1.7c5,0,7.6-2.6,7.6-6.7c0-4.1-2.9-6.8-7.2-6.8c-4.2,0-6.5,2.5-6.5,6.3l0,0.9c0,3.6-2.6,3.9-4.5,4l0,0h-27
	c-0.5,0-0.9,0-1.4-0.1c3.5-2.9,5.4-4.4,5.7-4.7c0-1.4-0.8-2.7-2.5-3.8c-1.8-1.2-3.9-1.8-6.3-1.8c-2.4,0-4.5,0.6-6.3,1.7
	c-1.7,1.1-2.6,2.4-2.6,3.9c3,2.6,4.9,4.1,5.7,4.7c-0.5,0.1-0.9,0.1-1.3,0.1H94.8V47.7H93c-0.4,0-1,0.5-1.2,1.5c-1-1-2.4-1.6-4.6-1.6
	c-3,0-6.4,1.8-6.4,6.8s3.2,6.3,6.2,6.3c2.1,0,3.8-0.8,4.7-1.7v1.2L91.8,60.3L91.8,60.3z"/>
<path class="st1" d="M243.5,58.5h-1.3c-0.2,0-0.5-0.2-0.6-0.5l-1.1-4.8c-1-3.2-3.7-4.9-5.2-5.2c-0.9-0.2-2.4-0.4-2.6-0.4
	c-0.1,0-0.2,0-0.4,0c-2.8,0-5.5,0.6-6.7,1.2l-0.3,0.1v2h1.5l0.1-0.1c0.6-0.5,2.9-1.2,5.1-1.2h0.3c2.6,0,4.7,1.6,5.4,3.9l1,5.1h-49.2
	V43.9c0-0.5-0.1-0.7-0.6-0.7h-4.5v1.7h0.8c0.4,0,0.8,0.4,0.8,0.7v15.1l0,0h57.3v-2.2H243.5z"/>
<path class="st1" d="M80.4,112.6h0.7c0.2,0,0.5-0.3,0.5-0.5v-8.4c0-0.2-0.2-0.6-0.5-0.6h-0.7V102H85v1.1h-1.4v5.2l4.1-4.3
	c0.5-0.5,0.4-0.9-0.2-0.9h-0.3V102h4.1v1.1h-0.5c-0.3,0-0.6,0.2-0.9,0.6l-3.2,3.2l3.6,5.3c0.2,0.3,0.5,0.5,0.7,0.5h0.5v1.1h-3v-1
	l-3-4.5l-1.7,1.7v2.8h1.4v1.1h-4.5v-1.1L80.4,112.6L80.4,112.6z"/>
<path class="st1" d="M93.6,103c0-0.6,0.5-1,1-1s1,0.5,1,1c0,0.6-0.5,1-1,1C94.1,104,93.6,103.5,93.6,103 M92.7,112.6h0.7
	c0.2,0,0.5-0.2,0.5-0.5v-5.6c0-0.2-0.2-0.5-0.4-0.5h-0.7v-1.1h2.7c0.2,0,0.3,0.2,0.3,0.8v6.5c0,0.2,0.2,0.5,0.5,0.5h0.7v1.1h-4
	L92.7,112.6L92.7,112.6z"/>
<path class="st1" d="M97.9,112.6h0.7c0.2,0,0.5-0.2,0.5-0.5v-5.6c0-0.2-0.2-0.5-0.5-0.5h-0.7v-1.1h2.6c0.2,0,0.4,0.2,0.4,1.1v0.2
	c0.9-0.8,2.1-1.4,3.5-1.4c1.2,0,2.3,0.5,2.3,2.2v5.2c0,0.2,0.2,0.5,0.4,0.5h0.6v1.1h-4v-1.1h1.2v-5c0-1.1-0.5-1.3-1.4-1.3
	c-1,0-1.8,0.4-2.6,0.9v5.5h1.2v1.1h-4.1L97.9,112.6L97.9,112.6L97.9,112.6z"/>
<path class="st1" d="M114.1,107.6c0-1-0.6-1.7-1.7-1.7c-1.1,0-1.7,0.6-1.7,1.7c0,1,0.6,1.7,1.7,1.7
	C113.5,109.3,114.1,108.7,114.1,107.6 M114.8,114c0-0.7-0.4-1-1.3-1h-2.9c-0.4,0.3-0.6,0.6-0.6,1.1c0,0.8,0.5,1.3,2.2,1.3
	C114,115.4,114.8,114.8,114.8,114 M108.3,114.5c0-1,0.7-1.6,1.5-2c-0.4-0.2-0.7-0.6-0.7-1.2c0-0.7,0.4-1.2,0.9-1.6
	c-0.6-0.5-1-1.2-1-2.1c0-1.7,1.3-2.8,3.4-2.8c0.4,0,0.7,0,1.1,0.1h3v1.1h-0.7c-0.2,0-0.4,0.1-0.4,0.3c0.2,0.4,0.4,0.8,0.4,1.3
	c0,1.6-1.3,2.7-3.4,2.7c-0.6,0-1.2-0.1-1.6-0.3c-0.1,0.2-0.2,0.5-0.2,0.7c0,0.4,0.3,0.6,0.8,0.6h2.5c1.7,0,2.7,0.7,2.7,2.2
	c0,1.7-1.2,3-4.5,3C109.3,116.6,108.3,115.7,108.3,114.5"/>
<path class="st1" d="M123,113.3c-0.1,0-0.2,0.2-0.2,0.4h-1.3v-3.4h1.3l0.2,1.4c0.6,0.6,1.2,0.9,2.4,0.9c1.3,0,2.2-0.6,2.2-1.9
	c0-1.6-1.2-1.8-2.9-2.2c-2.1-0.6-3.1-1.4-3.1-3.4c0-2.1,1.6-3.2,3.7-3.2c1.2,0,1.8,0.3,2.1,0.5c0.1,0,0.2-0.2,0.2-0.4h1.2v3.1h-1.3
	l-0.2-1.2c-0.4-0.4-1-0.8-2.1-0.8c-1.2,0-2.1,0.5-2.1,1.7c0,1.4,1.1,1.6,2.7,2.1c2.2,0.6,3.4,1.3,3.4,3.5c0,2.2-1.4,3.4-4,3.4
	C124.1,113.8,123.4,113.5,123,113.3"/>
<path class="st1" d="M136.3,111.7v-1.9c-0.5-0.1-1.1-0.2-1.6-0.2c-1.3,0-2.1,0.5-2.1,1.5c0,1.1,0.6,1.5,1.6,1.5
	C135.2,112.6,135.8,112.2,136.3,111.7 M130.8,111.2c0-1.8,1.5-2.7,3.5-2.7c0.8,0,1.4,0.1,2,0.2v-1.2c0-1.1-0.6-1.5-1.8-1.5
	c-1.2,0-1.8,0.4-2.3,0.8h-0.9v-1.4c0.7-0.4,1.8-0.7,3.4-0.7c2.1,0,3.3,0.6,3.3,2.6v4.7c0,0.3,0.2,0.5,0.5,0.5h0.5v0.9
	c-0.2,0.1-0.6,0.3-1.2,0.3c-1,0-1.5-0.4-1.6-1.2c-0.6,0.8-1.5,1.2-2.7,1.2C132,113.8,130.8,112.9,130.8,111.2"/>
<path class="st1" d="M140.8,111.6v-5.1c0-0.2-0.2-0.5-0.5-0.5h-0.6v-1.1h2.9v6.1c0,1.1,0.6,1.4,1.4,1.4c0.9,0,1.8-0.4,2.5-0.9v-5.6
	h-1.3v-1.1h3.1v7.2c0,0.2,0.2,0.5,0.5,0.5h0.7v1.1H147c-0.2,0-0.4-0.2-0.4-1v-0.2c-0.9,0.8-2,1.3-3.4,1.3
	C142,113.8,140.8,113.3,140.8,111.6"/>
<path class="st1" d="M157.1,111.5v-4.7c-0.6-0.4-1.2-0.7-2.1-0.7c-1.3,0-2.6,0.7-2.6,3.3c0,2.7,1.2,3.3,2.3,3.3
	C155.8,112.7,156.5,112.1,157.1,111.5 M150.5,109.4c0-3.3,2.1-4.6,3.9-4.6c1.3,0,2.1,0.5,2.7,1v-2.8h-1.3V102h2.8
	c0.2,0,0.4,0.2,0.4,0.5v9.7c0,0.2,0.2,0.5,0.5,0.5h0.6v1.1h-2.6c-0.2,0-0.3-0.2-0.4-1.2c-0.6,0.7-1.6,1.3-2.9,1.3
	C152.4,113.8,150.5,112.8,150.5,109.4"/>
<path class="st1" d="M164.7,109.5v-5.8c0-0.2-0.2-0.6-0.5-0.6h-0.7V102h4.6v1.1h-1.5v6.5c0,2.3,1.2,2.9,2.9,2.9
	c1.7,0,2.8-0.6,2.8-2.9v-6.5h-1.5V102h4.1v1.1h-0.7c-0.2,0-0.5,0.3-0.5,0.6v5.8c0,3-1.5,4.4-4.5,4.4
	C166.5,113.9,164.7,112.5,164.7,109.5"/>
<path class="st1" d="M175.6,112.7h0.7c0.2,0,0.5-0.2,0.5-0.5v-5.6c0-0.2-0.2-0.5-0.5-0.5h-0.7V105h2.6c0.2,0,0.4,0.2,0.4,1.1v0.2
	c0.9-0.8,2.1-1.4,3.5-1.4c1.3,0,2.3,0.5,2.3,2.2v5.2c0,0.2,0.2,0.5,0.4,0.5h0.6v1.1h-4v-1.1h1.2v-5c0-1.1-0.5-1.3-1.4-1.3
	c-1,0-1.8,0.4-2.6,0.9v5.5h1.2v1.1h-4.1L175.6,112.7L175.6,112.7L175.6,112.7z"/>
<path class="st1" d="M187.1,103c0-0.6,0.5-1,1-1c0.6,0,1,0.5,1,1c0,0.6-0.5,1-1,1C187.6,104.1,187.1,103.6,187.1,103 M186.2,112.7
	h0.7c0.2,0,0.5-0.2,0.5-0.5v-5.6c0-0.2-0.2-0.5-0.4-0.5h-0.7V105h2.7c0.2,0,0.3,0.2,0.3,0.8v6.5c0,0.2,0.2,0.5,0.5,0.5h0.6v1.1h-4
	L186.2,112.7L186.2,112.7z"/>
<path class="st1" d="M191.4,106.7c-0.1-0.3-0.4-0.5-0.6-0.5h-0.3V105h3.9v1.1h-1.2l2.2,5.9h0l1.9-4.9c0.2-0.6,0.2-1-0.5-1h-0.4V105
	h3.5v1.1h-0.3c-0.3,0-0.5,0.2-0.7,0.6l-2.9,7.1h-1.7L191.4,106.7z"/>
<path class="st1" d="M206.2,108.6c-0.1-1.8-0.8-2.6-2.1-2.6c-1.3,0-2.2,0.9-2.4,2.6H206.2z M199.8,109.4c0-2.8,1.7-4.5,4.3-4.5
	c2.5,0,3.9,1.3,3.9,4.2c0,0.2,0,0.5,0,0.6h-6.3c0.1,2.1,1,3,2.7,3c1.2,0,1.8-0.4,2.3-1h1v1.2c-0.7,0.5-1.7,0.9-3.4,0.9
	C201.4,113.9,199.8,112.2,199.8,109.4"/>
<path class="st1" d="M209.3,112.7h0.6c0.2,0,0.5-0.2,0.5-0.5v-5.6c0-0.2-0.2-0.5-0.5-0.5h-0.7V105h2.6c0.2,0,0.4,0.2,0.4,1.2v0.3
	c0.6-0.8,1.4-1.5,2.6-1.5c0.2,0,0.4,0,0.5,0.1v1.5h-0.4c-1.3,0-2.1,0.3-2.8,0.9v5.3h1.4v1.1h-4.3L209.3,112.7L209.3,112.7z"/>
<path class="st1" d="M216.2,113.4v-1.8h1.1c0.2,0.8,0.8,1.1,2,1.1c1.2,0,2-0.4,2-1.3c0-0.8-0.6-1.1-2.1-1.3
	c-1.8-0.2-2.8-0.9-2.8-2.6c0-1.6,1.2-2.6,3.4-2.6c1.4,0,2.2,0.2,2.9,0.4v1.7h-1.1c-0.2-0.6-0.7-1-1.9-1c-1.1,0-1.7,0.4-1.7,1.1
	c0,0.8,0.5,1,2,1.3c2,0.3,3,0.9,3,2.6c0,1.7-1.2,2.8-3.6,2.8C217.6,113.9,216.8,113.6,216.2,113.4"/>
<path class="st1" d="M224.8,103c0-0.6,0.5-1,1-1c0.6,0,1,0.5,1,1c0,0.6-0.5,1-1,1C225.2,104.1,224.8,103.6,224.8,103 M223.9,112.7
	h0.6c0.2,0,0.5-0.2,0.5-0.5v-5.6c0-0.2-0.2-0.5-0.4-0.5h-0.7V105h2.7c0.2,0,0.4,0.2,0.4,0.8v6.5c0,0.2,0.2,0.5,0.5,0.5h0.7v1.1h-4
	L223.9,112.7L223.9,112.7z"/>
<path class="st1" d="M229.2,111.7v-5.6H228V105h1.1v-2.4h1.8v2.4h2v1.1h-2v5.4c0,1,0.3,1.2,1.2,1.2h0.9v1c-0.3,0.1-0.9,0.2-1.5,0.2
	C230.1,113.9,229.2,113.3,229.2,111.7"/>
<path class="st1" d="M235.4,115.5c1-0.3,1.8-0.9,2.4-1.9l-3-6.9c-0.1-0.3-0.4-0.5-0.6-0.5h-0.3V105h3.9v1.1h-1.3l2.3,5.4l1.8-4.4
	c0.2-0.6,0.2-1-0.4-1h-0.4V105h3.6v1.1H243c-0.3,0-0.5,0.2-0.7,0.6l-2.8,6.4c-0.8,1.8-1.7,2.9-2.6,3.4h-1.5L235.4,115.5L235.4,115.5
	L235.4,115.5z"/>
</svg>
