<?xml version="1.0" encoding="utf-8"?>
<!-- Generator: Adobe Illustrator 27.7.0, SVG Export Plug-In . SVG Version: 6.00 Build 0)  -->
<svg version="1.1" id="Layer_1" xmlns="http://www.w3.org/2000/svg" xmlns:xlink="http://www.w3.org/1999/xlink" x="0px" y="0px"
	 viewBox="0 0 366 156" style="enable-background:new 0 0 366 156;" xml:space="preserve">
<style type="text/css">
	.st0{fill:none;}
	.st1{fill:url(#prt-img_00000010997080013659722080000012967416426844995743_);}
	.st2{fill:#0C2545;}
	.st3{fill:url(#SVGID_1_);}
</style>
<pattern  y="156" width="433" height="433" patternUnits="userSpaceOnUse" id="pattern" viewBox="0 -433 433 433" style="overflow:visible;">
	<g>
		<rect y="-433" class="st0" width="433" height="433"/>
		
			<image style="overflow:visible;enable-background:new    ;" width="700" height="388" xlink:href="B0BF30EE.jpg"  transform="matrix(0.5229 0 0 -0.5229 33.5006 -115.067)">
		</image>
	</g>
</pattern>
<pattern  id="prt-img_00000046306963515676724830000015402683098864280197_" xlink:href="#pattern" patternTransform="matrix(0.8453 0 0 -0.8453 -1096.8557 -14865.0166)">
</pattern>
<rect id="prt-img" y="0" style="fill:url(#prt-img_00000046306963515676724830000015402683098864280197_);" width="366" height="156"/>
<path class="st2" d="M100.5,65.4h15.6v3.2h-5.7v16.1h-4.1V68.6h-5.7V65.4z M122.4,84.6v-8.5h7.3v8.5h4.1V65.4h-4.2V73h-7.3v-7.6
	h-4.1v19.3C118.3,84.6,122.4,84.6,122.4,84.6z M137.2,84.6h13.2v-3.2h-9.1v-5.1h8.2v-3.2h-8.2v-4.5h8.8v-3.2h-12.9V84.6z M167,79.8
	L167,79.8l-3-14.5h-4.3l4.7,19.3h4.7l3.7-14.7h0.1l3.5,14.7h4.6l4.9-19.3h-3.9l-3.1,14.5h-0.1l-3.4-14.5h-4.7L167,79.8z M187.2,75
	c0,5.7,2.9,10,9.3,10c6.4,0,9.3-4.3,9.3-10c0-5.7-2.9-10-9.3-10C190.1,65,187.2,69.3,187.2,75 M191.6,75c0-3.3,0.8-7.1,4.9-7.1
	s4.9,3.7,4.9,7.1c0,3.3-0.8,7-4.9,7S191.6,78.3,191.6,75 M212.6,76.9h4.4c1.4,0.1,1.6,1.5,1.7,2.6c0.2,1.7,0.4,3.5,0.7,5.2h4.6
	c-0.8-1.1-0.9-3.3-1.1-4.6c-0.4-2.7-0.4-4.6-3.5-5v0c2.4-0.5,4-2.2,4-4.7c0-3.9-3.4-5-6.7-5h-8.2v19.3h4.1V76.9z M212.6,68.6h3.5
	c1.8,0,2.9,0.8,2.9,2.5c0,1.7-1.1,2.6-2.9,2.6h-3.5V68.6z M239,84.6v-3.2h-8.4V65.4h-4.1v19.3H239z M241.2,84.6h6.6
	c6,0,9.7-2.9,9.7-9.6c0-6.7-3.7-9.7-9.7-9.6h-6.6V84.6z M245.4,68.6h2.1c4.9,0,5.6,3.4,5.6,6.4c0,3.1-0.7,6.5-5.6,6.4h-2.1V68.6z
	 M275.3,84.6c3,0.2,7.8-1.2,7.8-5c0-2.8-1.8-4.5-4.2-5v-0.1c1.9-0.6,3.4-2.1,3.4-4.2c0-3.8-3.5-5.2-7-5H268v19.3L275.3,84.6
	L275.3,84.6z M272.1,81.4v-5.1h3.2c2,0,3.3,0.3,3.3,2.6c0,2.2-1.3,2.6-3.3,2.6H272.1z M272.1,73.1v-4.5h3.2c1.7,0,2.7,0.7,2.7,2.3
	c0,1.5-1,2.3-2.7,2.3H272.1z M288.3,84.6l1.4-4.1h7.6l1.4,4.1h4.2l-6.7-19.3h-4.9l-7,19.3H288.3z M290.8,77.3l2.8-8.2h0.1l2.6,8.2
	C296.3,77.3,290.8,77.3,290.8,77.3z M322.4,84.6V65.4h-3.9v15.1l0,0.1l-7.3-15.2H305v19.3h3.9v-16l0-0.1l7.6,16H322.4z M329.9,65.4
	h-4.1v19.3h4.1v-9.8h0l6.7,9.8h5.1L334.2,74l7.1-8.6h-4.8l-6.4,8.3h0L329.9,65.4L329.9,65.4z"/>
<radialGradient id="SVGID_1_" cx="154.4872" cy="-404.9415" r="1.5171" gradientTransform="matrix(33.7679 0 0 -33.768 -5125.8628 -13610.9365)" gradientUnits="userSpaceOnUse">
	<stop  offset="0" style="stop-color:#FFFFFF"/>
	<stop  offset="5.980000e-02" style="stop-color:#EBF7FE"/>
	<stop  offset="0.1829" style="stop-color:#B9E5F5"/>
	<stop  offset="0.3589" style="stop-color:#63CCED"/>
	<stop  offset="0.544" style="stop-color:#0AACE4"/>
	<stop  offset="1" style="stop-color:#0C2545"/>
</radialGradient>
<path class="st3" d="M89.3,69.7c-0.7,0.3-1.1,1.2-0.8,1.9c1.5,3.4,2.2,7.1,2.2,10.9c0,2.3-0.3,4.6-0.8,6.7c-0.4,1.4-1.2,2.6-2.2,3.8
	c0-0.5,0-1,0-1.5c0-5.5-1.5-11.3-4.3-16.8c2.1-1.8,3.4-4,3.8-6.4c0.1-0.8-0.4-1.5-1.2-1.7s-1.5,0.4-1.7,1.2
	c-0.3,1.6-1.2,3.1-2.5,4.4c-0.4-0.7-0.8-1.3-1.3-2c-2.5-3.7-5.5-6.9-8.8-9.4c4.3,0.3,8.3,1.3,11.6,3.1c0.5,0.3,1.2,0.3,1.7-0.1
	c0.6-0.5,0.7-1.4,0.2-2c-4.6-6.5-12.6-10-22.6-10c-17,0-30.9,13.9-30.9,30.9c0,2.9,0.4,5.8,1.2,8.5c0,0.2,0.1,0.4,0.1,0.5
	c0,0,0,0.1,0,0.1c3.9,12.6,15.7,21.8,29.5,21.8c6.4,0,12.4-2,17.3-5.3c0,0,0.1,0,0.1-0.1c0.3-0.2,0.6-0.4,0.9-0.6
	C86.7,103.1,91,97,92.7,90c0.1-0.3,0.2-0.7,0.3-1c0-0.1,0-0.2,0-0.2c0.4-2,0.6-4.1,0.6-6.3c0-4.2-0.8-8.2-2.4-12
	C90.9,69.7,90.1,69.4,89.3,69.7z M78.3,71.7c0.5,0.7,0.9,1.4,1.3,2.1c-2.3,1.3-5.2,2.1-8.3,2.3c-0.3-5-0.8-9.7-1.8-13.7
	C72.8,64.9,75.8,68,78.3,71.7z M74.1,56.5c1.4,0.6,2.9,1.3,4.2,2.2c-2.2-0.5-4.5-0.9-6.9-1C72.4,57.1,73.3,56.7,74.1,56.5z
	 M70.3,55.3c-0.8,0.4-1.6,1-2.5,1.6c-0.4-0.8-0.8-1.6-1.2-2.2C67.7,54.8,69,55,70.3,55.3z M56.6,76.3c2.1,0.9,4.3,1.7,6.7,2.2
	c1.8,0.4,3.6,0.6,5.3,0.7c0,1.1,0,2.2,0,3.3c0,6.8-0.5,12.4-1.3,16.8c-2.6-0.1-5.2-0.5-7.9-1c-3.6-0.8-6.9-1.9-10-3.3
	c1-4.5,2.9-10,5.8-16C55.7,78,56.2,77.1,56.6,76.3z M51.6,69.6c-1.2-1.1-2.1-2.3-2.7-3.4c2.7-1.6,5.7-2.9,8.9-3.9
	c1.9-0.6,3.8-1,5.7-1.3c-2.8,3.1-5.5,7-8,11.4C54,71.6,52.7,70.7,51.6,69.6z M68.5,76.2c-1.5-0.1-3.1-0.2-4.6-0.6
	c-2.1-0.4-4.1-1.1-5.9-1.9c2.7-4.7,5.6-8.8,8.5-11.8C67.4,65.5,68.2,70.3,68.5,76.2z M62.7,54.5c0.5,0,1.1,0.6,1.7,1.7
	c-0.3-0.1-0.6-0.3-1-0.4c-1.3-0.5-2.6-0.9-3.9-1.2C60.6,54.5,61.7,54.5,62.7,54.5z M48.1,61.5c0.3-1.5,1.2-2.8,2.6-3.9
	c3.4-1,7.3-0.8,11.4,0.7c-1.7,0.3-3.5,0.7-5.2,1.2c-3.2,1-6.2,2.2-8.9,3.8C47.9,62.8,48,62.1,48.1,61.5z M45.4,60.5
	c0,0.1-0.1,0.3-0.1,0.4c-0.3,1.4-0.3,2.7,0.1,4.1c-3.1,2.1-5.8,4.7-7.9,7.5c-0.6,0.9-1.2,1.7-1.8,2.6C37.3,69.3,40.7,64.2,45.4,60.5
	z M45.9,104.8c-4.8-3.6-8.4-8.8-10.1-14.7c-0.2-0.9-0.4-1.9-0.5-2.8c1,1.4,2.1,2.7,3.5,4c2.1,1.9,4.6,3.7,7.4,5.2
	C45.7,99.6,45.5,102.5,45.9,104.8z M40.8,89.2c-2.4-2.3-4.1-4.6-5-7c0.7-2.7,2-5.3,3.9-7.9c1.8-2.4,4.1-4.6,6.7-6.5
	c0.8,1.4,1.8,2.7,3.2,3.9c1.3,1.2,2.8,2.3,4.4,3.2c-0.5,0.9-0.9,1.7-1.3,2.6c-2.5,5.2-4.6,10.8-5.9,15.9
	C44.6,92.2,42.5,90.8,40.8,89.2z M62.8,110.5c-0.1,0-0.1,0-0.2,0c-4.3,0-8.3-1-12-2.8c-0.1-0.1-0.2-0.1-0.3-0.2
	c-1.6-0.8-2.2-4.3-1.4-9.8c3.1,1.4,6.4,2.5,9.9,3.2c2.7,0.6,5.3,0.9,7.9,1C65.5,107.6,63.8,110.5,62.8,110.5z M79.3,105.1
	c-3.6,2.6-7.8,4.5-12.4,5.1c1.2-2,2.1-4.8,2.8-8.1c4.1,0,7.9-0.6,11.3-1.8c0.9-0.3,1.7-0.6,2.4-1C82.5,101.7,81.1,103.6,79.3,105.1z
	 M84.6,95.6c-1.3,0.8-2.8,1.5-4.4,2c-3,1-6.3,1.5-9.9,1.6c0.8-5.1,1.3-11,1.3-16.8c0-1.1,0-2.2,0-3.4c3.6-0.2,6.9-1.2,9.6-2.7
	c2.5,5,3.9,10.2,3.8,15.2C84.9,92.9,84.8,94.3,84.6,95.6z"/>
</svg>
