<?xml version="1.0" encoding="utf-8"?>
<!-- Generator: Adobe Illustrator 27.7.0, SVG Export Plug-In . SVG Version: 6.00 Build 0)  -->
<svg version="1.1" id="Layer_1" xmlns="http://www.w3.org/2000/svg" xmlns:xlink="http://www.w3.org/1999/xlink" x="0px" y="0px"
	 viewBox="0 0 366 156" style="enable-background:new 0 0 366 156;" xml:space="preserve">
<style type="text/css">
	.st0{fill:none;}
	.st1{fill:url(#prt-img_00000100352675276081335220000017377514887538055557_);}
	.st2{filter:url(#Adobe_OpacityMaskFilter);}
	.st3{fill:#010101;}
	.st4{mask:url(#c_00000104683643808056989660000010315327704824417668_);fill:#010101;}
	.st5{filter:url(#Adobe_OpacityMaskFilter_00000034775459088178718990000017688518922472177834_);}
	.st6{fill-rule:evenodd;clip-rule:evenodd;fill:#FFFFFF;}
	.st7{mask:url(#f_00000157999038649822552370000003527656684221748386_);fill-rule:evenodd;clip-rule:evenodd;fill:url(#SVGID_1_);}
	.st8{fill-rule:evenodd;clip-rule:evenodd;fill:#032D36;}
	.st9{fill-rule:evenodd;clip-rule:evenodd;fill:#3F93A2;}
	.st10{filter:url(#Adobe_OpacityMaskFilter_00000115513638108888959800000012843423376819272095_);}
	.st11{mask:url(#h_00000043423244291511041500000008207636825024849060_);fill-rule:evenodd;clip-rule:evenodd;fill:#3F93A2;}
</style>
<pattern  y="156" width="433" height="433" patternUnits="userSpaceOnUse" id="pattern" viewBox="0 -433 433 433" style="overflow:visible;">
	<g>
		<rect y="-433" class="st0" width="433" height="433"/>
		
			<image style="overflow:visible;enable-background:new    ;" width="700" height="388" xlink:href="98F88212.jpg"  transform="matrix(0.5229 0 0 -0.5229 33.5006 -115.067)">
		</image>
	</g>
</pattern>
<pattern  id="prt-img_00000052825988593028004750000014215665985293600158_" xlink:href="#pattern" patternTransform="matrix(0.8453 0 0 -0.8453 -1096.8557 -14865.0166)">
</pattern>
<rect id="prt-img" y="0" style="fill:url(#prt-img_00000052825988593028004750000014215665985293600158_);" width="366" height="156"/>
<g>
	<g transform="translate(1.39 -.44)">
		<defs>
			<filter id="Adobe_OpacityMaskFilter" filterUnits="userSpaceOnUse" x="43.2" y="36.2" width="0" height="0">
				<feColorMatrix  type="matrix" values="1 0 0 0 0  0 1 0 0 0  0 0 1 0 0  0 0 0 1 0"/>
			</filter>
		</defs>
		
			<mask maskUnits="userSpaceOnUse" x="43.2" y="36.2" width="0" height="0" id="c_00000104683643808056989660000010315327704824417668_">
			<g class="st2">
				<path id="a_00000127007099382717964860000012824391150016291722_" class="st3" d="M43.2,36.2"/>
			</g>
		</mask>
		<path class="st4" d="M43.2,36.2"/>
	</g>
	<g transform="translate(0 3.725)">
		<defs>
			
				<filter id="Adobe_OpacityMaskFilter_00000140726725435699779060000012635936377729054653_" filterUnits="userSpaceOnUse" x="43.2" y="36.9" width="89.5" height="86.7">
				<feColorMatrix  type="matrix" values="1 0 0 0 0  0 1 0 0 0  0 0 1 0 0  0 0 0 1 0"/>
			</filter>
		</defs>
		
			<mask maskUnits="userSpaceOnUse" x="43.2" y="36.9" width="89.5" height="86.7" id="f_00000157999038649822552370000003527656684221748386_">
			<g style="filter:url(#Adobe_OpacityMaskFilter_00000140726725435699779060000012635936377729054653_);">
				<path id="d_00000155858087642629629750000008680560964625964213_" class="st6" d="M111.8,36.9c-3.5,0.1-7,0.7-10.3,1.7
					c0,0,0,0,0,0c-0.3,0.1-0.6,0.3-0.8,0.6c-0.1,0.1-0.1,0.2-0.1,0.2c-0.2,0.4-0.2,0.8,0,1.2c1.7,2.9,3,6,4,9.2
					c1.1,3.6,1.8,7.2,2,11c0.2,2.8,0.1,5.5-0.3,8.3c-0.2,1.3-0.4,2.7-0.7,4c-0.1,0.3-0.1,0.6-0.2,0.8c-0.1,0.6,0.2,1.2,0.7,1.4
					c0.3,0.1,0.7,0.1,1,0c0.2-0.1,0.4-0.2,0.5-0.4c0.4-0.6,0.8-1.1,1.1-1.7c1.8-2.8,3.2-5.8,4.2-9c1.4-4.1,2.1-8.4,2.2-12.8
					c0.1-4.8-0.6-9.4-2.2-13.7C112.8,37.2,112.4,36.9,111.8,36.9L111.8,36.9 M58.2,40c-0.1,0-0.3,0-0.4,0.1
					c-0.4,0.2-0.6,0.5-0.7,0.8c-1.1,3.4-1.6,6.9-1.7,10.4c0,0.3,0.1,0.7,0.3,1c0.1,0.1,0.1,0.1,0.2,0.2c0.3,0.3,0.7,0.4,1.1,0.4
					c3.3-0.7,6.6-1,10-0.9c6.5,0.1,12.9,1.6,18.8,4.4c1.2,0.6,2.4,1.2,3.6,1.9c0.2,0.1,0.5,0.3,0.7,0.4c0.3,0.2,0.8,0.2,1.1,0.1
					c0.2-0.1,0.3-0.2,0.5-0.3c0.4-0.5,0.4-1.1,0.1-1.6c-0.4-0.5-0.8-1.1-1.3-1.6c-2.2-2.5-4.6-4.8-7.3-6.8
					c-3.5-2.6-7.3-4.6-11.4-6.1C67.5,40.8,63.2,40,59,40C58.7,40,58.5,40,58.2,40 M69.6,66.2c-0.6,0.2-1.3,0.5-1.9,0.7
					c-3.1,1.3-6,2.9-8.7,4.8c-3.5,2.5-6.7,5.6-9.3,9c-2.9,3.8-5.1,7.8-6.4,12c0,0.1,0,0.2-0.1,0.3v0c0,0.4,0.2,0.7,0.6,1
					c2.9,2.1,6,3.7,9.3,4.9c0.3,0.1,0.7,0.1,1,0c0,0,0,0,0,0c0.1,0,0.2-0.1,0.3-0.1c0.4-0.2,0.6-0.6,0.7-1c0.4-3.3,1.1-6.5,2.3-9.7
					c1.2-3.5,2.9-6.8,4.9-9.9c1.5-2.3,3.2-4.5,5.1-6.5c0.9-1,1.9-1.9,2.9-2.9c0.2-0.2,0.4-0.4,0.7-0.6c0.5-0.4,0.5-1.1,0.2-1.6
					c-0.2-0.4-0.7-0.6-1.1-0.6C69.9,66.2,69.8,66.2,69.6,66.2 M125.7,78.3c-2.3,2.4-4.8,4.6-7.5,6.5c-3.1,2.1-6.4,3.9-9.8,5.2
					c-2.6,1-5.2,1.8-7.9,2.3c-1.3,0.3-2.7,0.5-4.1,0.6c-0.3,0-0.6,0.1-0.9,0.1c-0.1,0-0.3,0-0.4,0.1c-0.4,0.2-0.7,0.6-0.7,1
					c-0.1,0.6,0.3,1.2,0.9,1.3c0.6,0.2,1.3,0.4,2,0.5c3.2,0.8,6.6,1.2,9.9,1.2c4.4,0,8.7-0.6,12.9-1.9c1.1-0.4,2.3-0.8,3.4-1.2h0
					c3.3-1.3,6.3-3,8.9-5c0.4-0.3,0.5-0.8,0.4-1.4c-1.2-3.2-2.8-6.3-4.8-9.2c-0.2-0.3-0.5-0.5-0.8-0.6c-0.1,0-0.3-0.1-0.5-0.1
					C126.2,78,125.9,78.1,125.7,78.3 M72.8,88.9c-0.1,0-0.1,0-0.2,0.1c-0.5,0.2-0.8,0.7-0.8,1.2c0,0.7,0,1.4,0.1,2
					c0.2,3.3,0.9,6.6,1.9,9.8c1.3,4.1,3.3,8.1,5.8,11.6c2.7,3.9,5.9,7.2,9.5,9.8c0.2,0.1,0.4,0.2,0.6,0.2h0c0.1,0,0.3,0,0.4-0.1
					c0.1-0.1,0.3-0.1,0.4-0.2c2.8-2.1,5.2-4.6,7.4-7.3c0.2-0.3,0.3-0.6,0.3-1c0-0.1,0-0.2,0-0.3c-0.1-0.4-0.3-0.8-0.7-1
					c-3-1.4-5.8-3.1-8.5-5.1c-2.9-2.3-5.6-4.8-8-7.7c-1.7-2.1-3.3-4.4-4.6-6.8c-0.7-1.2-1.3-2.4-1.8-3.7c-0.1-0.3-0.2-0.5-0.3-0.8
					c-0.2-0.5-0.6-0.7-1.1-0.7C73,88.9,72.9,88.9,72.8,88.9"/>
			</g>
		</mask>
		
			<radialGradient id="SVGID_1_" cx="4.8098" cy="149.2116" r="0.5494" gradientTransform="matrix(82.6055 -26.2023 -26.2022 -82.6062 3599.542 12528.7646)" gradientUnits="userSpaceOnUse">
			<stop  offset="0" style="stop-color:#6EC6D8"/>
			<stop  offset="1" style="stop-color:#487F86"/>
		</radialGradient>
		<path class="st7" d="M111.8,36.9c-3.5,0.1-7,0.7-10.3,1.7c0,0,0,0,0,0c-0.3,0.1-0.6,0.3-0.8,0.6c-0.1,0.1-0.1,0.2-0.1,0.2
			c-0.2,0.4-0.2,0.8,0,1.2c1.7,2.9,3,6,4,9.2c1.1,3.6,1.8,7.2,2,11c0.2,2.8,0.1,5.5-0.3,8.3c-0.2,1.3-0.4,2.7-0.7,4
			c-0.1,0.3-0.1,0.6-0.2,0.8c-0.1,0.6,0.2,1.2,0.7,1.4c0.3,0.1,0.7,0.1,1,0c0.2-0.1,0.4-0.2,0.5-0.4c0.4-0.6,0.8-1.1,1.1-1.7
			c1.8-2.8,3.2-5.8,4.2-9c1.4-4.1,2.1-8.4,2.2-12.8c0.1-4.8-0.6-9.4-2.2-13.7C112.8,37.2,112.4,36.9,111.8,36.9L111.8,36.9 M58.2,40
			c-0.1,0-0.3,0-0.4,0.1c-0.4,0.2-0.6,0.5-0.7,0.8c-1.1,3.4-1.6,6.9-1.7,10.4c0,0.3,0.1,0.7,0.3,1c0.1,0.1,0.1,0.1,0.2,0.2
			c0.3,0.3,0.7,0.4,1.1,0.4c3.3-0.7,6.6-1,10-0.9c6.5,0.1,12.9,1.6,18.8,4.4c1.2,0.6,2.4,1.2,3.6,1.9c0.2,0.1,0.5,0.3,0.7,0.4
			c0.3,0.2,0.8,0.2,1.1,0.1c0.2-0.1,0.3-0.2,0.5-0.3c0.4-0.5,0.4-1.1,0.1-1.6c-0.4-0.5-0.8-1.1-1.3-1.6c-2.2-2.5-4.6-4.8-7.3-6.8
			c-3.5-2.6-7.3-4.6-11.4-6.1C67.5,40.8,63.2,40,59,40C58.7,40,58.5,40,58.2,40 M69.6,66.2c-0.6,0.2-1.3,0.5-1.9,0.7
			c-3.1,1.3-6,2.9-8.7,4.8c-3.5,2.5-6.7,5.6-9.3,9c-2.9,3.8-5.1,7.8-6.4,12c0,0.1,0,0.2-0.1,0.3v0c0,0.4,0.2,0.7,0.6,1
			c2.9,2.1,6,3.7,9.3,4.9c0.3,0.1,0.7,0.1,1,0c0,0,0,0,0,0c0.1,0,0.2-0.1,0.3-0.1c0.4-0.2,0.6-0.6,0.7-1c0.4-3.3,1.1-6.5,2.3-9.7
			c1.2-3.5,2.9-6.8,4.9-9.9c1.5-2.3,3.2-4.5,5.1-6.5c0.9-1,1.9-1.9,2.9-2.9c0.2-0.2,0.4-0.4,0.7-0.6c0.5-0.4,0.5-1.1,0.2-1.6
			c-0.2-0.4-0.7-0.6-1.1-0.6C69.9,66.2,69.8,66.2,69.6,66.2 M125.7,78.3c-2.3,2.4-4.8,4.6-7.5,6.5c-3.1,2.1-6.4,3.9-9.8,5.2
			c-2.6,1-5.2,1.8-7.9,2.3c-1.3,0.3-2.7,0.5-4.1,0.6c-0.3,0-0.6,0.1-0.9,0.1c-0.1,0-0.3,0-0.4,0.1c-0.4,0.2-0.7,0.6-0.7,1
			c-0.1,0.6,0.3,1.2,0.9,1.3c0.6,0.2,1.3,0.4,2,0.5c3.2,0.8,6.6,1.2,9.9,1.2c4.4,0,8.7-0.6,12.9-1.9c1.1-0.4,2.3-0.8,3.4-1.2h0
			c3.3-1.3,6.3-3,8.9-5c0.4-0.3,0.5-0.8,0.4-1.4c-1.2-3.2-2.8-6.3-4.8-9.2c-0.2-0.3-0.5-0.5-0.8-0.6c-0.1,0-0.3-0.1-0.5-0.1
			C126.2,78,125.9,78.1,125.7,78.3 M72.8,88.9c-0.1,0-0.1,0-0.2,0.1c-0.5,0.2-0.8,0.7-0.8,1.2c0,0.7,0,1.4,0.1,2
			c0.2,3.3,0.9,6.6,1.9,9.8c1.3,4.1,3.3,8.1,5.8,11.6c2.7,3.9,5.9,7.2,9.5,9.8c0.2,0.1,0.4,0.2,0.6,0.2h0c0.1,0,0.3,0,0.4-0.1
			c0.1-0.1,0.3-0.1,0.4-0.2c2.8-2.1,5.2-4.6,7.4-7.3c0.2-0.3,0.3-0.6,0.3-1c0-0.1,0-0.2,0-0.3c-0.1-0.4-0.3-0.8-0.7-1
			c-3-1.4-5.8-3.1-8.5-5.1c-2.9-2.3-5.6-4.8-8-7.7c-1.7-2.1-3.3-4.4-4.6-6.8c-0.7-1.2-1.3-2.4-1.8-3.7c-0.1-0.3-0.2-0.5-0.3-0.8
			c-0.2-0.5-0.6-0.7-1.1-0.7C73,88.9,72.9,88.9,72.8,88.9"/>
	</g>
	<g transform="translate(0 -.44)">
		<path class="st8" d="M270,67.8c-1,0.8-2.3,1.2-4,1.2c-0.7,0-1.4,0-2-0.1v-8.7c0.7-0.1,1.4-0.2,2.2-0.2c3.7,0,5.5,1.3,5.5,4.1
			C271.6,65.7,271.1,66.9,270,67.8z M272.6,72.9c1.5-0.5,2.8-1.5,3.8-2.8c1.4-1.7,2-3.7,2-5.8c0-6.7-4.3-10.1-12.6-10.1
			c-2.5,0-5.2,0.3-8.1,1l-0.4,0.1v31.9h1.5c2.8,0,5.1-2.3,5.1-5.1v-7.6c0.9,0.1,2.1,0.1,2.1,0.1h0.2c0.4,0.4,0.8,1,1.3,1.8l6.4,10.8
			h7.8l-7.5-12.1C273.7,74.1,273.2,73.4,272.6,72.9L272.6,72.9z M237.9,67.8c-1,0.8-2.3,1.2-4,1.2c-0.7,0-1.4,0-2-0.1v-8.7
			c0.7-0.1,1.4-0.2,2.2-0.2c3.7,0,5.5,1.3,5.5,4.1C239.5,65.7,239,66.9,237.9,67.8L237.9,67.8z M240.5,72.9c1.5-0.5,2.8-1.5,3.8-2.8
			c1.4-1.7,2.1-3.7,2.1-5.8c0-6.7-4.3-10.1-12.6-10.1c-2.5,0-5.2,0.3-8.1,1l-0.4,0.1v31.9h1.5c2.8,0,5.1-2.3,5.1-5.1v-7.6
			c0.9,0.1,2.1,0.1,2.1,0.1h0.2c0.4,0.4,0.8,1,1.3,1.8l6.4,10.8h7.8l-7.5-12.1C241.6,74.1,241,73.4,240.5,72.9L240.5,72.9z
			 M323.3,70c-0.1-0.1-0.2-0.2-0.4-0.2c-2-1.3-4.3-2.3-6.5-3.3c-2.2-1-3.4-2.1-3.4-3.3c0-1.3,0.5-3,4.4-3c1.5,0,3.6,0.4,6.2,1.3
			l0.5,0.2l2.1-5.6l-0.5-0.2c-3.1-1.1-6-1.6-8.4-1.6c-3,0-5.6,0.7-7.7,2.1c-2.4,1.7-3.6,4-3.6,7.1c0,3.2,1.5,6.1,4.2,7.8
			c0.8,0.5,1.7,1,2.6,1.4c1.3,0.7,2.6,1.3,3.9,1.9c2.2,1.1,3.4,2.4,3.4,3.8c0,1.2-0.5,2-1.6,2.6c-1.9,1-4.7,1-8.4,0
			c-2.5,0.4-4.3,2.5-4.3,4.9l0.2,0.1c3,1.1,6.1,1.7,9,1.7c3.2,0,6-0.8,8.2-2.4c2.6-1.8,3.9-4.3,3.9-7.5
			C327.2,74.6,325.9,71.8,323.3,70L323.3,70z M289.5,87.1h1.5c2.8,0,5.1-2.3,5.1-5.1V54.7h-6.6V87.1z M198,73.2l3.3-8.8l3.4,8.8H198
			z M198.7,54.7l-13.2,32.5l2.5,0c2.5,0,5.3-2,6.3-4.6l1.3-3.4h11.3l3.1,8h7.4l-12.7-32.5L198.7,54.7L198.7,54.7z M171.2,67.4h-12.6
			V54.7h-6.6v32.5h1.5c2.8,0,5.1-2.3,5.1-5.1c0,0,0,0,0,0v-8.9h12.6v14h6.6V54.7h-6.6V67.4z"/>
		<path class="st9" d="M160.6,110.4h-8.6V96.5h8.6v2.4h-5.8v3.2h4.9v2.4h-4.9v3.4h5.8V110.4z M167.3,108.3c0.5,0,0.9-0.1,1.2-0.3
			v-5.6c-0.3-0.1-0.7-0.2-1.1-0.2c-1.8,0-2.8,1-2.8,3.1C164.7,107.3,165.7,108.3,167.3,108.3 M167.3,110.6c-3.4,0-5.4-2-5.4-5.1
			c0-3.3,2.1-5.5,5.4-5.5c0.4,0,0.9,0.1,1.2,0.1v-4l2.7-0.1v13.7C170.2,110.2,168.7,110.6,167.3,110.6 M178.2,110.6
			c-3.3,0-4.5-1.7-4.5-4.2v-6.1h2.7v6.1c0,1.2,0.6,2,1.8,2c0.7,0,1.2-0.1,1.7-0.4v-7.7h2.7v9.5C181.9,110,180.1,110.6,178.2,110.6
			 M192.8,100.6l-0.5,2.2c-0.8-0.3-1.6-0.5-2.2-0.5c-1.6,0-2.5,1.1-2.5,3c0,2,0.9,3.1,2.6,3.1c0.7,0,1.4-0.2,2.2-0.5l0.4,2.2
			c-0.7,0.3-1.7,0.6-2.9,0.6c-3.3,0-5.2-2-5.2-5.3c0-3.2,1.9-5.3,5-5.3C190.9,100,192,100.3,192.8,100.6 M199.8,108.4v-2.1
			c-0.5-0.1-0.9-0.2-1.4-0.2c-0.9,0-1.6,0.4-1.6,1.3c0,0.8,0.6,1.3,1.6,1.3C199,108.6,199.5,108.5,199.8,108.4 M198.1,110.6
			c-2.7,0-4.1-1.3-4.1-3.1c0-2,1.6-3.1,4-3.1c0.6,0,1.3,0.1,1.8,0.2V104c0-1.2-0.7-1.8-2-1.8c-0.9,0-1.8,0.1-2.6,0.5l-0.5-2.1
			c0.9-0.4,2.2-0.6,3.4-0.6c2.9,0,4.4,1.5,4.4,4.2v5.5C201.6,110.1,200.1,110.6,198.1,110.6 M208.8,110.6c-2.4,0-3.6-1.3-3.6-3.9
			v-4.3h-1.3v-2.2h1.3v-2.2l2.7-0.1v2.3h2.2v2.2H208v4.2c0,1.1,0.5,1.7,1.4,1.7c0.4,0,0.8-0.1,1.1-0.1l0.1,2.2
			C210.1,110.5,209.4,110.6,208.8,110.6"/>
		<defs>
			
				<filter id="Adobe_OpacityMaskFilter_00000170236774631307217560000004078475536397652910_" filterUnits="userSpaceOnUse" x="212" y="95.9" width="115.2" height="14.7">
				<feColorMatrix  type="matrix" values="1 0 0 0 0  0 1 0 0 0  0 0 1 0 0  0 0 0 1 0"/>
			</filter>
		</defs>
		
			<mask maskUnits="userSpaceOnUse" x="212" y="95.9" width="115.2" height="14.7" id="h_00000043423244291511041500000008207636825024849060_">
			<g style="filter:url(#Adobe_OpacityMaskFilter_00000170236774631307217560000004078475536397652910_);">
				<path id="g_00000090265235368300435950000008931146351618931626_" class="st6" d="M43.2,127.8h284V37h-284V127.8z"/>
			</g>
		</mask>
		<path class="st11" d="M212.2,110.4h2.7v-10.1h-2.7V110.4L212.2,110.4z M212,97.4c0-0.9,0.6-1.5,1.6-1.5c1,0,1.6,0.6,1.6,1.5
			c0,0.9-0.6,1.5-1.6,1.5C212.6,98.9,212,98.3,212,97.4z M222,108.3c1.4,0,2.1-1.2,2.1-3c0-1.9-0.7-3-2.1-3c-1.4,0-2.2,1.2-2.2,3
			C219.8,107.2,220.6,108.3,222,108.3 M222,110.6c-3,0-4.9-2.1-4.9-5.3c0-3.2,1.9-5.3,4.9-5.3c3.1,0,4.9,2.1,4.9,5.3
			C226.9,108.5,225.1,110.6,222,110.6 M229,110.4v-9.5c1.2-0.5,2.9-0.9,4.5-0.9c2.9,0,4.6,1.4,4.6,4.1v6.3h-2.7v-6.1
			c0-1.4-0.6-2-1.8-2c-0.6,0-1.2,0.1-1.7,0.4v7.7L229,110.4L229,110.4z M245.1,107.4c0.9,0.4,2.3,0.8,3.6,0.8c1.5,0,2.3-0.6,2.3-1.6
			c0-1.2-0.9-1.6-2.7-2.2c-2.3-0.8-3.7-1.8-3.7-4.1c0-2.5,1.7-4,4.8-4c1.5,0,2.9,0.3,3.7,0.7l-0.6,2.4c-0.9-0.4-1.9-0.6-3-0.6
			c-1.4,0-2.1,0.5-2.1,1.4c0,1.1,0.7,1.4,2.2,2c2.4,0.8,4.2,1.7,4.2,4.4c0,2.6-2.1,4.1-5,4.1c-1.7,0-3.3-0.4-4.3-0.8L245.1,107.4
			L245.1,107.4z M260.2,108.3c1.4,0,2.1-1.2,2.1-3c0-1.9-0.7-3-2.1-3c-1.4,0-2.2,1.2-2.2,3C258,107.2,258.8,108.3,260.2,108.3
			 M260.2,110.6c-3,0-5-2.1-5-5.3c0-3.2,1.9-5.3,5-5.3c3.1,0,4.9,2.1,4.9,5.3C265.1,108.5,263.3,110.6,260.2,110.6 M269.8,106.7
			c0,1.1,0.3,1.6,1.1,1.6c0.2,0,0.4,0,0.6-0.1l0.2,2.2c-0.4,0.1-1,0.2-1.4,0.2c-2.3,0-3.2-1.5-3.2-3.9V96.2l2.7-0.2L269.8,106.7
			L269.8,106.7z M277.5,110.6c-3.3,0-4.5-1.7-4.5-4.2v-6.1h2.7v6.1c0,1.2,0.6,2,1.8,2c0.7,0,1.2-0.1,1.7-0.4v-7.7h2.7v9.5
			C281.3,110,279.4,110.6,277.5,110.6 M288.5,110.6c-2.4,0-3.6-1.3-3.6-3.9v-4.3h-1.3v-2.2h1.3v-2.2l2.7-0.1v2.3h2.2v2.2h-2.2v4.2
			c0,1.1,0.5,1.7,1.4,1.7c0.4,0,0.8-0.1,1-0.1l0.1,2.2C289.7,110.5,289.1,110.6,288.5,110.6 M291.9,110.4h2.7v-10.1h-2.7V110.4
			L291.9,110.4z M291.7,97.4c0-0.9,0.6-1.5,1.6-1.5c1,0,1.6,0.6,1.6,1.5c0,0.9-0.6,1.5-1.6,1.5C292.3,98.9,291.7,98.3,291.7,97.4z
			 M301.7,108.3c1.4,0,2.1-1.2,2.1-3c0-1.9-0.7-3-2.1-3c-1.4,0-2.2,1.2-2.2,3C299.5,107.2,300.3,108.3,301.7,108.3 M301.7,110.6
			c-3,0-5-2.1-5-5.3c0-3.2,1.9-5.3,4.9-5.3c3.1,0,4.9,2.1,4.9,5.3C306.6,108.5,304.7,110.6,301.7,110.6 M308.7,110.4v-9.5
			c1.2-0.5,3-0.9,4.5-0.9c2.9,0,4.6,1.4,4.6,4.1v6.3H315v-6.1c0-1.4-0.6-2-1.8-2c-0.6,0-1.2,0.1-1.7,0.4v7.7L308.7,110.4
			L308.7,110.4z M326.4,102.8c-0.9-0.3-1.8-0.5-2.8-0.5c-0.8,0-1.4,0.2-1.4,0.8c0,0.6,0.5,0.8,1.6,1.1c2.3,0.6,3.4,1.4,3.4,3.2
			c0,2.1-1.7,3.2-4.2,3.2c-1.3,0-2.7-0.3-3.6-0.7l0.4-2.2c0.9,0.3,2,0.6,3.1,0.6c0.9,0,1.5-0.3,1.5-0.9c0-0.7-0.5-0.8-2.1-1.3
			c-1.8-0.5-2.9-1.3-2.9-3c0-2,1.4-3.1,3.9-3.1c1.1,0,2.4,0.2,3.3,0.6L326.4,102.8L326.4,102.8z"/>
	</g>
</g>
</svg>
