<svg xmlns="http://www.w3.org/2000/svg" width="37.57" height="24.937" viewBox="0 0 37.57 24.937">
  <g id="quote-top" transform="translate(-1656.036 -391)">
    <path id="Path_131505" data-name="Path 131505" d="M.375,11.987A7.484,7.484,0,0,1-6.84,4.265a7.449,7.449,0,0,1,7.848-7.6c4.3,0,7.722,3.291,7.722,8.608,0,6.329-4.557,13.418-8.481,16.33H-6.587C-3.3,18.569-.511,15.278.375,11.987Z" transform="translate(1684.876 394.33)" fill="#c7993b"/>
    <path id="Path_131506" data-name="Path 131506" d="M.375,11.987A7.484,7.484,0,0,1-6.84,4.265a7.449,7.449,0,0,1,7.848-7.6c4.3,0,7.722,3.291,7.722,8.608,0,6.329-4.557,13.418-8.481,16.33H-6.587C-3.3,18.569-.511,15.278.375,11.987Z" transform="translate(1662.876 394.33)" fill="#c7993b"/>
  </g>
</svg>
