<svg xmlns="http://www.w3.org/2000/svg" xmlns:xlink="http://www.w3.org/1999/xlink" width="67.61" height="45.074" viewBox="0 0 67.61 45.074">
  <defs>
    <clipPath id="clip-path">
      <rect id="Rectangle_15651" data-name="Rectangle 15651" width="67.61" height="45.074" fill="none"/>
    </clipPath>
  </defs>
  <g id="msg-icon" transform="translate(0 0)">
    <g id="Group_125654" data-name="Group 125654" transform="translate(0 0)" clip-path="url(#clip-path)">
      <path id="Path_132219" data-name="Path 132219" d="M64.143,0H3.467A3.478,3.478,0,0,0,0,3.467v38.14a3.478,3.478,0,0,0,3.467,3.467H64.143a3.478,3.478,0,0,0,3.467-3.467V3.467A3.478,3.478,0,0,0,64.143,0m-1.3,2.6L35.8,22.882a3.626,3.626,0,0,1-3.989,0L4.77,2.6ZM48.4,24.221l14.735,18.2a.382.382,0,0,0,.048.048H4.43a.383.383,0,0,0,.048-.048l14.735-18.2a1.3,1.3,0,1,0-2.021-1.637L2.6,40.61V4.225L30.251,24.962a6.2,6.2,0,0,0,7.108,0L65.011,4.225V40.61L50.419,22.585A1.3,1.3,0,1,0,48.4,24.221" transform="translate(0 0)" fill="#fff"/>
    </g>
  </g>
</svg>
