<svg xmlns="http://www.w3.org/2000/svg" width="76.235" height="63.532" viewBox="0 0 76.235 63.532">
  <g id="vision-icon" transform="translate(-635.708 -92.184)">
    <path id="Path_132213" data-name="Path 132213" d="M303.96,64.139a44.57,44.57,0,0,0-36.652-20.882V33.051h-2.538V43.257a44.561,44.561,0,0,0-36.65,20.882,1.255,1.255,0,0,0,0,1.356,44.561,44.561,0,0,0,36.65,20.882V96.583h2.538V86.377A44.57,44.57,0,0,0,303.96,65.495a1.267,1.267,0,0,0,0-1.356m-73.257.678A42.038,42.038,0,0,1,252.594,47.94a21.545,21.545,0,0,0-8.089,15.605H234.272v2.544h10.233a21.545,21.545,0,0,0,8.089,15.605A42.038,42.038,0,0,1,230.7,64.817m34.067,11.436v7.559a19.059,19.059,0,0,1-17.725-17.722H254.6V63.545h-7.559a19.059,19.059,0,0,1,17.725-17.722v7.559h2.538V45.823a19.061,19.061,0,0,1,17.725,17.722h-7.556v2.544h7.556a19.063,19.063,0,0,1-17.725,17.722V76.252Zm36.608-11.436a42.077,42.077,0,0,1-21.895,16.877,21.557,21.557,0,0,0,8.091-15.605H297.8V63.545H287.573a21.557,21.557,0,0,0-8.091-15.605,42.077,42.077,0,0,1,21.895,16.877" transform="translate(407.787 59.133)" fill="#fff"/>
    <path id="Path_132214" data-name="Path 132214" d="M247.293,41.251a8.895,8.895,0,1,0,8.895,8.895,8.9,8.9,0,0,0-8.895-8.895m0,15.248a6.352,6.352,0,1,1,6.354-6.354,6.354,6.354,0,0,1-6.354,6.354" transform="translate(426.532 73.805)" fill="#fff"/>
    <path id="Path_132215" data-name="Path 132215" d="M231.47,33.051a1.271,1.271,0,0,0-1.272,1.272V44.487h2.544V35.592h8.892V33.051Z" transform="translate(411.861 59.133)" fill="#fff"/>
    <path id="Path_132216" data-name="Path 132216" d="M259.04,33.051H248.876v2.541h8.892v8.895h2.544V34.323a1.271,1.271,0,0,0-1.272-1.272" transform="translate(445.279 59.133)" fill="#fff"/>
    <path id="Path_132217" data-name="Path 132217" d="M257.771,51.729v8.895h-8.895v2.541h10.166a1.271,1.271,0,0,0,1.269-1.272V51.729Z" transform="translate(445.279 92.551)" fill="#fff"/>
    <path id="Path_132218" data-name="Path 132218" d="M232.74,60.623V51.728H230.2V61.894a1.27,1.27,0,0,0,1.269,1.269h10.166V60.623Z" transform="translate(411.863 92.55)" fill="#fff"/>
  </g>
</svg>
